BenchTwelve-Regular-FF.ufo
<glyph name="dollar" format="1">
  <advance width="1976"/>
  <unicode hex="0024"/>
  <outline>
    <contour>
      <point x="1006" y="-197" type="curve" smooth="yes"/>
      <point x="1029" y="-197" type="line" smooth="yes"/>
      <point x="1048" y="-197"/>
      <point x="1063" y="-182"/>
      <point x="1063" y="-135" type="curve" smooth="yes"/>
      <point x="1063" y="-40" type="line"/>
      <point x="1598" y="-30"/>
      <point x="1841" y="78"/>
      <point x="1841" y="437" type="curve" smooth="yes"/>
      <point x="1841" y="716"/>
      <point x="1636" y="836"/>
      <point x="1063" y="838" type="curve"/>
      <point x="1063" y="1306" type="line"/>
      <point x="1466" y="1294"/>
      <point x="1587" y="1186"/>
      <point x="1647" y="1186" type="curve" smooth="yes"/>
      <point x="1712" y="1186"/>
      <point x="1721" y="1245"/>
      <point x="1721" y="1245" type="curve"/>
      <point x="1726" y="1254"/>
      <point x="1728" y="1265"/>
      <point x="1728" y="1275" type="curve" smooth="yes"/>
      <point x="1728" y="1303"/>
      <point x="1712" y="1330"/>
      <point x="1688" y="1341" type="curve" smooth="yes"/>
      <point x="1502" y="1422"/>
      <point x="1340" y="1468"/>
      <point x="1063" y="1474" type="curve"/>
      <point x="1063" y="1583" type="line" smooth="yes"/>
      <point x="1063" y="1629"/>
      <point x="1048" y="1644"/>
      <point x="1029" y="1644" type="curve" smooth="yes"/>
      <point x="1006" y="1644" type="line" smooth="yes"/>
      <point x="987" y="1644"/>
      <point x="972" y="1629"/>
      <point x="972" y="1583" type="curve" smooth="yes"/>
      <point x="972" y="1475" type="line"/>
      <point x="499" y="1473"/>
      <point x="145" y="1404"/>
      <point x="145" y="1043" type="curve" smooth="yes"/>
      <point x="145" y="723"/>
      <point x="412" y="655"/>
      <point x="972" y="652" type="curve"/>
      <point x="972" y="127" type="line"/>
      <point x="444" y="131"/>
      <point x="294" y="262"/>
      <point x="226" y="262" type="curve" smooth="yes"/>
      <point x="195" y="262"/>
      <point x="173" y="249"/>
      <point x="158" y="217" type="curve"/>
      <point x="158" y="217"/>
      <point x="145" y="173"/>
      <point x="145" y="164" type="curve" smooth="yes"/>
      <point x="145" y="135"/>
      <point x="161" y="107"/>
      <point x="186" y="97" type="curve" smooth="yes"/>
      <point x="463" y="-8"/>
      <point x="667" y="-41"/>
      <point x="972" y="-41" type="curve"/>
      <point x="972" y="-135" type="line" smooth="yes"/>
      <point x="972" y="-182"/>
      <point x="987" y="-197"/>
    </contour>
    <contour>
      <point x="1063" y="128" type="line"/>
      <point x="1063" y="652" type="line"/>
      <point x="1569" y="646"/>
      <point x="1623" y="561"/>
      <point x="1623" y="409" type="curve" smooth="yes"/>
      <point x="1623" y="239"/>
      <point x="1539" y="137"/>
      <point x="1063" y="128" type="curve"/>
    </contour>
    <contour>
      <point x="972" y="838" type="line"/>
      <point x="408" y="844"/>
      <point x="368" y="921"/>
      <point x="368" y="1066" type="curve" smooth="yes"/>
      <point x="368" y="1197"/>
      <point x="483" y="1304"/>
      <point x="972" y="1307" type="curve"/>
    </contour>
  </outline>
</glyph>
<glyph name="ampersand" format="1">
  <advance width="2434"/>
  <unicode hex="0026"/>
  <outline>
    <contour>
      <point x="1960" y="-41" type="curve" smooth="yes"/>
      <point x="2070" y="-41"/>
      <point x="2160" y="-26"/>
      <point x="2239" y="5" type="curve" smooth="yes"/>
      <point x="2280" y="21"/>
      <point x="2302" y="36"/>
      <point x="2290" y="78" type="curve" smooth="yes"/>
      <point x="2281" y="110" type="line" smooth="yes"/>
      <point x="2271" y="145"/>
      <point x="2264" y="167"/>
      <point x="2207" y="148" type="curve" smooth="yes"/>
      <point x="2146" y="128"/>
      <point x="2072" y="111"/>
      <point x="2003" y="111" type="curve" smooth="yes"/>
      <point x="1852" y="111"/>
      <point x="1777" y="167"/>
      <point x="1777" y="305" type="curve" smooth="yes"/>
      <point x="1777" y="635" type="line" smooth="yes"/>
      <point x="1777" y="655"/>
      <point x="1784" y="662"/>
      <point x="1804" y="662" type="curve" smooth="yes"/>
      <point x="2186" y="662" type="line" smooth="yes"/>
      <point x="2229" y="662"/>
      <point x="2253" y="686"/>
      <point x="2253" y="729" type="curve" smooth="yes"/>
      <point x="2253" y="753" type="line" smooth="yes"/>
      <point x="2253" y="796"/>
      <point x="2229" y="820"/>
      <point x="2186" y="820" type="curve" smooth="yes"/>
      <point x="1804" y="820" type="line" smooth="yes"/>
      <point x="1784" y="820"/>
      <point x="1777" y="827"/>
      <point x="1777" y="847" type="curve" smooth="yes"/>
      <point x="1777" y="1064" type="line" smooth="yes"/>
      <point x="1777" y="1107"/>
      <point x="1753" y="1131"/>
      <point x="1710" y="1131" type="curve" smooth="yes"/>
      <point x="1636" y="1131" type="line" smooth="yes"/>
      <point x="1593" y="1131"/>
      <point x="1577" y="1106"/>
      <point x="1569" y="1064" type="curve"/>
      <point x="1549" y="847" type="line"/>
      <point x="1549" y="827"/>
      <point x="1542" y="820"/>
      <point x="1522" y="820" type="curve" smooth="yes"/>
      <point x="803" y="820" type="line" smooth="yes"/>
      <point x="404" y="820"/>
      <point x="354" y="950"/>
      <point x="371" y="1086" type="curve" smooth="yes"/>
      <point x="383" y="1181"/>
      <point x="426" y="1299"/>
      <point x="904" y="1299" type="curve" smooth="yes"/>
      <point x="1238" y="1299"/>
      <point x="1396" y="1249"/>
      <point x="1435" y="1242" type="curve" smooth="yes"/>
      <point x="1444" y="1240"/>
      <point x="1451" y="1239"/>
      <point x="1458" y="1239" type="curve" smooth="yes"/>
      <point x="1484" y="1239"/>
      <point x="1498" y="1252"/>
      <point x="1502" y="1283" type="curve"/>
      <point x="1507" y="1342" type="line" smooth="yes"/>
      <point x="1508" y="1347"/>
      <point x="1508" y="1351"/>
      <point x="1508" y="1355" type="curve" smooth="yes"/>
      <point x="1508" y="1385"/>
      <point x="1492" y="1402"/>
      <point x="1455" y="1412" type="curve" smooth="yes"/>
      <point x="1343" y="1445"/>
      <point x="1112" y="1474"/>
      <point x="914" y="1474" type="curve" smooth="yes"/>
      <point x="309" y="1474"/>
      <point x="142" y="1319"/>
      <point x="142" y="1067" type="curve" smooth="yes"/>
      <point x="142" y="889"/>
      <point x="267" y="768"/>
      <point x="476" y="742" type="curve"/>
      <point x="276" y="722"/>
      <point x="165" y="565"/>
      <point x="165" y="387" type="curve" smooth="yes"/>
      <point x="165" y="145"/>
      <point x="323" y="-40"/>
      <point x="928" y="-40" type="curve" smooth="yes"/>
      <point x="1255" y="-40"/>
      <point x="1493" y="45"/>
      <point x="1623" y="89" type="curve"/>
      <point x="1689" y="7"/>
      <point x="1799" y="-41"/>
    </contour>
    <contour>
      <point x="936" y="135" type="curve" smooth="yes"/>
      <point x="596" y="135"/>
      <point x="411" y="198"/>
      <point x="393" y="338" type="curve" smooth="yes"/>
      <point x="376" y="471"/>
      <point x="389" y="659"/>
      <point x="793" y="662" type="curve"/>
      <point x="1522" y="662" type="line" smooth="yes"/>
      <point x="1542" y="662"/>
      <point x="1549" y="655"/>
      <point x="1549" y="635" type="curve" smooth="yes"/>
      <point x="1549" y="335" type="line" smooth="yes"/>
      <point x="1549" y="304"/>
      <point x="1551" y="274"/>
      <point x="1556" y="246" type="curve"/>
      <point x="1436" y="205"/>
      <point x="1205" y="135"/>
    </contour>
  </outline>
</glyph>
<glyph name="quotesingle" format="1">
  <advance width="508"/>
  <unicode hex="0027"/>
  <outline>
    <contour>
      <point x="255.764" y="772" type="curve" smooth="yes"/>
      <point x="260.764" y="772" type="line" smooth="yes"/>
      <point x="303.764" y="772"/>
      <point x="302.764" y="796"/>
      <point x="307.764" y="839" type="curve" smooth="yes"/>
      <point x="368.764" y="1350" type="line" smooth="yes"/>
      <point x="373.764" y="1393"/>
      <point x="344.764" y="1438"/>
      <point x="301.764" y="1438" type="curve" smooth="yes"/>
      <point x="207.764" y="1438" type="line" smooth="yes"/>
      <point x="164.764" y="1438"/>
      <point x="134.764" y="1394"/>
      <point x="140.764" y="1351" type="curve" smooth="yes"/>
      <point x="208.764" y="839" type="line" smooth="yes"/>
      <point x="214.764" y="796"/>
      <point x="212.764" y="772"/>
    </contour>
  </outline>
</glyph>
<glyph name="parenleft" format="1">
  <advance width="844"/>
  <unicode hex="0028"/>
  <outline>
    <contour>
      <point x="653" y="-143" type="curve" smooth="yes"/>
      <point x="692" y="-154"/>
      <point x="730" y="-111"/>
      <point x="730" y="-73" type="curve" smooth="yes"/>
      <point x="730" y="-55" type="line" smooth="yes"/>
      <point x="730" y="14"/>
      <point x="682" y="9"/>
      <point x="625" y="46" type="curve" smooth="yes"/>
      <point x="452" y="158"/>
      <point x="366" y="296"/>
      <point x="366" y="699" type="curve" smooth="yes"/>
      <point x="366" y="1092"/>
      <point x="481" y="1268"/>
      <point x="625" y="1350" type="curve" smooth="yes"/>
      <point x="687" y="1385"/>
      <point x="730" y="1381"/>
      <point x="730" y="1450" type="curve" smooth="yes"/>
      <point x="730" y="1470" type="line" smooth="yes"/>
      <point x="730" y="1508"/>
      <point x="692" y="1551"/>
      <point x="653" y="1540" type="curve" smooth="yes"/>
      <point x="296" y="1439"/>
      <point x="140" y="1100"/>
      <point x="140" y="699" type="curve" smooth="yes"/>
      <point x="140" y="299"/>
      <point x="276" y="-32"/>
    </contour>
  </outline>
</glyph>
<glyph name="plus" format="1">
  <advance width="1203"/>
  <unicode hex="002B"/>
  <outline>
    <contour>
      <point x="562" y="20" type="curve" smooth="yes"/>
      <point x="640" y="20" type="line" smooth="yes"/>
      <point x="683" y="20"/>
      <point x="697" y="44"/>
      <point x="697" y="87" type="curve" smooth="yes"/>
      <point x="697" y="410" type="line" smooth="yes"/>
      <point x="697" y="430"/>
      <point x="704" y="447"/>
      <point x="724" y="447" type="curve" smooth="yes"/>
      <point x="1024" y="447" type="line" smooth="yes"/>
      <point x="1067" y="447"/>
      <point x="1081" y="461"/>
      <point x="1081" y="504" type="curve" smooth="yes"/>
      <point x="1081" y="585" type="line" smooth="yes"/>
      <point x="1081" y="628"/>
      <point x="1067" y="642"/>
      <point x="1024" y="642" type="curve" smooth="yes"/>
      <point x="724" y="642" type="line" smooth="yes"/>
      <point x="704" y="642"/>
      <point x="697" y="658"/>
      <point x="697" y="678" type="curve" smooth="yes"/>
      <point x="697" y="1012" type="line" smooth="yes"/>
      <point x="697" y="1055"/>
      <point x="683" y="1079"/>
      <point x="640" y="1079" type="curve" smooth="yes"/>
      <point x="562" y="1079" type="line" smooth="yes"/>
      <point x="519" y="1079"/>
      <point x="505" y="1055"/>
      <point x="505" y="1012" type="curve" smooth="yes"/>
      <point x="505" y="678" type="line" smooth="yes"/>
      <point x="505" y="658"/>
      <point x="498" y="642"/>
      <point x="478" y="642" type="curve" smooth="yes"/>
      <point x="178" y="642" type="line" smooth="yes"/>
      <point x="135" y="642"/>
      <point x="121" y="628"/>
      <point x="121" y="585" type="curve" smooth="yes"/>
      <point x="121" y="504" type="line" smooth="yes"/>
      <point x="121" y="461"/>
      <point x="135" y="447"/>
      <point x="178" y="447" type="curve" smooth="yes"/>
      <point x="478" y="447" type="line" smooth="yes"/>
      <point x="498" y="447"/>
      <point x="505" y="430"/>
      <point x="505" y="410" type="curve" smooth="yes"/>
      <point x="505" y="87" type="line" smooth="yes"/>
      <point x="505" y="44"/>
      <point x="519" y="20"/>
    </contour>
  </outline>
</glyph>
<glyph name="comma" format="1">
  <advance width="596"/>
  <unicode hex="002C"/>
  <outline>
    <contour>
      <point x="198" y="-301" type="curve" smooth="yes"/>
      <point x="336" y="-278"/>
      <point x="467" y="-142"/>
      <point x="467" y="95" type="curve" smooth="yes"/>
      <point x="467" y="240" type="line" smooth="yes"/>
      <point x="467" y="283"/>
      <point x="433" y="317"/>
      <point x="390" y="317" type="curve" smooth="yes"/>
      <point x="192" y="317" type="line" smooth="yes"/>
      <point x="149" y="317"/>
      <point x="132" y="296"/>
      <point x="132" y="253" type="curve" smooth="yes"/>
      <point x="132" y="50" type="line" smooth="yes"/>
      <point x="132" y="12"/>
      <point x="154" y="0"/>
      <point x="192" y="0" type="curve" smooth="yes"/>
      <point x="277" y="0" type="line" smooth="yes"/>
      <point x="292" y="0"/>
      <point x="294" y="-11"/>
      <point x="294" y="-27" type="curve" smooth="yes"/>
      <point x="294" y="-51"/>
      <point x="262" y="-128"/>
      <point x="193" y="-171" type="curve" smooth="yes"/>
      <point x="150" y="-198"/>
      <point x="132" y="-192"/>
      <point x="132" y="-246" type="curve" smooth="yes"/>
      <point x="132" y="-256" type="line" smooth="yes"/>
      <point x="132" y="-292"/>
      <point x="163" y="-307"/>
    </contour>
  </outline>
</glyph>
<glyph name="zero" format="1">
  <advance width="1936"/>
  <unicode hex="0030"/>
  <outline>
    <contour>
      <point x="968" y="135" type="curve" smooth="yes"/>
      <point x="581" y="135"/>
      <point x="365" y="282"/>
      <point x="365" y="732" type="curve" smooth="yes"/>
      <point x="365" y="1112"/>
      <point x="568" y="1299"/>
      <point x="968" y="1299" type="curve" smooth="yes"/>
      <point x="1371" y="1299"/>
      <point x="1571" y="1110"/>
      <point x="1571" y="732" type="curve" smooth="yes"/>
      <point x="1571" y="282"/>
      <point x="1358" y="135"/>
    </contour>
    <contour>
      <point x="968" y="-41" type="curve" smooth="yes"/>
      <point x="1429" y="-41"/>
      <point x="1800" y="153"/>
      <point x="1800" y="732" type="curve" smooth="yes"/>
      <point x="1800" y="1264"/>
      <point x="1429" y="1475"/>
      <point x="968" y="1475" type="curve" smooth="yes"/>
      <point x="510" y="1475"/>
      <point x="136" y="1264"/>
      <point x="136" y="732" type="curve" smooth="yes"/>
      <point x="136" y="153"/>
      <point x="510" y="-41"/>
    </contour>
  </outline>
</glyph>
<glyph name="one" format="1">
  <advance width="855"/>
  <unicode hex="0031"/>
  <outline>
    <contour>
      <point x="534" y="0" type="curve" smooth="yes"/>
      <point x="628" y="0" type="line" smooth="yes"/>
      <point x="671" y="0"/>
      <point x="695" y="24"/>
      <point x="695" y="67" type="curve" smooth="yes"/>
      <point x="695" y="1371" type="line" smooth="yes"/>
      <point x="695" y="1414"/>
      <point x="671" y="1438"/>
      <point x="628" y="1438" type="curve"/>
      <point x="157" y="1388" type="line"/>
      <point x="114" y="1388"/>
      <point x="90" y="1364"/>
      <point x="90" y="1321" type="curve" smooth="yes"/>
      <point x="90" y="1286" type="line" smooth="yes"/>
      <point x="90" y="1243"/>
      <point x="114" y="1219"/>
      <point x="157" y="1219" type="curve"/>
      <point x="430" y="1249" type="line"/>
      <point x="450" y="1249"/>
      <point x="467" y="1232"/>
      <point x="467" y="1212" type="curve" smooth="yes"/>
      <point x="467" y="67" type="line" smooth="yes"/>
      <point x="467" y="24"/>
      <point x="491" y="0"/>
    </contour>
  </outline>
</glyph>
<glyph name="four" format="1">
  <advance width="1670"/>
  <unicode hex="0034"/>
  <outline>
    <contour>
      <point x="1074" y="0" type="curve" smooth="yes"/>
      <point x="1164" y="0" type="line" smooth="yes"/>
      <point x="1207" y="0"/>
      <point x="1231" y="24"/>
      <point x="1231" y="67" type="curve" smooth="yes"/>
      <point x="1231" y="284" type="line"/>
      <point x="1484" y="284" type="line" smooth="yes"/>
      <point x="1527" y="284"/>
      <point x="1551" y="308"/>
      <point x="1551" y="351" type="curve" smooth="yes"/>
      <point x="1551" y="386" type="line" smooth="yes"/>
      <point x="1551" y="429"/>
      <point x="1527" y="453"/>
      <point x="1484" y="453" type="curve" smooth="yes"/>
      <point x="1231" y="453" type="line"/>
      <point x="1231" y="1371" type="line" smooth="yes"/>
      <point x="1231" y="1414"/>
      <point x="1207" y="1438"/>
      <point x="1164" y="1438" type="curve" smooth="yes"/>
      <point x="1074" y="1438" type="line" smooth="yes"/>
      <point x="1031" y="1438"/>
      <point x="1007" y="1414"/>
      <point x="1007" y="1371" type="curve" smooth="yes"/>
      <point x="1007" y="453" type="line"/>
      <point x="432" y="453" type="line" smooth="yes"/>
      <point x="415" y="453"/>
      <point x="404" y="463"/>
      <point x="404" y="477" type="curve" smooth="yes"/>
      <point x="404" y="480"/>
      <point x="404" y="483"/>
      <point x="405" y="486" type="curve" smooth="yes"/>
      <point x="674" y="1371" type="line" smooth="yes"/>
      <point x="676" y="1377"/>
      <point x="677" y="1382"/>
      <point x="677" y="1387" type="curve" smooth="yes"/>
      <point x="677" y="1419"/>
      <point x="644" y="1438"/>
      <point x="607" y="1438" type="curve" smooth="yes"/>
      <point x="513" y="1438" type="line" smooth="yes"/>
      <point x="470" y="1438"/>
      <point x="459" y="1412"/>
      <point x="446" y="1371" type="curve" smooth="yes"/>
      <point x="124" y="351" type="line" smooth="yes"/>
      <point x="122" y="345"/>
      <point x="121" y="340"/>
      <point x="121" y="335" type="curve" smooth="yes"/>
      <point x="121" y="303"/>
      <point x="154" y="284"/>
      <point x="191" y="284" type="curve" smooth="yes"/>
      <point x="1007" y="284" type="line"/>
      <point x="1007" y="67" type="line" smooth="yes"/>
      <point x="1007" y="24"/>
      <point x="1031" y="0"/>
    </contour>
  </outline>
</glyph>
<glyph name="five" format="1">
  <advance width="2095"/>
  <unicode hex="0035"/>
  <outline>
    <contour>
      <point x="943" y="-40" type="curve" smooth="yes"/>
      <point x="946" y="-40" type="line" smooth="yes"/>
      <point x="1551" y="-40"/>
      <point x="1962" y="56"/>
      <point x="1962" y="447" type="curve" smooth="yes"/>
      <point x="1962" y="728"/>
      <point x="1789" y="934"/>
      <point x="1134" y="934" type="curve" smooth="yes"/>
      <point x="692" y="934"/>
      <point x="524" y="855"/>
      <point x="391" y="770" type="curve"/>
      <point x="373" y="1218" type="line" smooth="yes"/>
      <point x="371" y="1263"/>
      <point x="398" y="1290"/>
      <point x="441" y="1290" type="curve" smooth="yes"/>
      <point x="1768" y="1269" type="line" smooth="yes"/>
      <point x="1794" y="1269"/>
      <point x="1808" y="1282"/>
      <point x="1812" y="1313" type="curve"/>
      <point x="1821" y="1367" type="line" smooth="yes"/>
      <point x="1822" y="1372"/>
      <point x="1822" y="1376"/>
      <point x="1822" y="1380" type="curve" smooth="yes"/>
      <point x="1822" y="1410"/>
      <point x="1807" y="1438"/>
      <point x="1769" y="1438" type="curve" smooth="yes"/>
      <point x="234" y="1438" type="line" smooth="yes"/>
      <point x="165" y="1438"/>
      <point x="144" y="1393"/>
      <point x="144" y="1318" type="curve"/>
      <point x="208" y="680" type="line" smooth="yes"/>
      <point x="212" y="639"/>
      <point x="204" y="598"/>
      <point x="271" y="598" type="curve" smooth="yes"/>
      <point x="326" y="598" type="line" smooth="yes"/>
      <point x="478" y="598"/>
      <point x="546" y="759"/>
      <point x="1011" y="759" type="curve" smooth="yes"/>
      <point x="1557" y="759"/>
      <point x="1732" y="656"/>
      <point x="1732" y="453" type="curve" smooth="yes"/>
      <point x="1732" y="227"/>
      <point x="1570" y="137"/>
      <point x="954" y="137" type="curve" smooth="yes"/>
      <point x="620" y="137"/>
      <point x="285" y="228"/>
      <point x="246" y="235" type="curve" smooth="yes"/>
      <point x="237" y="237"/>
      <point x="230" y="238"/>
      <point x="223" y="238" type="curve" smooth="yes"/>
      <point x="197" y="238"/>
      <point x="183" y="225"/>
      <point x="179" y="194" type="curve" smooth="yes"/>
      <point x="171" y="132"/>
      <point x="171" y="128"/>
      <point x="171" y="124" type="curve" smooth="yes"/>
      <point x="171" y="94"/>
      <point x="187" y="77"/>
      <point x="224" y="67" type="curve" smooth="yes"/>
      <point x="336" y="34"/>
      <point x="702" y="-39"/>
    </contour>
  </outline>
</glyph>
<glyph name="six" format="1">
  <advance width="1873"/>
  <unicode hex="0036"/>
  <outline>
    <contour>
      <point x="920" y="-42" type="curve" smooth="yes"/>
      <point x="1381" y="-42"/>
      <point x="1741" y="61"/>
      <point x="1741" y="426" type="curve" smooth="yes"/>
      <point x="1741" y="683"/>
      <point x="1578" y="896"/>
      <point x="969" y="896" type="curve" smooth="yes"/>
      <point x="806" y="896"/>
      <point x="611" y="881"/>
      <point x="378" y="847" type="curve"/>
      <point x="378" y="910" type="line" smooth="yes"/>
      <point x="378" y="1152"/>
      <point x="540" y="1295"/>
      <point x="969" y="1295" type="curve" smooth="yes"/>
      <point x="1143" y="1295"/>
      <point x="1416" y="1245"/>
      <point x="1502" y="1206" type="curve" smooth="yes"/>
      <point x="1507" y="1204"/>
      <point x="1512" y="1203"/>
      <point x="1518" y="1203" type="curve" smooth="yes"/>
      <point x="1532" y="1203"/>
      <point x="1547" y="1211"/>
      <point x="1553" y="1229" type="curve" smooth="yes"/>
      <point x="1584" y="1324" type="line" smooth="yes"/>
      <point x="1586" y="1329"/>
      <point x="1586" y="1334"/>
      <point x="1586" y="1339" type="curve" smooth="yes"/>
      <point x="1586" y="1357"/>
      <point x="1575" y="1370"/>
      <point x="1558" y="1377" type="curve" smooth="yes"/>
      <point x="1438" y="1425"/>
      <point x="1172" y="1472"/>
      <point x="990" y="1472" type="curve" smooth="yes"/>
      <point x="421" y="1472"/>
      <point x="140" y="1295"/>
      <point x="140" y="736" type="curve" smooth="yes"/>
      <point x="140" y="292"/>
      <point x="268" y="-42"/>
    </contour>
    <contour>
      <point x="920" y="134" type="curve" smooth="yes"/>
      <point x="533" y="134"/>
      <point x="369" y="287"/>
      <point x="369" y="555" type="curve" smooth="yes"/>
      <point x="369" y="686" type="line"/>
      <point x="614" y="720"/>
      <point x="809" y="735"/>
      <point x="962" y="735" type="curve" smooth="yes"/>
      <point x="1410" y="735"/>
      <point x="1512" y="606"/>
      <point x="1512" y="434" type="curve" smooth="yes"/>
      <point x="1512" y="190"/>
      <point x="1310" y="134"/>
    </contour>
  </outline>
</glyph>
<glyph name="seven" format="1">
  <advance width="1068"/>
  <unicode hex="0037"/>
  <outline>
    <contour>
      <point x="393" y="0" type="curve" smooth="yes"/>
      <point x="487" y="0" type="line" smooth="yes"/>
      <point x="530" y="0"/>
      <point x="541" y="26"/>
      <point x="554" y="67" type="curve" smooth="yes"/>
      <point x="962" y="1371" type="line"/>
      <point x="962" y="1414"/>
      <point x="938" y="1438"/>
      <point x="895" y="1438" type="curve" smooth="yes"/>
      <point x="154" y="1438" type="line" smooth="yes"/>
      <point x="111" y="1438"/>
      <point x="87" y="1414"/>
      <point x="87" y="1371" type="curve" smooth="yes"/>
      <point x="87" y="1336" type="line" smooth="yes"/>
      <point x="87" y="1293"/>
      <point x="111" y="1269"/>
      <point x="154" y="1269" type="curve" smooth="yes"/>
      <point x="657" y="1269" type="line" smooth="yes"/>
      <point x="677" y="1269"/>
      <point x="690" y="1255"/>
      <point x="684" y="1236" type="curve" smooth="yes"/>
      <point x="326" y="67" type="line" smooth="yes"/>
      <point x="313" y="26"/>
      <point x="350" y="0"/>
    </contour>
  </outline>
</glyph>
<glyph name="colon" format="1">
  <advance width="587"/>
  <unicode hex="003A"/>
  <outline>
    <contour>
      <point x="225" y="0" type="curve" smooth="yes"/>
      <point x="362" y="0" type="line" smooth="yes"/>
      <point x="405" y="0"/>
      <point x="439" y="34"/>
      <point x="439" y="77" type="curve" smooth="yes"/>
      <point x="439" y="221" type="line" smooth="yes"/>
      <point x="439" y="264"/>
      <point x="405" y="298"/>
      <point x="362" y="298" type="curve" smooth="yes"/>
      <point x="225" y="298" type="line" smooth="yes"/>
      <point x="182" y="298"/>
      <point x="148" y="264"/>
      <point x="148" y="221" type="curve" smooth="yes"/>
      <point x="148" y="77" type="line" smooth="yes"/>
      <point x="148" y="34"/>
      <point x="182" y="0"/>
    </contour>
    <contour>
      <point x="225" y="754" type="curve" smooth="yes"/>
      <point x="362" y="754" type="line" smooth="yes"/>
      <point x="405" y="754"/>
      <point x="439" y="788"/>
      <point x="439" y="831" type="curve" smooth="yes"/>
      <point x="439" y="975" type="line" smooth="yes"/>
      <point x="439" y="1018"/>
      <point x="405" y="1052"/>
      <point x="362" y="1052" type="curve" smooth="yes"/>
      <point x="225" y="1052" type="line" smooth="yes"/>
      <point x="182" y="1052"/>
      <point x="148" y="1018"/>
      <point x="148" y="975" type="curve" smooth="yes"/>
      <point x="148" y="831" type="line" smooth="yes"/>
      <point x="148" y="788"/>
      <point x="182" y="754"/>
    </contour>
  </outline>
</glyph>
<glyph name="less" format="1">
  <advance width="1211"/>
  <unicode hex="003C"/>
  <outline>
    <contour>
      <point x="1043" y="-23" type="curve" smooth="yes"/>
      <point x="1059" y="-23"/>
      <point x="1067" y="-10"/>
      <point x="1067" y="15" type="curve" smooth="yes"/>
      <point x="1067" y="99" type="line" smooth="yes"/>
      <point x="1067" y="142"/>
      <point x="1046" y="170"/>
      <point x="1000" y="193" type="curve" smooth="yes"/>
      <point x="296" y="538" type="line" smooth="yes"/>
      <point x="290" y="541"/>
      <point x="287" y="546"/>
      <point x="287" y="550" type="curve" smooth="yes"/>
      <point x="287" y="555"/>
      <point x="290" y="560"/>
      <point x="296" y="563" type="curve" smooth="yes"/>
      <point x="1000" y="947" type="line" smooth="yes"/>
      <point x="1043" y="971"/>
      <point x="1067" y="988"/>
      <point x="1067" y="1031" type="curve" smooth="yes"/>
      <point x="1067" y="1115" type="line" smooth="yes"/>
      <point x="1067" y="1143"/>
      <point x="1057" y="1157"/>
      <point x="1038" y="1157" type="curve" smooth="yes"/>
      <point x="1028" y="1157"/>
      <point x="1015" y="1153"/>
      <point x="1000" y="1145" type="curve" smooth="yes"/>
      <point x="188" y="708" type="line"/>
      <point x="148" y="685"/>
      <point x="122" y="651"/>
      <point x="122" y="612" type="curve" smooth="yes"/>
      <point x="122" y="502" type="line" smooth="yes"/>
      <point x="122" y="462"/>
      <point x="144" y="416"/>
      <point x="188" y="396" type="curve"/>
      <point x="1000" y="-5" type="line" smooth="yes"/>
      <point x="1020" y="-14"/>
      <point x="1032" y="-23"/>
    </contour>
  </outline>
</glyph>
<glyph name="equal" format="1">
  <advance width="933"/>
  <unicode hex="003D"/>
  <outline>
    <contour>
      <point x="194" y="312" type="curve" smooth="yes"/>
      <point x="739" y="312" type="line" smooth="yes"/>
      <point x="782" y="312"/>
      <point x="796" y="326"/>
      <point x="796" y="369" type="curve" smooth="yes"/>
      <point x="796" y="413" type="line" smooth="yes"/>
      <point x="796" y="456"/>
      <point x="782" y="470"/>
      <point x="739" y="470" type="curve" smooth="yes"/>
      <point x="194" y="470" type="line" smooth="yes"/>
      <point x="151" y="470"/>
      <point x="137" y="456"/>
      <point x="137" y="413" type="curve" smooth="yes"/>
      <point x="137" y="369" type="line" smooth="yes"/>
      <point x="137" y="326"/>
      <point x="151" y="312"/>
    </contour>
    <contour>
      <point x="194" y="617" type="curve" smooth="yes"/>
      <point x="739" y="617" type="line" smooth="yes"/>
      <point x="782" y="617"/>
      <point x="796" y="631"/>
      <point x="796" y="674" type="curve" smooth="yes"/>
      <point x="796" y="718" type="line" smooth="yes"/>
      <point x="796" y="761"/>
      <point x="782" y="775"/>
      <point x="739" y="775" type="curve" smooth="yes"/>
      <point x="194" y="775" type="line" smooth="yes"/>
      <point x="151" y="775"/>
      <point x="137" y="761"/>
      <point x="137" y="718" type="curve" smooth="yes"/>
      <point x="137" y="674" type="line" smooth="yes"/>
      <point x="137" y="631"/>
      <point x="151" y="617"/>
    </contour>
  </outline>
</glyph>
<glyph name="greater" format="1">
  <advance width="1211"/>
  <unicode hex="003E"/>
  <outline>
    <contour>
      <point x="171" y="-23" type="curve" smooth="yes"/>
      <point x="181" y="-23"/>
      <point x="194" y="-19"/>
      <point x="209" y="-11" type="curve" smooth="yes"/>
      <point x="1021" y="426" type="line"/>
      <point x="1061" y="449"/>
      <point x="1087" y="483"/>
      <point x="1087" y="522" type="curve" smooth="yes"/>
      <point x="1087" y="632" type="line" smooth="yes"/>
      <point x="1087" y="672"/>
      <point x="1065" y="718"/>
      <point x="1021" y="738" type="curve"/>
      <point x="209" y="1139" type="line" smooth="yes"/>
      <point x="189" y="1148"/>
      <point x="177" y="1157"/>
      <point x="166" y="1157" type="curve" smooth="yes"/>
      <point x="150" y="1157"/>
      <point x="142" y="1144"/>
      <point x="142" y="1119" type="curve" smooth="yes"/>
      <point x="142" y="1035" type="line" smooth="yes"/>
      <point x="142" y="992"/>
      <point x="163" y="964"/>
      <point x="209" y="941" type="curve" smooth="yes"/>
      <point x="913" y="596" type="line" smooth="yes"/>
      <point x="919" y="593"/>
      <point x="922" y="588"/>
      <point x="922" y="584" type="curve" smooth="yes"/>
      <point x="922" y="579"/>
      <point x="919" y="574"/>
      <point x="913" y="571" type="curve" smooth="yes"/>
      <point x="209" y="187" type="line" smooth="yes"/>
      <point x="166" y="163"/>
      <point x="142" y="146"/>
      <point x="142" y="103" type="curve" smooth="yes"/>
      <point x="142" y="19" type="line" smooth="yes"/>
      <point x="142" y="-9"/>
      <point x="152" y="-23"/>
    </contour>
  </outline>
</glyph>
<glyph name="question" format="1">
  <advance width="1746"/>
  <unicode hex="003F"/>
  <outline>
    <contour>
      <point x="693" y="447" type="curve" smooth="yes"/>
      <point x="717" y="430"/>
      <point x="732" y="453"/>
      <point x="732" y="453" type="curve"/>
      <point x="743" y="469"/>
      <point x="824" y="633"/>
      <point x="989" y="654" type="curve" smooth="yes"/>
      <point x="1181" y="678"/>
      <point x="1617" y="685"/>
      <point x="1617" y="1031" type="curve" smooth="yes"/>
      <point x="1617" y="1382"/>
      <point x="1293" y="1475"/>
      <point x="810" y="1475" type="curve" smooth="yes"/>
      <point x="549" y="1475"/>
      <point x="263" y="1408"/>
      <point x="149" y="1367" type="curve" smooth="yes"/>
      <point x="110" y="1353"/>
      <point x="88" y="1323"/>
      <point x="102" y="1291" type="curve" smooth="yes"/>
      <point x="126" y="1236" type="line"/>
      <point x="141" y="1198"/>
      <point x="162" y="1186"/>
      <point x="208" y="1200" type="curve" smooth="yes"/>
      <point x="405" y="1262"/>
      <point x="598" y="1307"/>
      <point x="879" y="1307" type="curve" smooth="yes"/>
      <point x="1271" y="1307"/>
      <point x="1429" y="1210"/>
      <point x="1429" y="1047" type="curve" smooth="yes"/>
      <point x="1429" y="896"/>
      <point x="1361" y="824"/>
      <point x="1039" y="797" type="curve" smooth="yes"/>
      <point x="834" y="780"/>
      <point x="723" y="717"/>
      <point x="621" y="529" type="curve"/>
      <point x="621" y="529"/>
      <point x="607" y="508"/>
      <point x="628" y="492" type="curve" smooth="yes"/>
      <point x="644" y="480"/>
      <point x="673" y="461"/>
    </contour>
    <contour>
      <point x="624" y="0" type="curve" smooth="yes"/>
      <point x="794" y="0" type="line" smooth="yes"/>
      <point x="837" y="0"/>
      <point x="851" y="14"/>
      <point x="851" y="57" type="curve" smooth="yes"/>
      <point x="851" y="184" type="line" smooth="yes"/>
      <point x="851" y="227"/>
      <point x="837" y="241"/>
      <point x="794" y="241" type="curve" smooth="yes"/>
      <point x="624" y="241" type="line" smooth="yes"/>
      <point x="581" y="241"/>
      <point x="567" y="227"/>
      <point x="567" y="184" type="curve" smooth="yes"/>
      <point x="567" y="57" type="line" smooth="yes"/>
      <point x="567" y="14"/>
      <point x="581" y="0"/>
    </contour>
  </outline>
</glyph>
<glyph name="B" format="1">
  <advance width="2273"/>
  <unicode hex="0042"/>
  <outline>
    <contour>
      <point x="237" y="0" type="curve" smooth="yes"/>
      <point x="1404" y="0" type="line" smooth="yes"/>
      <point x="1903" y="0"/>
      <point x="2137" y="96"/>
      <point x="2137" y="424" type="curve" smooth="yes"/>
      <point x="2137" y="590"/>
      <point x="2027" y="694"/>
      <point x="1873" y="757" type="curve" smooth="yes"/>
      <point x="1858" y="763"/>
      <point x="1857" y="780"/>
      <point x="1870" y="788" type="curve" smooth="yes"/>
      <point x="1972" y="848"/>
      <point x="2039" y="929"/>
      <point x="2039" y="1040" type="curve" smooth="yes"/>
      <point x="2039" y="1339"/>
      <point x="1877" y="1438"/>
      <point x="1449" y="1438" type="curve" smooth="yes"/>
      <point x="237" y="1438" type="line" smooth="yes"/>
      <point x="194" y="1438"/>
      <point x="160" y="1402"/>
      <point x="160" y="1359" type="curve" smooth="yes"/>
      <point x="160" y="77" type="line" smooth="yes"/>
      <point x="160" y="34"/>
      <point x="194" y="0"/>
    </contour>
    <contour>
      <point x="425" y="160" type="line" smooth="yes"/>
      <point x="405" y="160"/>
      <point x="388" y="160"/>
      <point x="388" y="195" type="curve" smooth="yes"/>
      <point x="388" y="625" type="line" smooth="yes"/>
      <point x="388" y="659"/>
      <point x="405" y="664"/>
      <point x="425" y="664" type="curve" smooth="yes"/>
      <point x="1526" y="664" type="line" smooth="yes"/>
      <point x="1737" y="664"/>
      <point x="1903" y="623"/>
      <point x="1903" y="417" type="curve" smooth="yes"/>
      <point x="1903" y="187"/>
      <point x="1659" y="160"/>
      <point x="1472" y="160" type="curve" smooth="yes"/>
    </contour>
    <contour>
      <point x="425" y="834" type="line" smooth="yes"/>
      <point x="405" y="834"/>
      <point x="388" y="863"/>
      <point x="388" y="897" type="curve" smooth="yes"/>
      <point x="388" y="1236" type="line" smooth="yes"/>
      <point x="388" y="1270"/>
      <point x="405" y="1278"/>
      <point x="425" y="1278" type="curve" smooth="yes"/>
      <point x="1463" y="1278" type="line" smooth="yes"/>
      <point x="1629" y="1278"/>
      <point x="1824" y="1273"/>
      <point x="1824" y="1043" type="curve" smooth="yes"/>
      <point x="1824" y="873"/>
      <point x="1705" y="841"/>
      <point x="1543" y="834" type="curve"/>
    </contour>
  </outline>
</glyph>
<glyph name="D" format="1">
  <advance width="2214"/>
  <unicode hex="0044"/>
  <outline>
    <contour>
      <point x="415" y="160" type="line"/>
      <point x="388" y="182" type="line"/>
      <point x="388" y="1260" type="line"/>
      <point x="409" y="1278" type="line"/>
      <point x="1141" y="1278" type="line" smooth="yes"/>
      <point x="1544" y="1278"/>
      <point x="1851" y="1139"/>
      <point x="1851" y="721" type="curve" smooth="yes"/>
      <point x="1851" y="231"/>
      <point x="1531" y="160"/>
      <point x="1141" y="160" type="curve" smooth="yes"/>
    </contour>
    <contour>
      <point x="227" y="0" type="curve" smooth="yes"/>
      <point x="1139" y="0" type="line" smooth="yes"/>
      <point x="1600" y="0"/>
      <point x="2080" y="102"/>
      <point x="2080" y="721" type="curve" smooth="yes"/>
      <point x="2080" y="1293"/>
      <point x="1600" y="1438"/>
      <point x="1139" y="1438" type="curve" smooth="yes"/>
      <point x="227" y="1438" type="line" smooth="yes"/>
      <point x="184" y="1438"/>
      <point x="160" y="1414"/>
      <point x="160" y="1371" type="curve" smooth="yes"/>
      <point x="160" y="67" type="line" smooth="yes"/>
      <point x="160" y="24"/>
      <point x="184" y="0"/>
    </contour>
    <contour>
      <point x="1107" y="1438" type="move" name="top"/>
    </contour>
    <contour>
      <point x="1107" y="719" type="move" name="center"/>
    </contour>
  </outline>
</glyph>
<glyph name="F" format="1">
  <advance width="1645"/>
  <unicode hex="0046"/>
  <outline>
    <contour>
      <point x="227" y="0" type="curve" smooth="yes"/>
      <point x="321" y="0" type="line" smooth="yes"/>
      <point x="364" y="0"/>
      <point x="388" y="24"/>
      <point x="388" y="67" type="curve" smooth="yes"/>
      <point x="388" y="577" type="line"/>
      <point x="403" y="594" type="line"/>
      <point x="1339" y="594" type="line" smooth="yes"/>
      <point x="1382" y="594"/>
      <point x="1406" y="628"/>
      <point x="1406" y="671" type="curve" smooth="yes"/>
      <point x="1406" y="698" type="line" smooth="yes"/>
      <point x="1406" y="741"/>
      <point x="1382" y="775"/>
      <point x="1339" y="775" type="curve" smooth="yes"/>
      <point x="398" y="775" type="line"/>
      <point x="388" y="783" type="line"/>
      <point x="388" y="1253" type="line" smooth="yes"/>
      <point x="388" y="1273"/>
      <point x="390" y="1278"/>
      <point x="410" y="1278" type="curve" smooth="yes"/>
      <point x="1469" y="1278" type="line" smooth="yes"/>
      <point x="1512" y="1278"/>
      <point x="1536" y="1312"/>
      <point x="1536" y="1355" type="curve" smooth="yes"/>
      <point x="1536" y="1361" type="line" smooth="yes"/>
      <point x="1536" y="1404"/>
      <point x="1512" y="1438"/>
      <point x="1469" y="1438" type="curve" smooth="yes"/>
      <point x="227" y="1438" type="line" smooth="yes"/>
      <point x="184" y="1438"/>
      <point x="160" y="1404"/>
      <point x="160" y="1361" type="curve" smooth="yes"/>
      <point x="160" y="67" type="line" smooth="yes"/>
      <point x="160" y="24"/>
      <point x="184" y="0"/>
    </contour>
  </outline>
</glyph>
<glyph name="L" format="1">
  <advance width="1358"/>
  <unicode hex="004C"/>
  <outline>
    <contour>
      <point x="227" y="0" type="curve" smooth="yes"/>
      <point x="1181" y="0" type="line" smooth="yes"/>
      <point x="1224" y="0"/>
      <point x="1248" y="24"/>
      <point x="1248" y="67" type="curve" smooth="yes"/>
      <point x="1248" y="94" type="line" smooth="yes"/>
      <point x="1248" y="137"/>
      <point x="1224" y="160"/>
      <point x="1181" y="160" type="curve" smooth="yes"/>
      <point x="425" y="160" type="line" smooth="yes"/>
      <point x="405" y="160"/>
      <point x="388" y="177"/>
      <point x="388" y="197" type="curve" smooth="yes"/>
      <point x="388" y="1371" type="line" smooth="yes"/>
      <point x="388" y="1414"/>
      <point x="364" y="1438"/>
      <point x="321" y="1438" type="curve" smooth="yes"/>
      <point x="227" y="1438" type="line" smooth="yes"/>
      <point x="184" y="1438"/>
      <point x="160" y="1414"/>
      <point x="160" y="1371" type="curve" smooth="yes"/>
      <point x="160" y="67" type="line" smooth="yes"/>
      <point x="160" y="24"/>
      <point x="184" y="0"/>
    </contour>
    <contour>
      <point x="679" y="1438" type="move" name="top"/>
    </contour>
    <contour>
      <point x="679" y="0" type="move" name="bottom"/>
    </contour>
  </outline>
</glyph>
<glyph name="M" format="1">
  <advance width="2427"/>
  <unicode hex="004D"/>
  <outline>
    <contour>
      <point x="208" y="0" type="curve" smooth="yes"/>
      <point x="302" y="0" type="line" smooth="yes"/>
      <point x="345" y="0"/>
      <point x="370" y="24"/>
      <point x="373" y="67" type="curve"/>
      <point x="466" y="1061" type="line"/>
      <point x="477" y="1065" type="line"/>
      <point x="1050" y="67" type="line" smooth="yes"/>
      <point x="1074" y="26"/>
      <point x="1109" y="2"/>
      <point x="1150" y="0" type="curve"/>
      <point x="1256" y="0" type="line"/>
      <point x="1297" y="2"/>
      <point x="1333" y="26"/>
      <point x="1357" y="67" type="curve" smooth="yes"/>
      <point x="1954" y="1078" type="line"/>
      <point x="1967" y="1077" type="line"/>
      <point x="2053" y="67" type="line" smooth="yes"/>
      <point x="2056" y="24"/>
      <point x="2082" y="0"/>
      <point x="2125" y="0" type="curve" smooth="yes"/>
      <point x="2219" y="0" type="line" smooth="yes"/>
      <point x="2262" y="0"/>
      <point x="2284" y="24"/>
      <point x="2281" y="67" type="curve" smooth="yes"/>
      <point x="2173" y="1371" type="line" smooth="yes"/>
      <point x="2170" y="1412"/>
      <point x="2147" y="1435"/>
      <point x="2108" y="1438" type="curve"/>
      <point x="2000" y="1438" type="line"/>
      <point x="1960" y="1435"/>
      <point x="1924" y="1412"/>
      <point x="1900" y="1371" type="curve" smooth="yes"/>
      <point x="1216" y="213" type="line"/>
      <point x="1195" y="213" type="line"/>
      <point x="531" y="1371" type="line" smooth="yes"/>
      <point x="507" y="1412"/>
      <point x="472" y="1435"/>
      <point x="432" y="1438" type="curve"/>
      <point x="324" y="1438" type="line"/>
      <point x="285" y="1435"/>
      <point x="263" y="1412"/>
      <point x="260" y="1371" type="curve" smooth="yes"/>
      <point x="145" y="67" type="line" smooth="yes"/>
      <point x="142" y="24"/>
      <point x="165" y="0"/>
    </contour>
  </outline>
</glyph>
<glyph name="O" format="1">
  <advance width="2188"/>
  <unicode hex="004F"/>
  <outline>
    <contour>
      <point x="1094" y="127" type="curve" smooth="yes"/>
      <point x="707" y="127"/>
      <point x="363" y="234"/>
      <point x="363" y="724" type="curve" smooth="yes"/>
      <point x="363" y="1142"/>
      <point x="694" y="1307"/>
      <point x="1094" y="1307" type="curve" smooth="yes"/>
      <point x="1497" y="1307"/>
      <point x="1825" y="1142"/>
      <point x="1825" y="724" type="curve" smooth="yes"/>
      <point x="1825" y="234"/>
      <point x="1484" y="127"/>
    </contour>
    <contour>
      <point x="1094" y="-41" type="curve" smooth="yes"/>
      <point x="1555" y="-41"/>
      <point x="2054" y="105"/>
      <point x="2054" y="724" type="curve" smooth="yes"/>
      <point x="2054" y="1296"/>
      <point x="1555" y="1475"/>
      <point x="1094" y="1475" type="curve" smooth="yes"/>
      <point x="636" y="1475"/>
      <point x="134" y="1296"/>
      <point x="134" y="724" type="curve" smooth="yes"/>
      <point x="134" y="105"/>
      <point x="636" y="-41"/>
    </contour>
    <contour>
      <point x="1094" y="1438" type="move" name="top"/>
    </contour>
  </outline>
</glyph>
<glyph name="R" format="1">
  <advance width="2137"/>
  <unicode hex="0052"/>
  <outline>
    <contour>
      <point x="227" y="0" type="curve" smooth="yes"/>
      <point x="321" y="0" type="line" smooth="yes"/>
      <point x="364" y="0"/>
      <point x="388" y="24"/>
      <point x="388" y="67" type="curve" smooth="yes"/>
      <point x="388" y="522" type="line"/>
      <point x="404" y="538" type="line"/>
      <point x="1207" y="538" type="line" smooth="yes"/>
      <point x="1299" y="538"/>
      <point x="1526" y="536"/>
      <point x="1621" y="333" type="curve" smooth="yes"/>
      <point x="1745" y="67" type="line"/>
      <point x="1767" y="28"/>
      <point x="1775" y="0"/>
      <point x="1818" y="0" type="curve" smooth="yes"/>
      <point x="1923" y="0" type="line" smooth="yes"/>
      <point x="1966" y="0"/>
      <point x="2006" y="27"/>
      <point x="1984" y="67" type="curve"/>
      <point x="1860" y="347" type="line" smooth="yes"/>
      <point x="1784" y="517"/>
      <point x="1665" y="559"/>
      <point x="1607" y="578" type="curve" smooth="yes"/>
      <point x="1603" y="580"/>
      <point x="1602" y="582"/>
      <point x="1602" y="583" type="curve" smooth="yes"/>
      <point x="1602" y="585"/>
      <point x="1605" y="585"/>
      <point x="1608" y="586" type="curve" smooth="yes"/>
      <point x="1822" y="632"/>
      <point x="1952" y="725"/>
      <point x="1952" y="1014" type="curve" smooth="yes"/>
      <point x="1952" y="1439"/>
      <point x="1545" y="1438"/>
      <point x="1019" y="1438" type="curve" smooth="yes"/>
      <point x="227" y="1438" type="line" smooth="yes"/>
      <point x="184" y="1438"/>
      <point x="160" y="1414"/>
      <point x="160" y="1371" type="curve" smooth="yes"/>
      <point x="160" y="67" type="line" smooth="yes"/>
      <point x="160" y="24"/>
      <point x="184" y="0"/>
    </contour>
    <contour>
      <point x="404" y="708" type="line"/>
      <point x="388" y="721" type="line"/>
      <point x="388" y="1264" type="line"/>
      <point x="405" y="1278" type="line"/>
      <point x="1019" y="1278" type="line" smooth="yes"/>
      <point x="1467" y="1278"/>
      <point x="1728" y="1251"/>
      <point x="1728" y="1003" type="curve" smooth="yes"/>
      <point x="1728" y="697"/>
      <point x="1566" y="708"/>
      <point x="1069" y="708" type="curve" smooth="yes"/>
    </contour>
    <contour>
      <point x="1069" y="1438" type="move" name="top"/>
    </contour>
    <contour>
      <point x="1069" y="0" type="move" name="bottom"/>
    </contour>
  </outline>
</glyph>
<glyph name="S" format="1">
  <advance width="1976"/>
  <unicode hex="0053"/>
  <outline>
    <contour>
      <point x="970" y="-41" type="curve" smooth="yes"/>
      <point x="1565" y="-41"/>
      <point x="1841" y="59"/>
      <point x="1841" y="437" type="curve" smooth="yes"/>
      <point x="1841" y="719"/>
      <point x="1632" y="838"/>
      <point x="1047" y="838" type="curve" smooth="yes"/>
      <point x="412" y="838"/>
      <point x="368" y="915"/>
      <point x="368" y="1066" type="curve" smooth="yes"/>
      <point x="368" y="1199"/>
      <point x="486" y="1307"/>
      <point x="990" y="1307" type="curve" smooth="yes"/>
      <point x="1452" y="1307"/>
      <point x="1583" y="1186"/>
      <point x="1647" y="1186" type="curve" smooth="yes"/>
      <point x="1712" y="1186"/>
      <point x="1721" y="1245"/>
      <point x="1721" y="1245" type="curve"/>
      <point x="1726" y="1254"/>
      <point x="1728" y="1265"/>
      <point x="1728" y="1275" type="curve" smooth="yes"/>
      <point x="1728" y="1303"/>
      <point x="1712" y="1330"/>
      <point x="1688" y="1341" type="curve" smooth="yes"/>
      <point x="1487" y="1429"/>
      <point x="1313" y="1475"/>
      <point x="992" y="1475" type="curve" smooth="yes"/>
      <point x="509" y="1475"/>
      <point x="145" y="1409"/>
      <point x="145" y="1043" type="curve" smooth="yes"/>
      <point x="145" y="717"/>
      <point x="423" y="652"/>
      <point x="1006" y="652" type="curve" smooth="yes"/>
      <point x="1565" y="652"/>
      <point x="1623" y="566"/>
      <point x="1623" y="409" type="curve" smooth="yes"/>
      <point x="1623" y="231"/>
      <point x="1531" y="127"/>
      <point x="993" y="127" type="curve" smooth="yes"/>
      <point x="448" y="127"/>
      <point x="295" y="262"/>
      <point x="226" y="262" type="curve" smooth="yes"/>
      <point x="195" y="262"/>
      <point x="173" y="249"/>
      <point x="158" y="217" type="curve"/>
      <point x="158" y="217"/>
      <point x="145" y="173"/>
      <point x="145" y="164" type="curve" smooth="yes"/>
      <point x="145" y="135"/>
      <point x="161" y="107"/>
      <point x="186" y="97" type="curve" smooth="yes"/>
      <point x="465" y="-9"/>
      <point x="662" y="-41"/>
    </contour>
    <contour>
      <point x="988" y="1438" type="move" name="top"/>
    </contour>
    <contour>
      <point x="988" y="0" type="move" name="bottom"/>
    </contour>
  </outline>
</glyph>
<glyph name="U" format="1">
  <advance width="2224"/>
  <unicode hex="0055"/>
  <outline>
    <contour>
      <point x="1113" y="-41" type="curve" smooth="yes"/>
      <point x="1574" y="-41"/>
      <point x="2073" y="32"/>
      <point x="2073" y="651" type="curve" smooth="yes"/>
      <point x="2073" y="1371" type="line" smooth="yes"/>
      <point x="2073" y="1414"/>
      <point x="2049" y="1438"/>
      <point x="2006" y="1438" type="curve" smooth="yes"/>
      <point x="1912" y="1438" type="line" smooth="yes"/>
      <point x="1869" y="1438"/>
      <point x="1845" y="1414"/>
      <point x="1845" y="1371" type="curve" smooth="yes"/>
      <point x="1845" y="651" type="line" smooth="yes"/>
      <point x="1845" y="161"/>
      <point x="1503" y="127"/>
      <point x="1113" y="127" type="curve" smooth="yes"/>
      <point x="726" y="127"/>
      <point x="382" y="161"/>
      <point x="382" y="651" type="curve" smooth="yes"/>
      <point x="382" y="1371" type="line" smooth="yes"/>
      <point x="382" y="1414"/>
      <point x="378" y="1438"/>
      <point x="315" y="1438" type="curve" smooth="yes"/>
      <point x="221" y="1438" type="line" smooth="yes"/>
      <point x="198" y="1438"/>
      <point x="153" y="1414"/>
      <point x="153" y="1371" type="curve" smooth="yes"/>
      <point x="153" y="651" type="line" smooth="yes"/>
      <point x="153" y="32"/>
      <point x="655" y="-41"/>
    </contour>
    <contour>
      <point x="1112" y="1438" type="move" name="top"/>
    </contour>
    <contour>
      <point x="2002" y="10" type="move" name="ogonek"/>
    </contour>
  </outline>
</glyph>
<glyph name="X" format="1">
  <advance width="1974"/>
  <unicode hex="0058"/>
  <outline>
    <contour>
      <point x="145" y="0" type="curve" smooth="yes"/>
      <point x="279" y="0" type="line" smooth="yes"/>
      <point x="322" y="0"/>
      <point x="367" y="24"/>
      <point x="406" y="67" type="curve"/>
      <point x="998" y="617" type="line"/>
      <point x="1548" y="67" type="line" smooth="yes"/>
      <point x="1591" y="24"/>
      <point x="1638" y="0"/>
      <point x="1681" y="0" type="curve" smooth="yes"/>
      <point x="1825" y="0" type="line" smooth="yes"/>
      <point x="1847" y="0"/>
      <point x="1858" y="6"/>
      <point x="1858" y="18" type="curve" smooth="yes"/>
      <point x="1858" y="29"/>
      <point x="1847" y="46"/>
      <point x="1826" y="67" type="curve" smooth="yes"/>
      <point x="1142" y="750" type="line"/>
      <point x="1810" y="1371" type="line"/>
      <point x="1828" y="1391"/>
      <point x="1837" y="1407"/>
      <point x="1837" y="1418" type="curve" smooth="yes"/>
      <point x="1837" y="1431"/>
      <point x="1826" y="1438"/>
      <point x="1803" y="1438" type="curve" smooth="yes"/>
      <point x="1659" y="1438" type="line" smooth="yes"/>
      <point x="1616" y="1438"/>
      <point x="1571" y="1414"/>
      <point x="1532" y="1371" type="curve"/>
      <point x="1010" y="882" type="line"/>
      <point x="520" y="1371" type="line" smooth="yes"/>
      <point x="477" y="1414"/>
      <point x="430" y="1438"/>
      <point x="387" y="1438" type="curve" smooth="yes"/>
      <point x="243" y="1438" type="line" smooth="yes"/>
      <point x="221" y="1438"/>
      <point x="210" y="1432"/>
      <point x="210" y="1420" type="curve" smooth="yes"/>
      <point x="210" y="1409"/>
      <point x="221" y="1392"/>
      <point x="242" y="1371" type="curve" smooth="yes"/>
      <point x="866" y="748" type="line"/>
      <point x="138" y="67" type="line"/>
      <point x="120" y="47"/>
      <point x="111" y="31"/>
      <point x="111" y="20" type="curve" smooth="yes"/>
      <point x="111" y="7"/>
      <point x="122" y="0"/>
    </contour>
  </outline>
</glyph>
<glyph name="bracketright" format="1">
  <advance width="1002"/>
  <unicode hex="005D"/>
  <outline>
    <contour>
      <point x="193" y="-65" type="curve" smooth="yes"/>
      <point x="765" y="-65" type="line" smooth="yes"/>
      <point x="808" y="-65"/>
      <point x="842" y="-31"/>
      <point x="842" y="12" type="curve" smooth="yes"/>
      <point x="842" y="1440" type="line" smooth="yes"/>
      <point x="842" y="1483"/>
      <point x="808" y="1517"/>
      <point x="765" y="1517" type="curve" smooth="yes"/>
      <point x="193" y="1517" type="line" smooth="yes"/>
      <point x="150" y="1517"/>
      <point x="126" y="1503"/>
      <point x="126" y="1460" type="curve" smooth="yes"/>
      <point x="126" y="1411" type="line" smooth="yes"/>
      <point x="126" y="1368"/>
      <point x="150" y="1354"/>
      <point x="193" y="1354" type="curve" smooth="yes"/>
      <point x="587" y="1354" type="line" smooth="yes"/>
      <point x="607" y="1354"/>
      <point x="614" y="1347"/>
      <point x="614" y="1327" type="curve" smooth="yes"/>
      <point x="614" y="135" type="line" smooth="yes"/>
      <point x="614" y="115"/>
      <point x="607" y="108"/>
      <point x="587" y="108" type="curve" smooth="yes"/>
      <point x="193" y="108" type="line" smooth="yes"/>
      <point x="150" y="108"/>
      <point x="126" y="94"/>
      <point x="126" y="51" type="curve" smooth="yes"/>
      <point x="126" y="-8" type="line" smooth="yes"/>
      <point x="126" y="-51"/>
      <point x="150" y="-65"/>
    </contour>
  </outline>
</glyph>
<glyph name="grave" format="1">
  <advance width="1745"/>
  <unicode hex="0060"/>
  <outline>
    <contour>
      <point x="868.145" y="1174" type="curve" smooth="yes"/>
      <point x="898.145" y="1174" type="line"/>
      <point x="910.145" y="1173"/>
      <point x="920.145" y="1175"/>
      <point x="913.145" y="1212" type="curve" smooth="yes"/>
      <point x="859.145" y="1540" type="line"/>
      <point x="856.145" y="1551"/>
      <point x="852.145" y="1567"/>
      <point x="843.145" y="1578" type="curve"/>
      <point x="828.145" y="1593"/>
      <point x="809.145" y="1596"/>
      <point x="787.145" y="1596" type="curve" smooth="yes"/>
      <point x="620.145" y="1596" type="line" smooth="yes"/>
      <point x="575.145" y="1596"/>
      <point x="574.145" y="1583"/>
      <point x="601.145" y="1542" type="curve" smooth="yes"/>
      <point x="813.145" y="1218" type="line" smooth="yes"/>
      <point x="822.145" y="1204"/>
      <point x="839.145" y="1174"/>
    </contour>
    <contour>
      <point x="749.289" y="1006" type="move" name="_top"/>
    </contour>
  </outline>
</glyph>
<glyph name="a" format="1">
  <advance width="1688"/>
  <unicode hex="0061"/>
  <outline>
    <contour>
      <point x="719" y="-41" type="curve" smooth="yes"/>
      <point x="1082" y="-41"/>
      <point x="1284" y="83"/>
      <point x="1357" y="240" type="curve" smooth="yes"/>
      <point x="1360" y="247"/>
      <point x="1365" y="272"/>
      <point x="1370" y="272" type="curve" smooth="yes"/>
      <point x="1376" y="272"/>
      <point x="1377" y="255"/>
      <point x="1381" y="234" type="curve"/>
      <point x="1386" y="216"/>
      <point x="1391" y="168"/>
      <point x="1398" y="120" type="curve" smooth="yes"/>
      <point x="1410" y="42"/>
      <point x="1425" y="0"/>
      <point x="1465" y="0" type="curve" smooth="yes"/>
      <point x="1493" y="0" type="line" smooth="yes"/>
      <point x="1528" y="0"/>
      <point x="1544" y="31"/>
      <point x="1544" y="93" type="curve" smooth="yes"/>
      <point x="1544" y="571" type="line" smooth="yes"/>
      <point x="1544" y="900"/>
      <point x="1389" y="1052"/>
      <point x="880" y="1052" type="curve" smooth="yes"/>
      <point x="473" y="1052"/>
      <point x="281" y="987"/>
      <point x="189" y="846" type="curve" smooth="yes"/>
      <point x="182" y="835"/>
      <point x="178" y="820"/>
      <point x="178" y="802" type="curve" smooth="yes"/>
      <point x="178" y="785"/>
      <point x="193" y="767"/>
      <point x="210" y="765" type="curve" smooth="yes"/>
      <point x="306" y="748" type="line" smooth="yes"/>
      <point x="315" y="747"/>
      <point x="318" y="746"/>
      <point x="324" y="746" type="curve" smooth="yes"/>
      <point x="345" y="746"/>
      <point x="379" y="778"/>
      <point x="400" y="800" type="curve" smooth="yes"/>
      <point x="491" y="893"/>
      <point x="798" y="900"/>
      <point x="882" y="900" type="curve" smooth="yes"/>
      <point x="1237" y="900"/>
      <point x="1315" y="811"/>
      <point x="1315" y="656" type="curve" smooth="yes"/>
      <point x="1315" y="641" type="line" smooth="yes"/>
      <point x="1315" y="606"/>
      <point x="132" y="672"/>
      <point x="139" y="238" type="curve" smooth="yes"/>
      <point x="142" y="62"/>
      <point x="327" y="-41"/>
    </contour>
    <contour>
      <point x="732" y="103" type="curve" smooth="yes"/>
      <point x="462" y="103"/>
      <point x="378" y="156"/>
      <point x="376" y="251" type="curve" smooth="yes"/>
      <point x="373" y="383"/>
      <point x="528" y="450"/>
      <point x="1120" y="490" type="curve" smooth="yes"/>
      <point x="1125" y="491"/>
      <point x="1304" y="501"/>
      <point x="1307" y="501" type="curve" smooth="yes"/>
      <point x="1318" y="501"/>
      <point x="1318" y="497"/>
      <point x="1318" y="483" type="curve" smooth="yes"/>
      <point x="1318" y="208"/>
      <point x="1040" y="103"/>
    </contour>
    <contour>
      <point x="844" y="1006" type="move" name="top"/>
    </contour>
    <contour>
      <point x="1519" y="10" type="move" name="ogonek"/>
    </contour>
  </outline>
</glyph>
<glyph name="b" format="1">
  <advance width="1681"/>
  <unicode hex="0062"/>
  <outline>
    <contour>
      <point x="892" y="-41" type="curve" smooth="yes"/>
      <point x="1186" y="-41"/>
      <point x="1552" y="107"/>
      <point x="1552" y="504" type="curve" smooth="yes"/>
      <point x="1552" y="912"/>
      <point x="1198" y="1053"/>
      <point x="874" y="1053" type="curve" smooth="yes"/>
      <point x="675" y="1053"/>
      <point x="504" y="989"/>
      <point x="396" y="857" type="curve"/>
      <point x="394" y="857"/>
      <point x="392" y="853"/>
      <point x="390" y="853" type="curve" smooth="yes"/>
      <point x="389" y="853"/>
      <point x="388" y="854"/>
      <point x="388" y="861" type="curve" smooth="yes"/>
      <point x="388" y="1371" type="line" smooth="yes"/>
      <point x="388" y="1414"/>
      <point x="364" y="1438"/>
      <point x="321" y="1438" type="curve" smooth="yes"/>
      <point x="227" y="1438" type="line" smooth="yes"/>
      <point x="184" y="1438"/>
      <point x="160" y="1414"/>
      <point x="160" y="1371" type="curve" smooth="yes"/>
      <point x="160" y="67" type="line" smooth="yes"/>
      <point x="160" y="24"/>
      <point x="170" y="0"/>
      <point x="213" y="0" type="curve" smooth="yes"/>
      <point x="227" y="0" type="line" smooth="yes"/>
      <point x="268" y="0"/>
      <point x="296" y="53"/>
      <point x="324" y="144" type="curve" smooth="yes"/>
      <point x="330" y="164"/>
      <point x="337" y="184"/>
      <point x="342" y="201" type="curve" smooth="yes"/>
      <point x="344" y="210"/>
      <point x="347" y="212"/>
      <point x="350" y="212" type="curve" smooth="yes"/>
      <point x="353" y="212"/>
      <point x="355" y="209"/>
      <point x="357" y="207" type="curve" smooth="yes"/>
      <point x="474" y="43"/>
      <point x="692" y="-41"/>
    </contour>
    <contour>
      <point x="857" y="119" type="curve" smooth="yes"/>
      <point x="600" y="119"/>
      <point x="388" y="247"/>
      <point x="388" y="504" type="curve" smooth="yes"/>
      <point x="388" y="784"/>
      <point x="616" y="893"/>
      <point x="857" y="893" type="curve" smooth="yes"/>
      <point x="1095" y="893"/>
      <point x="1323" y="788"/>
      <point x="1323" y="504" type="curve" smooth="yes"/>
      <point x="1323" y="243"/>
      <point x="1111" y="119"/>
    </contour>
  </outline>
</glyph>
<glyph name="c" format="1">
  <advance width="1545"/>
  <unicode hex="0063"/>
  <outline>
    <contour>
      <point x="876" y="-41" type="curve" smooth="yes"/>
      <point x="1017" y="-41"/>
      <point x="1212" y="-3"/>
      <point x="1339" y="63" type="curve" smooth="yes"/>
      <point x="1383" y="86"/>
      <point x="1380" y="104"/>
      <point x="1372" y="131" type="curve" smooth="yes"/>
      <point x="1364" y="159"/>
      <point x="1350" y="187"/>
      <point x="1347" y="194" type="curve" smooth="yes"/>
      <point x="1340" y="214"/>
      <point x="1318" y="223"/>
      <point x="1277" y="204" type="curve" smooth="yes"/>
      <point x="1210" y="173"/>
      <point x="1058" y="110"/>
      <point x="888" y="110" type="curve" smooth="yes"/>
      <point x="609" y="110"/>
      <point x="355" y="246"/>
      <point x="356" y="504" type="curve"/>
      <point x="355" y="786"/>
      <point x="633" y="900"/>
      <point x="875" y="900" type="curve" smooth="yes"/>
      <point x="1076" y="900"/>
      <point x="1216" y="847"/>
      <point x="1298" y="803" type="curve" smooth="yes"/>
      <point x="1323" y="790"/>
      <point x="1355" y="768"/>
      <point x="1373" y="811" type="curve" smooth="yes"/>
      <point x="1399" y="871" type="line" smooth="yes"/>
      <point x="1408" y="893"/>
      <point x="1404" y="913"/>
      <point x="1373" y="932" type="curve" smooth="yes"/>
      <point x="1236" y="1015"/>
      <point x="1037" y="1053"/>
      <point x="876" y="1053" type="curve" smooth="yes"/>
      <point x="547" y="1053"/>
      <point x="127" y="912"/>
      <point x="127" y="504" type="curve" smooth="yes"/>
      <point x="127" y="106"/>
      <point x="549" y="-41"/>
    </contour>
    <contour>
      <point x="773" y="1006" type="move" name="top"/>
    </contour>
    <contour>
      <point x="773" y="0" type="move" name="bottom"/>
    </contour>
  </outline>
</glyph>
<glyph name="f" format="1">
  <advance width="1229"/>
  <unicode hex="0066"/>
  <outline>
    <contour>
      <point x="438" y="0" type="curve" smooth="yes"/>
      <point x="512" y="0" type="line" smooth="yes"/>
      <point x="555" y="0"/>
      <point x="589" y="34"/>
      <point x="589" y="77" type="curve" smooth="yes"/>
      <point x="589" y="821" type="line" smooth="yes"/>
      <point x="589" y="841"/>
      <point x="592" y="858"/>
      <point x="612" y="858" type="curve" smooth="yes"/>
      <point x="1006" y="858" type="line" smooth="yes"/>
      <point x="1049" y="858"/>
      <point x="1073" y="867"/>
      <point x="1073" y="910" type="curve" smooth="yes"/>
      <point x="1073" y="951" type="line" smooth="yes"/>
      <point x="1073" y="994"/>
      <point x="1049" y="1006"/>
      <point x="1006" y="1006" type="curve" smooth="yes"/>
      <point x="601" y="1006" type="line" smooth="yes"/>
      <point x="591" y="1006"/>
      <point x="589" y="1014"/>
      <point x="589" y="1017" type="curve" smooth="yes"/>
      <point x="589" y="1060" type="line" smooth="yes"/>
      <point x="589" y="1199"/>
      <point x="628" y="1323"/>
      <point x="849" y="1323" type="curve" smooth="yes"/>
      <point x="915" y="1323"/>
      <point x="1051" y="1290"/>
      <point x="1056" y="1290" type="curve" smooth="yes"/>
      <point x="1090" y="1290"/>
      <point x="1097" y="1297"/>
      <point x="1097" y="1334" type="curve" smooth="yes"/>
      <point x="1097" y="1388" type="line" smooth="yes"/>
      <point x="1097" y="1416"/>
      <point x="1075" y="1431"/>
      <point x="1047" y="1438" type="curve"/>
      <point x="1029" y="1441"/>
      <point x="907" y="1475"/>
      <point x="793" y="1475" type="curve" smooth="yes"/>
      <point x="578" y="1475"/>
      <point x="362" y="1381"/>
      <point x="362" y="1041" type="curve" smooth="yes"/>
      <point x="362" y="1019"/>
      <point x="361" y="1006"/>
      <point x="339" y="1006" type="curve" smooth="yes"/>
      <point x="189" y="1006" type="line" smooth="yes"/>
      <point x="146" y="1006"/>
      <point x="122" y="988"/>
      <point x="122" y="945" type="curve" smooth="yes"/>
      <point x="122" y="910" type="line" smooth="yes"/>
      <point x="122" y="867"/>
      <point x="146" y="858"/>
      <point x="189" y="858" type="curve" smooth="yes"/>
      <point x="341" y="858" type="line" smooth="yes"/>
      <point x="361" y="858"/>
      <point x="361" y="841"/>
      <point x="361" y="821" type="curve" smooth="yes"/>
      <point x="361" y="77" type="line" smooth="yes"/>
      <point x="361" y="34"/>
      <point x="395" y="0"/>
    </contour>
  </outline>
</glyph>
<glyph name="g" format="1">
  <advance width="1554"/>
  <unicode hex="0067"/>
  <outline>
    <contour>
      <point x="776" y="-521" type="curve" smooth="yes"/>
      <point x="1254" y="-521"/>
      <point x="1469" y="-412"/>
      <point x="1469" y="-180" type="curve" smooth="yes"/>
      <point x="1469" y="15"/>
      <point x="1337" y="163"/>
      <point x="922" y="163" type="curve" smooth="yes"/>
      <point x="516" y="163" type="line" smooth="yes"/>
      <point x="358" y="163"/>
      <point x="355" y="206"/>
      <point x="355" y="245" type="curve" smooth="yes"/>
      <point x="355" y="275"/>
      <point x="387" y="315"/>
      <point x="423" y="343" type="curve" smooth="yes"/>
      <point x="448" y="362"/>
      <point x="486" y="384"/>
      <point x="502" y="381" type="curve" smooth="yes"/>
      <point x="578" y="364"/>
      <point x="680" y="354"/>
      <point x="795" y="354" type="curve" smooth="yes"/>
      <point x="1257" y="354"/>
      <point x="1360" y="512"/>
      <point x="1360" y="705" type="curve" smooth="yes"/>
      <point x="1360" y="823"/>
      <point x="1255" y="947"/>
      <point x="1070" y="999" type="curve" smooth="yes"/>
      <point x="1054" y="1004"/>
      <point x="1047" y="1025"/>
      <point x="1057" y="1040" type="curve" smooth="yes"/>
      <point x="1291" y="1358" type="line"/>
      <point x="1307" y="1383"/>
      <point x="1289" y="1417"/>
      <point x="1258" y="1417" type="curve" smooth="yes"/>
      <point x="1153" y="1417" type="line" smooth="yes"/>
      <point x="1113" y="1417"/>
      <point x="1078" y="1388"/>
      <point x="1071" y="1349" type="curve"/>
      <point x="951" y="1067" type="line"/>
      <point x="947" y="1050"/>
      <point x="929" y="1037"/>
      <point x="911" y="1039" type="curve" smooth="yes"/>
      <point x="868" y="1044"/>
      <point x="812" y="1052"/>
      <point x="758" y="1052" type="curve" smooth="yes"/>
      <point x="283" y="1052"/>
      <point x="140" y="889"/>
      <point x="140" y="705" type="curve" smooth="yes"/>
      <point x="140" y="614"/>
      <point x="186" y="525"/>
      <point x="329" y="449" type="curve" smooth="yes"/>
      <point x="335" y="446"/>
      <point x="345" y="446"/>
      <point x="345" y="439" type="curve" smooth="yes"/>
      <point x="345" y="431"/>
      <point x="334" y="426"/>
      <point x="326" y="421" type="curve" smooth="yes"/>
      <point x="248" y="372"/>
      <point x="165" y="277"/>
      <point x="165" y="182" type="curve" smooth="yes"/>
      <point x="165" y="94"/>
      <point x="235" y="75"/>
      <point x="368" y="45" type="curve" smooth="yes"/>
      <point x="375" y="43"/>
      <point x="387" y="39"/>
      <point x="387" y="33" type="curve" smooth="yes"/>
      <point x="387" y="28"/>
      <point x="376" y="19"/>
      <point x="370" y="16" type="curve" smooth="yes"/>
      <point x="252" y="-57"/>
      <point x="159" y="-142"/>
      <point x="159" y="-286" type="curve" smooth="yes"/>
      <point x="159" y="-423"/>
      <point x="335" y="-521"/>
    </contour>
    <contour>
      <point x="788" y="-361" type="curve" smooth="yes"/>
      <point x="419" y="-361"/>
      <point x="366" y="-285"/>
      <point x="366" y="-214" type="curve" smooth="yes"/>
      <point x="366" y="-108"/>
      <point x="510" y="11"/>
      <point x="602" y="11" type="curve" smooth="yes"/>
      <point x="906" y="11" type="line" smooth="yes"/>
      <point x="1128" y="11"/>
      <point x="1282" y="-39"/>
      <point x="1282" y="-142" type="curve" smooth="yes"/>
      <point x="1282" y="-275"/>
      <point x="1204" y="-361"/>
    </contour>
    <contour>
      <point x="758" y="502" type="curve" smooth="yes"/>
      <point x="410" y="502"/>
      <point x="357" y="613"/>
      <point x="357" y="709" type="curve" smooth="yes"/>
      <point x="357" y="792"/>
      <point x="405" y="900"/>
      <point x="752" y="900" type="curve" smooth="yes"/>
      <point x="1113" y="900"/>
      <point x="1151" y="797"/>
      <point x="1151" y="698" type="curve" smooth="yes"/>
      <point x="1151" y="608"/>
      <point x="1128" y="502"/>
    </contour>
    <contour>
      <point x="794" y="1006" type="move" name="top"/>
    </contour>
  </outline>
</glyph>
<glyph name="l" format="1">
  <advance width="548"/>
  <unicode hex="006C"/>
  <outline>
    <contour>
      <point x="227" y="0" type="curve" smooth="yes"/>
      <point x="321" y="0" type="line" smooth="yes"/>
      <point x="364" y="0"/>
      <point x="388" y="24"/>
      <point x="388" y="67" type="curve" smooth="yes"/>
      <point x="388" y="1371" type="line" smooth="yes"/>
      <point x="388" y="1414"/>
      <point x="364" y="1438"/>
      <point x="321" y="1438" type="curve" smooth="yes"/>
      <point x="227" y="1438" type="line" smooth="yes"/>
      <point x="184" y="1438"/>
      <point x="160" y="1414"/>
      <point x="160" y="1371" type="curve" smooth="yes"/>
      <point x="160" y="67" type="line" smooth="yes"/>
      <point x="160" y="24"/>
      <point x="184" y="0"/>
    </contour>
    <contour>
      <point x="274" y="1006" type="move" name="top"/>
    </contour>
    <contour>
      <point x="274" y="0" type="move" name="bottom"/>
    </contour>
    <contour>
      <point x="528" y="1006" type="move" name="topright"/>
    </contour>
  </outline>
</glyph>
<glyph name="n" format="1">
  <advance width="1543"/>
  <unicode hex="006E"/>
  <outline>
    <contour>
      <point x="219" y="0" type="curve" smooth="yes"/>
      <point x="314" y="0" type="line" smooth="yes"/>
      <point x="357" y="0"/>
      <point x="380" y="24"/>
      <point x="380" y="67" type="curve" smooth="yes"/>
      <point x="380" y="606" type="line" smooth="yes"/>
      <point x="380" y="739"/>
      <point x="637" y="901"/>
      <point x="834" y="901" type="curve" smooth="yes"/>
      <point x="1020" y="901"/>
      <point x="1172" y="831"/>
      <point x="1172" y="606" type="curve" smooth="yes"/>
      <point x="1172" y="67" type="line" smooth="yes"/>
      <point x="1172" y="24"/>
      <point x="1196" y="0"/>
      <point x="1239" y="0" type="curve" smooth="yes"/>
      <point x="1333" y="0" type="line" smooth="yes"/>
      <point x="1376" y="0"/>
      <point x="1400" y="24"/>
      <point x="1400" y="67" type="curve" smooth="yes"/>
      <point x="1400" y="552" type="line" smooth="yes"/>
      <point x="1400" y="888"/>
      <point x="1189" y="1052"/>
      <point x="877" y="1052" type="curve" smooth="yes"/>
      <point x="687" y="1052"/>
      <point x="501" y="987"/>
      <point x="371" y="826" type="curve" smooth="yes"/>
      <point x="365" y="819"/>
      <point x="359" y="811"/>
      <point x="351" y="811" type="curve" smooth="yes"/>
      <point x="343" y="811"/>
      <point x="341" y="816"/>
      <point x="336" y="824" type="curve"/>
      <point x="309" y="942" type="line" smooth="yes"/>
      <point x="298" y="992"/>
      <point x="276" y="1006"/>
      <point x="229" y="1006" type="curve" smooth="yes"/>
      <point x="209" y="1006" type="line" smooth="yes"/>
      <point x="166" y="1006"/>
      <point x="152" y="972"/>
      <point x="152" y="929" type="curve" smooth="yes"/>
      <point x="152" y="67" type="line" smooth="yes"/>
      <point x="152" y="24"/>
      <point x="176" y="0"/>
    </contour>
    <contour>
      <point x="772" y="1006" type="move" name="top"/>
    </contour>
    <contour>
      <point x="772" y="0" type="move" name="bottom"/>
    </contour>
  </outline>
</glyph>
<glyph name="q" format="1">
  <advance width="1674"/>
  <unicode hex="0071"/>
  <outline>
    <contour>
      <point x="1361" y="-427" type="curve" smooth="yes"/>
      <point x="1455" y="-427" type="line" smooth="yes"/>
      <point x="1498" y="-427"/>
      <point x="1522" y="-403"/>
      <point x="1522" y="-360" type="curve" smooth="yes"/>
      <point x="1522" y="944" type="line" smooth="yes"/>
      <point x="1522" y="987"/>
      <point x="1512" y="1011"/>
      <point x="1469" y="1011" type="curve" smooth="yes"/>
      <point x="1455" y="1011" type="line" smooth="yes"/>
      <point x="1426" y="1011"/>
      <point x="1402" y="992"/>
      <point x="1382" y="927" type="curve" smooth="yes"/>
      <point x="1370" y="888"/>
      <point x="1352" y="843"/>
      <point x="1339" y="808" type="curve" smooth="yes"/>
      <point x="1337" y="802"/>
      <point x="1334" y="800"/>
      <point x="1332" y="800" type="curve" smooth="yes"/>
      <point x="1329" y="800"/>
      <point x="1327" y="802"/>
      <point x="1325" y="805" type="curve" smooth="yes"/>
      <point x="1208" y="968"/>
      <point x="990" y="1052"/>
      <point x="790" y="1052" type="curve" smooth="yes"/>
      <point x="496" y="1052"/>
      <point x="130" y="904"/>
      <point x="130" y="507" type="curve" smooth="yes"/>
      <point x="130" y="99"/>
      <point x="484" y="-42"/>
      <point x="808" y="-42" type="curve" smooth="yes"/>
      <point x="1004" y="-42"/>
      <point x="1172" y="22"/>
      <point x="1282" y="148" type="curve" smooth="yes"/>
      <point x="1283" y="149"/>
      <point x="1287" y="154"/>
      <point x="1290" y="154" type="curve" smooth="yes"/>
      <point x="1292" y="154"/>
      <point x="1294" y="152"/>
      <point x="1294" y="145" type="curve" smooth="yes"/>
      <point x="1294" y="-360" type="line" smooth="yes"/>
      <point x="1294" y="-403"/>
      <point x="1318" y="-427"/>
    </contour>
    <contour>
      <point x="825" y="110" type="curve" smooth="yes"/>
      <point x="587" y="110"/>
      <point x="359" y="223"/>
      <point x="359" y="507" type="curve" smooth="yes"/>
      <point x="359" y="768"/>
      <point x="571" y="900"/>
      <point x="825" y="900" type="curve" smooth="yes"/>
      <point x="1083" y="900"/>
      <point x="1295" y="765"/>
      <point x="1294" y="507" type="curve"/>
      <point x="1295" y="225"/>
      <point x="1067" y="110"/>
    </contour>
  </outline>
</glyph>
<glyph name="r" format="1">
  <advance width="1021"/>
  <unicode hex="0072"/>
  <outline>
    <contour>
      <point x="219" y="0" type="curve" smooth="yes"/>
      <point x="314" y="0" type="line" smooth="yes"/>
      <point x="357" y="0"/>
      <point x="380" y="24"/>
      <point x="380" y="67" type="curve" smooth="yes"/>
      <point x="380" y="606" type="line" smooth="yes"/>
      <point x="380" y="739"/>
      <point x="559" y="863"/>
      <point x="756" y="863" type="curve" smooth="yes"/>
      <point x="842" y="863" type="line" smooth="yes"/>
      <point x="885" y="863"/>
      <point x="909" y="883"/>
      <point x="909" y="926" type="curve" smooth="yes"/>
      <point x="909" y="985" type="line" smooth="yes"/>
      <point x="909" y="1028"/>
      <point x="885" y="1052"/>
      <point x="842" y="1052" type="curve" smooth="yes"/>
      <point x="795" y="1052" type="line" smooth="yes"/>
      <point x="608" y="1052"/>
      <point x="445" y="936"/>
      <point x="371" y="833" type="curve" smooth="yes"/>
      <point x="366" y="826"/>
      <point x="359" y="811"/>
      <point x="351" y="811" type="curve" smooth="yes"/>
      <point x="343" y="811"/>
      <point x="338" y="823"/>
      <point x="336" y="832" type="curve" smooth="yes"/>
      <point x="309" y="942" type="line" smooth="yes"/>
      <point x="297" y="992"/>
      <point x="276" y="1006"/>
      <point x="229" y="1006" type="curve" smooth="yes"/>
      <point x="209" y="1006" type="line" smooth="yes"/>
      <point x="166" y="1006"/>
      <point x="152" y="972"/>
      <point x="152" y="929" type="curve" smooth="yes"/>
      <point x="152" y="67" type="line" smooth="yes"/>
      <point x="152" y="24"/>
      <point x="176" y="0"/>
    </contour>
    <contour>
      <point x="517" y="1006" type="move" name="top"/>
    </contour>
    <contour>
      <point x="517" y="0" type="move" name="bottom"/>
    </contour>
  </outline>
</glyph>
<glyph name="u" format="1">
  <advance width="1544"/>
  <unicode hex="0075"/>
  <outline>
    <contour>
      <point x="665" y="-47" type="curve" smooth="yes"/>
      <point x="855" y="-47"/>
      <point x="1044" y="19"/>
      <point x="1174" y="180" type="curve" smooth="yes"/>
      <point x="1180" y="187"/>
      <point x="1186" y="195"/>
      <point x="1194" y="195" type="curve" smooth="yes"/>
      <point x="1202" y="195"/>
      <point x="1204" y="190"/>
      <point x="1209" y="182" type="curve"/>
      <point x="1236" y="64" type="line" smooth="yes"/>
      <point x="1247" y="14"/>
      <point x="1269" y="0"/>
      <point x="1316" y="0" type="curve" smooth="yes"/>
      <point x="1336" y="0" type="line" smooth="yes"/>
      <point x="1379" y="0"/>
      <point x="1393" y="34"/>
      <point x="1393" y="77" type="curve" smooth="yes"/>
      <point x="1393" y="939" type="line" smooth="yes"/>
      <point x="1393" y="982"/>
      <point x="1369" y="1006"/>
      <point x="1326" y="1006" type="curve" smooth="yes"/>
      <point x="1231" y="1006" type="line" smooth="yes"/>
      <point x="1188" y="1006"/>
      <point x="1165" y="982"/>
      <point x="1165" y="939" type="curve" smooth="yes"/>
      <point x="1165" y="400" type="line" smooth="yes"/>
      <point x="1165" y="267"/>
      <point x="905" y="111"/>
      <point x="708" y="111" type="curve" smooth="yes"/>
      <point x="522" y="111"/>
      <point x="373" y="175"/>
      <point x="373" y="400" type="curve" smooth="yes"/>
      <point x="373" y="939" type="line" smooth="yes"/>
      <point x="373" y="982"/>
      <point x="349" y="1006"/>
      <point x="306" y="1006" type="curve" smooth="yes"/>
      <point x="212" y="1006" type="line" smooth="yes"/>
      <point x="169" y="1006"/>
      <point x="145" y="982"/>
      <point x="145" y="939" type="curve" smooth="yes"/>
      <point x="145" y="454" type="line" smooth="yes"/>
      <point x="145" y="118"/>
      <point x="353" y="-47"/>
    </contour>
    <contour>
      <point x="772" y="1006" type="move" name="top"/>
    </contour>
    <contour>
      <point x="1390" y="10" type="move" name="ogonek"/>
    </contour>
  </outline>
</glyph>
<glyph name="bar" format="1">
  <advance width="529"/>
  <unicode hex="007C"/>
  <outline>
    <contour>
      <point x="238" y="-150" type="curve" smooth="yes"/>
      <point x="291" y="-150" type="line" smooth="yes"/>
      <point x="334" y="-150"/>
      <point x="368" y="-136"/>
      <point x="368" y="-93" type="curve" smooth="yes"/>
      <point x="368" y="1498" type="line" smooth="yes"/>
      <point x="368" y="1541"/>
      <point x="334" y="1555"/>
      <point x="291" y="1555" type="curve" smooth="yes"/>
      <point x="238" y="1555" type="line" smooth="yes"/>
      <point x="195" y="1555"/>
      <point x="161" y="1541"/>
      <point x="161" y="1498" type="curve" smooth="yes"/>
      <point x="161" y="-93" type="line" smooth="yes"/>
      <point x="161" y="-136"/>
      <point x="195" y="-150"/>
    </contour>
  </outline>
</glyph>
<glyph name="braceright" format="1">
  <advance width="934"/>
  <unicode hex="007D"/>
  <outline>
    <contour>
      <point x="198" y="-119" type="curve" smooth="yes"/>
      <point x="248" y="-119" type="line" smooth="yes"/>
      <point x="476" y="-119"/>
      <point x="522" y="-6"/>
      <point x="522" y="218" type="curve" smooth="yes"/>
      <point x="522" y="544"/>
      <point x="560" y="607"/>
      <point x="655" y="607" type="curve" smooth="yes"/>
      <point x="717" y="607" type="line" smooth="yes"/>
      <point x="786" y="607"/>
      <point x="809" y="622"/>
      <point x="809" y="712" type="curve" smooth="yes"/>
      <point x="809" y="802"/>
      <point x="786" y="817"/>
      <point x="717" y="817" type="curve" smooth="yes"/>
      <point x="655" y="817" type="line" smooth="yes"/>
      <point x="560" y="817"/>
      <point x="522" y="880"/>
      <point x="522" y="1206" type="curve" smooth="yes"/>
      <point x="522" y="1430"/>
      <point x="476" y="1543"/>
      <point x="248" y="1543" type="curve" smooth="yes"/>
      <point x="198" y="1543" type="line" smooth="yes"/>
      <point x="156" y="1543"/>
      <point x="121" y="1528"/>
      <point x="121" y="1486" type="curve" smooth="yes"/>
      <point x="121" y="1436" type="line" smooth="yes"/>
      <point x="121" y="1384"/>
      <point x="145" y="1372"/>
      <point x="197" y="1372" type="curve" smooth="yes"/>
      <point x="310" y="1372"/>
      <point x="347" y="1351"/>
      <point x="347" y="1175" type="curve" smooth="yes"/>
      <point x="347" y="1167" type="line" smooth="yes"/>
      <point x="347" y="1005"/>
      <point x="348" y="753"/>
      <point x="474" y="725" type="curve" smooth="yes"/>
      <point x="481" y="723"/>
      <point x="484" y="718"/>
      <point x="484" y="712" type="curve" smooth="yes"/>
      <point x="484" y="706"/>
      <point x="481" y="701"/>
      <point x="474" y="699" type="curve" smooth="yes"/>
      <point x="348" y="671"/>
      <point x="347" y="419"/>
      <point x="347" y="257" type="curve" smooth="yes"/>
      <point x="347" y="249" type="line" smooth="yes"/>
      <point x="347" y="73"/>
      <point x="310" y="52"/>
      <point x="197" y="52" type="curve" smooth="yes"/>
      <point x="145" y="52"/>
      <point x="121" y="40"/>
      <point x="121" y="-12" type="curve" smooth="yes"/>
      <point x="121" y="-62" type="line" smooth="yes"/>
      <point x="121" y="-104"/>
      <point x="156" y="-119"/>
    </contour>
  </outline>
</glyph>
<glyph name="asciitilde" format="1">
  <advance width="1399"/>
  <unicode hex="007E"/>
  <outline>
    <contour>
      <point x="431" y="746" type="curve" smooth="yes"/>
      <point x="623" y="746"/>
      <point x="813" y="918"/>
      <point x="966" y="918" type="curve" smooth="yes"/>
      <point x="1030" y="918"/>
      <point x="1080" y="873"/>
      <point x="1125" y="799" type="curve" smooth="yes"/>
      <point x="1134" y="784"/>
      <point x="1146" y="771"/>
      <point x="1166" y="771" type="curve" smooth="yes"/>
      <point x="1176" y="771"/>
      <point x="1190" y="775"/>
      <point x="1206" y="784" type="curve"/>
      <point x="1206" y="784"/>
      <point x="1236" y="805"/>
      <point x="1246" y="813" type="curve" smooth="yes"/>
      <point x="1262" y="825"/>
      <point x="1272" y="838"/>
      <point x="1272" y="854" type="curve" smooth="yes"/>
      <point x="1272" y="862"/>
      <point x="1270" y="871"/>
      <point x="1265" y="881" type="curve" smooth="yes"/>
      <point x="1209" y="997"/>
      <point x="1102" y="1101"/>
      <point x="940" y="1101" type="curve" smooth="yes"/>
      <point x="765" y="1101"/>
      <point x="567" y="934"/>
      <point x="435" y="934" type="curve" smooth="yes"/>
      <point x="372" y="934"/>
      <point x="326" y="979"/>
      <point x="284" y="1063" type="curve" smooth="yes"/>
      <point x="280" y="1071"/>
      <point x="268" y="1090"/>
      <point x="244" y="1090" type="curve" smooth="yes"/>
      <point x="237" y="1090"/>
      <point x="228" y="1088"/>
      <point x="218" y="1083" type="curve" smooth="yes"/>
      <point x="147" y="1048" type="line" smooth="yes"/>
      <point x="124" y="1037"/>
      <point x="118" y="1024"/>
      <point x="118" y="1011" type="curve" smooth="yes"/>
      <point x="118" y="1003"/>
      <point x="120" y="995"/>
      <point x="123" y="986" type="curve" smooth="yes"/>
      <point x="162" y="878"/>
      <point x="239" y="746"/>
    </contour>
  </outline>
</glyph>
<glyph name="cent" format="1">
  <advance width="1546"/>
  <unicode hex="00A2"/>
  <outline>
    <contour>
      <point x="838" y="-204" type="curve" smooth="yes"/>
      <point x="864" y="-204" type="line" smooth="yes"/>
      <point x="907" y="-204"/>
      <point x="931" y="-190"/>
      <point x="931" y="-147" type="curve" smooth="yes"/>
      <point x="931" y="-39" type="line"/>
      <point x="1063" y="-30"/>
      <point x="1220" y="9"/>
      <point x="1330" y="62" type="curve" smooth="yes"/>
      <point x="1374" y="83"/>
      <point x="1379" y="108"/>
      <point x="1371" y="135" type="curve" smooth="yes"/>
      <point x="1363" y="163"/>
      <point x="1356" y="187"/>
      <point x="1353" y="194" type="curve" smooth="yes"/>
      <point x="1346" y="214"/>
      <point x="1318" y="223"/>
      <point x="1277" y="204" type="curve" smooth="yes"/>
      <point x="1216" y="176"/>
      <point x="1084" y="120"/>
      <point x="931" y="111" type="curve"/>
      <point x="931" y="899" type="line"/>
      <point x="1103" y="890"/>
      <point x="1225" y="842"/>
      <point x="1299" y="802" type="curve" smooth="yes"/>
      <point x="1324" y="789"/>
      <point x="1356" y="767"/>
      <point x="1374" y="810" type="curve" smooth="yes"/>
      <point x="1400" y="871" type="line" smooth="yes"/>
      <point x="1409" y="893"/>
      <point x="1405" y="913"/>
      <point x="1374" y="932" type="curve" smooth="yes"/>
      <point x="1252" y="1006"/>
      <point x="1081" y="1044"/>
      <point x="931" y="1052" type="curve"/>
      <point x="931" y="1214" type="line" smooth="yes"/>
      <point x="931" y="1257"/>
      <point x="907" y="1271"/>
      <point x="864" y="1271" type="curve" smooth="yes"/>
      <point x="838" y="1271" type="line" smooth="yes"/>
      <point x="795" y="1271"/>
      <point x="771" y="1259"/>
      <point x="771" y="1216" type="curve" smooth="yes"/>
      <point x="771" y="1048" type="line"/>
      <point x="464" y="1020"/>
      <point x="128" y="869"/>
      <point x="128" y="504" type="curve" smooth="yes"/>
      <point x="128" y="148"/>
      <point x="466" y="-7"/>
      <point x="771" y="-36" type="curve"/>
      <point x="771" y="-145" type="line" smooth="yes"/>
      <point x="771" y="-188"/>
      <point x="795" y="-204"/>
    </contour>
    <contour>
      <point x="771" y="118" type="line"/>
      <point x="542" y="152"/>
      <point x="356" y="283"/>
      <point x="357" y="504" type="curve"/>
      <point x="356" y="746"/>
      <point x="560" y="864"/>
      <point x="771" y="893" type="curve"/>
    </contour>
  </outline>
</glyph>
<glyph name="sterling" format="1">
  <advance width="1727"/>
  <unicode hex="00A3"/>
  <outline>
    <contour>
      <point x="203" y="0" type="curve" smooth="yes"/>
      <point x="1530" y="0" type="line" smooth="yes"/>
      <point x="1562" y="0"/>
      <point x="1587" y="5"/>
      <point x="1587" y="40" type="curve" smooth="yes"/>
      <point x="1587" y="108" type="line" smooth="yes"/>
      <point x="1587" y="150"/>
      <point x="1562" y="161"/>
      <point x="1530" y="161" type="curve" smooth="yes"/>
      <point x="673" y="161" type="line" smooth="yes"/>
      <point x="601" y="161"/>
      <point x="598" y="170"/>
      <point x="598" y="231" type="curve" smooth="yes"/>
      <point x="598" y="690" type="line"/>
      <point x="1017" y="690" type="line" smooth="yes"/>
      <point x="1060" y="690"/>
      <point x="1074" y="708"/>
      <point x="1074" y="751" type="curve" smooth="yes"/>
      <point x="1074" y="782" type="line" smooth="yes"/>
      <point x="1074" y="825"/>
      <point x="1060" y="843"/>
      <point x="1017" y="843" type="curve" smooth="yes"/>
      <point x="600" y="843" type="line"/>
      <point x="600" y="906" type="line" smooth="yes"/>
      <point x="600" y="1185"/>
      <point x="705" y="1307"/>
      <point x="1013" y="1307" type="curve" smooth="yes"/>
      <point x="1195" y="1307"/>
      <point x="1472" y="1233"/>
      <point x="1511" y="1226" type="curve" smooth="yes"/>
      <point x="1520" y="1224"/>
      <point x="1527" y="1223"/>
      <point x="1534" y="1223" type="curve" smooth="yes"/>
      <point x="1560" y="1223"/>
      <point x="1568" y="1237"/>
      <point x="1578" y="1267" type="curve" smooth="yes"/>
      <point x="1596" y="1323" type="line" smooth="yes"/>
      <point x="1597" y="1328"/>
      <point x="1597" y="1332"/>
      <point x="1597" y="1336" type="curve" smooth="yes"/>
      <point x="1597" y="1366"/>
      <point x="1581" y="1383"/>
      <point x="1544" y="1393" type="curve" smooth="yes"/>
      <point x="1431" y="1426"/>
      <point x="1241" y="1475"/>
      <point x="1002" y="1475" type="curve" smooth="yes"/>
      <point x="534" y="1475"/>
      <point x="370" y="1220"/>
      <point x="370" y="843" type="curve"/>
      <point x="203" y="843" type="line" smooth="yes"/>
      <point x="160" y="843"/>
      <point x="146" y="825"/>
      <point x="146" y="782" type="curve" smooth="yes"/>
      <point x="146" y="751" type="line" smooth="yes"/>
      <point x="146" y="708"/>
      <point x="160" y="690"/>
      <point x="203" y="690" type="curve" smooth="yes"/>
      <point x="338" y="690" type="line" smooth="yes"/>
      <point x="363" y="690"/>
      <point x="370" y="674"/>
      <point x="370" y="647" type="curve" smooth="yes"/>
      <point x="370" y="214" type="line" smooth="yes"/>
      <point x="370" y="171"/>
      <point x="367" y="161"/>
      <point x="338" y="161" type="curve" smooth="yes"/>
      <point x="203" y="161" type="line" smooth="yes"/>
      <point x="160" y="161"/>
      <point x="146" y="137"/>
      <point x="146" y="94" type="curve" smooth="yes"/>
      <point x="146" y="61" type="line" smooth="yes"/>
      <point x="146" y="18"/>
      <point x="160" y="0"/>
    </contour>
  </outline>
</glyph>
<glyph name="section" format="1">
  <advance width="1582"/>
  <unicode hex="00A7"/>
  <outline>
    <contour>
      <point x="806" y="-40" type="curve" smooth="yes"/>
      <point x="1305" y="-40"/>
      <point x="1434" y="96"/>
      <point x="1434" y="308" type="curve" smooth="yes"/>
      <point x="1434" y="409"/>
      <point x="1401" y="474"/>
      <point x="1338" y="518" type="curve"/>
      <point x="1386" y="574"/>
      <point x="1434" y="650"/>
      <point x="1434" y="730" type="curve" smooth="yes"/>
      <point x="1434" y="993"/>
      <point x="1209" y="1015"/>
      <point x="816" y="1042" type="curve" smooth="yes"/>
      <point x="387" y="1071"/>
      <point x="363" y="1081"/>
      <point x="363" y="1177" type="curve" smooth="yes"/>
      <point x="363" y="1281"/>
      <point x="510" y="1319"/>
      <point x="828" y="1319" type="curve" smooth="yes"/>
      <point x="1022" y="1319"/>
      <point x="1112" y="1290"/>
      <point x="1213" y="1259" type="curve" smooth="yes"/>
      <point x="1252" y="1247"/>
      <point x="1299" y="1250"/>
      <point x="1315" y="1285" type="curve" smooth="yes"/>
      <point x="1328" y="1313" type="line" smooth="yes"/>
      <point x="1343" y="1344"/>
      <point x="1326" y="1380"/>
      <point x="1292" y="1393" type="curve" smooth="yes"/>
      <point x="1147" y="1447"/>
      <point x="1002" y="1476"/>
      <point x="777" y="1476" type="curve" smooth="yes"/>
      <point x="545" y="1476"/>
      <point x="156" y="1457"/>
      <point x="156" y="1157" type="curve" smooth="yes"/>
      <point x="156" y="1059"/>
      <point x="202" y="995"/>
      <point x="283" y="953" type="curve"/>
      <point x="210" y="898"/>
      <point x="156" y="820"/>
      <point x="156" y="735" type="curve" smooth="yes"/>
      <point x="156" y="506"/>
      <point x="407" y="463"/>
      <point x="774" y="449" type="curve" smooth="yes"/>
      <point x="1202" y="433"/>
      <point x="1242" y="393"/>
      <point x="1242" y="297" type="curve" smooth="yes"/>
      <point x="1242" y="183"/>
      <point x="1160" y="117"/>
      <point x="825" y="117" type="curve" smooth="yes"/>
      <point x="595" y="117"/>
      <point x="442" y="143"/>
      <point x="267" y="210" type="curve" smooth="yes"/>
      <point x="227" y="225"/>
      <point x="190" y="208"/>
      <point x="171" y="167" type="curve"/>
      <point x="163" y="151" type="line"/>
      <point x="148" y="117"/>
      <point x="167" y="73"/>
      <point x="200" y="60" type="curve" smooth="yes"/>
      <point x="387" y="-17"/>
      <point x="616" y="-40"/>
    </contour>
    <contour>
      <point x="1198" y="576" type="curve"/>
      <point x="1099" y="600"/>
      <point x="970" y="609"/>
      <point x="816" y="620" type="curve" smooth="yes"/>
      <point x="387" y="649"/>
      <point x="363" y="676"/>
      <point x="363" y="755" type="curve" smooth="yes"/>
      <point x="363" y="792"/>
      <point x="376" y="856"/>
      <point x="413" y="908" type="curve"/>
      <point x="512" y="886"/>
      <point x="635" y="876"/>
      <point x="774" y="871" type="curve" smooth="yes"/>
      <point x="1202" y="855"/>
      <point x="1242" y="815"/>
      <point x="1242" y="719" type="curve" smooth="yes"/>
      <point x="1242" y="693"/>
      <point x="1198" y="576"/>
    </contour>
  </outline>
</glyph>
<glyph name="dieresis" format="1">
  <advance width="709"/>
  <unicode hex="00A8"/>
  <outline>
    <contour>
      <point x="291" y="0" type="curve" smooth="yes"/>
      <point x="418" y="0" type="line" smooth="yes"/>
      <point x="461" y="0"/>
      <point x="495" y="34"/>
      <point x="495" y="77" type="curve" smooth="yes"/>
      <point x="495" y="173" type="line" smooth="yes"/>
      <point x="495" y="216"/>
      <point x="461" y="250"/>
      <point x="418" y="250" type="curve" smooth="yes"/>
      <point x="291" y="250" type="line" smooth="yes"/>
      <point x="248" y="250"/>
      <point x="214" y="216"/>
      <point x="214" y="173" type="curve" smooth="yes"/>
      <point x="214" y="77" type="line" smooth="yes"/>
      <point x="214" y="34"/>
      <point x="248" y="0"/>
    </contour>
    <contour>
      <point x="892" y="0" type="curve" smooth="yes"/>
      <point x="1019" y="0" type="line" smooth="yes"/>
      <point x="1062" y="0"/>
      <point x="1096" y="34"/>
      <point x="1096" y="77" type="curve" smooth="yes"/>
      <point x="1096" y="173" type="line" smooth="yes"/>
      <point x="1096" y="216"/>
      <point x="1062" y="250"/>
      <point x="1019" y="250" type="curve" smooth="yes"/>
      <point x="892" y="250" type="line" smooth="yes"/>
      <point x="849" y="250"/>
      <point x="815" y="216"/>
      <point x="815" y="173" type="curve" smooth="yes"/>
      <point x="815" y="77" type="line" smooth="yes"/>
      <point x="815" y="34"/>
      <point x="849" y="0"/>
    </contour>
    <contour>
      <point x="655" y="1006" type="move" name="_top"/>
    </contour>
  </outline>
</glyph>
<glyph name="guillemotleft" format="1">
  <advance width="1347"/>
  <unicode hex="00AB"/>
  <outline>
    <contour>
      <point x="652" y="245" type="curve" smooth="yes"/>
      <point x="673" y="245"/>
      <point x="693" y="262"/>
      <point x="693" y="286" type="curve" smooth="yes"/>
      <point x="693" y="376" type="line" smooth="yes"/>
      <point x="693" y="418"/>
      <point x="666" y="436"/>
      <point x="631" y="457" type="curve"/>
      <point x="312" y="690" type="line" smooth="yes"/>
      <point x="306" y="694"/>
      <point x="303" y="699"/>
      <point x="303" y="704" type="curve" smooth="yes"/>
      <point x="303" y="709"/>
      <point x="306" y="714"/>
      <point x="312" y="718" type="curve" smooth="yes"/>
      <point x="631" y="949" type="line"/>
      <point x="665" y="971"/>
      <point x="693" y="988"/>
      <point x="693" y="1029" type="curve" smooth="yes"/>
      <point x="693" y="1104" type="line" smooth="yes"/>
      <point x="693" y="1128"/>
      <point x="673" y="1145"/>
      <point x="651" y="1145" type="curve" smooth="yes"/>
      <point x="644" y="1145"/>
      <point x="638" y="1143"/>
      <point x="632" y="1141" type="curve"/>
      <point x="184" y="816" type="line" smooth="yes"/>
      <point x="150" y="791"/>
      <point x="123" y="774"/>
      <point x="123" y="732" type="curve" smooth="yes"/>
      <point x="123" y="673" type="line" smooth="yes"/>
      <point x="123" y="631"/>
      <point x="150" y="614"/>
      <point x="183" y="589" type="curve" smooth="yes"/>
      <point x="632" y="250" type="line"/>
      <point x="639" y="248"/>
      <point x="646" y="245"/>
    </contour>
    <contour>
      <point x="1163" y="245" type="curve" smooth="yes"/>
      <point x="1183" y="245"/>
      <point x="1203" y="262"/>
      <point x="1203" y="286" type="curve" smooth="yes"/>
      <point x="1203" y="376" type="line" smooth="yes"/>
      <point x="1203" y="418"/>
      <point x="1176" y="436"/>
      <point x="1141" y="457" type="curve"/>
      <point x="823" y="690" type="line" smooth="yes"/>
      <point x="817" y="694"/>
      <point x="814" y="699"/>
      <point x="814" y="704" type="curve" smooth="yes"/>
      <point x="814" y="709"/>
      <point x="817" y="714"/>
      <point x="823" y="718" type="curve" smooth="yes"/>
      <point x="1141" y="949" type="line"/>
      <point x="1175" y="971"/>
      <point x="1203" y="988"/>
      <point x="1203" y="1029" type="curve" smooth="yes"/>
      <point x="1203" y="1104" type="line" smooth="yes"/>
      <point x="1203" y="1128"/>
      <point x="1183" y="1145"/>
      <point x="1162" y="1145" type="curve" smooth="yes"/>
      <point x="1155" y="1145"/>
      <point x="1149" y="1143"/>
      <point x="1142" y="1141" type="curve"/>
      <point x="695" y="816" type="line" smooth="yes"/>
      <point x="661" y="791"/>
      <point x="634" y="774"/>
      <point x="634" y="732" type="curve" smooth="yes"/>
      <point x="634" y="673" type="line" smooth="yes"/>
      <point x="634" y="631"/>
      <point x="661" y="614"/>
      <point x="694" y="589" type="curve" smooth="yes"/>
      <point x="1143" y="250" type="line"/>
      <point x="1150" y="248"/>
      <point x="1156" y="245"/>
    </contour>
  </outline>
</glyph>
<glyph name="degree" format="1">
  <advance width="1324"/>
  <unicode hex="00B0"/>
  <outline>
    <contour>
      <point x="664" y="120" type="curve" smooth="yes"/>
      <point x="375" y="120"/>
      <point x="267" y="335"/>
      <point x="267" y="521" type="curve" smooth="yes"/>
      <point x="267" y="716"/>
      <point x="375" y="925"/>
      <point x="664" y="925" type="curve" smooth="yes"/>
      <point x="953" y="925"/>
      <point x="1061" y="716"/>
      <point x="1061" y="521" type="curve" smooth="yes"/>
      <point x="1061" y="335"/>
      <point x="953" y="120"/>
    </contour>
    <contour>
      <point x="662" y="2" type="curve" smooth="yes"/>
      <point x="1016" y="2"/>
      <point x="1193" y="250"/>
      <point x="1193" y="524" type="curve" smooth="yes"/>
      <point x="1193" y="799"/>
      <point x="1016" y="1047"/>
      <point x="662" y="1047" type="curve" smooth="yes"/>
      <point x="308" y="1047"/>
      <point x="131" y="799"/>
      <point x="131" y="524" type="curve" smooth="yes"/>
      <point x="131" y="250"/>
      <point x="308" y="2"/>
    </contour>
  </outline>
</glyph>
<glyph name="plusminus" format="1">
  <advance width="1289"/>
  <unicode hex="00B1"/>
  <outline>
    <contour>
      <point x="570" y="176" type="curve" smooth="yes"/>
      <point x="648" y="176" type="line" smooth="yes"/>
      <point x="691" y="176"/>
      <point x="705" y="200"/>
      <point x="705" y="243" type="curve" smooth="yes"/>
      <point x="705" y="566" type="line" smooth="yes"/>
      <point x="705" y="586"/>
      <point x="712" y="603"/>
      <point x="732" y="603" type="curve" smooth="yes"/>
      <point x="1032" y="603" type="line" smooth="yes"/>
      <point x="1075" y="603"/>
      <point x="1089" y="617"/>
      <point x="1089" y="660" type="curve" smooth="yes"/>
      <point x="1089" y="741" type="line" smooth="yes"/>
      <point x="1089" y="784"/>
      <point x="1075" y="798"/>
      <point x="1032" y="798" type="curve" smooth="yes"/>
      <point x="732" y="798" type="line" smooth="yes"/>
      <point x="712" y="798"/>
      <point x="705" y="814"/>
      <point x="705" y="834" type="curve" smooth="yes"/>
      <point x="705" y="1168" type="line" smooth="yes"/>
      <point x="705" y="1211"/>
      <point x="691" y="1235"/>
      <point x="648" y="1235" type="curve" smooth="yes"/>
      <point x="570" y="1235" type="line" smooth="yes"/>
      <point x="527" y="1235"/>
      <point x="513" y="1211"/>
      <point x="513" y="1168" type="curve" smooth="yes"/>
      <point x="513" y="834" type="line" smooth="yes"/>
      <point x="513" y="814"/>
      <point x="506" y="798"/>
      <point x="486" y="798" type="curve" smooth="yes"/>
      <point x="186" y="798" type="line" smooth="yes"/>
      <point x="143" y="798"/>
      <point x="129" y="784"/>
      <point x="129" y="741" type="curve" smooth="yes"/>
      <point x="129" y="660" type="line" smooth="yes"/>
      <point x="129" y="617"/>
      <point x="143" y="603"/>
      <point x="186" y="603" type="curve" smooth="yes"/>
      <point x="486" y="603" type="line" smooth="yes"/>
      <point x="506" y="603"/>
      <point x="513" y="586"/>
      <point x="513" y="566" type="curve" smooth="yes"/>
      <point x="513" y="243" type="line" smooth="yes"/>
      <point x="513" y="200"/>
      <point x="527" y="176"/>
    </contour>
    <contour>
      <point x="159" y="-39" type="curve" smooth="yes"/>
      <point x="1049" y="-39" type="line" smooth="yes"/>
      <point x="1092" y="-39"/>
      <point x="1116" y="-14"/>
      <point x="1116" y="28" type="curve" smooth="yes"/>
      <point x="1116" y="78" type="line" smooth="yes"/>
      <point x="1116" y="121"/>
      <point x="1092" y="145"/>
      <point x="1049" y="145" type="curve" smooth="yes"/>
      <point x="159" y="145" type="line" smooth="yes"/>
      <point x="116" y="145"/>
      <point x="92" y="121"/>
      <point x="92" y="78" type="curve" smooth="yes"/>
      <point x="92" y="28" type="line" smooth="yes"/>
      <point x="92" y="-15"/>
      <point x="116" y="-39"/>
    </contour>
  </outline>
</glyph>
<glyph name="acute" format="1">
  <advance width="1745"/>
  <unicode hex="00B4"/>
  <outline>
    <contour>
      <point x="861.45" y="1166" type="curve" smooth="yes"/>
      <point x="890.45" y="1166" type="line" smooth="yes"/>
      <point x="902.45" y="1166"/>
      <point x="912.45" y="1167"/>
      <point x="938.45" y="1205" type="curve" smooth="yes"/>
      <point x="1161.45" y="1533" type="line" smooth="yes"/>
      <point x="1168.45" y="1545"/>
      <point x="1173.45" y="1559"/>
      <point x="1173.45" y="1570" type="curve" smooth="yes"/>
      <point x="1173.45" y="1586"/>
      <point x="1165.45" y="1598"/>
      <point x="1145.45" y="1598" type="curve" smooth="yes"/>
      <point x="979.45" y="1598" type="line" smooth="yes"/>
      <point x="935.45" y="1598"/>
      <point x="922.45" y="1586"/>
      <point x="914.45" y="1543" type="curve" smooth="yes"/>
      <point x="851.45" y="1233" type="line" smooth="yes"/>
      <point x="848.45" y="1219"/>
      <point x="832.45" y="1166"/>
    </contour>
    <contour>
      <point x="872.5" y="1006" type="move" name="_top"/>
    </contour>
  </outline>
</glyph>
<glyph name="uni00B5" format="1">
  <advance width="1551"/>
  <unicode hex="00B5"/>
  <outline>
    <contour>
      <point x="220" y="-299" type="curve" smooth="yes"/>
      <point x="321" y="-299" type="line" smooth="yes"/>
      <point x="364" y="-299"/>
      <point x="380" y="-275"/>
      <point x="380" y="-232" type="curve" smooth="yes"/>
      <point x="380" y="48" type="line"/>
      <point x="432" y="-19"/>
      <point x="560" y="-47"/>
      <point x="672" y="-47" type="curve" smooth="yes"/>
      <point x="862" y="-47"/>
      <point x="1051" y="19"/>
      <point x="1181" y="180" type="curve" smooth="yes"/>
      <point x="1187" y="187"/>
      <point x="1193" y="195"/>
      <point x="1201" y="195" type="curve" smooth="yes"/>
      <point x="1209" y="195"/>
      <point x="1211" y="190"/>
      <point x="1216" y="182" type="curve"/>
      <point x="1243" y="64" type="line" smooth="yes"/>
      <point x="1254" y="14"/>
      <point x="1276" y="0"/>
      <point x="1323" y="0" type="curve" smooth="yes"/>
      <point x="1343" y="0" type="line" smooth="yes"/>
      <point x="1386" y="0"/>
      <point x="1400" y="34"/>
      <point x="1400" y="77" type="curve" smooth="yes"/>
      <point x="1400" y="939" type="line" smooth="yes"/>
      <point x="1400" y="982"/>
      <point x="1376" y="1006"/>
      <point x="1333" y="1006" type="curve" smooth="yes"/>
      <point x="1238" y="1006" type="line" smooth="yes"/>
      <point x="1195" y="1006"/>
      <point x="1172" y="982"/>
      <point x="1172" y="939" type="curve" smooth="yes"/>
      <point x="1172" y="400" type="line" smooth="yes"/>
      <point x="1172" y="267"/>
      <point x="912" y="111"/>
      <point x="715" y="111" type="curve" smooth="yes"/>
      <point x="529" y="111"/>
      <point x="380" y="175"/>
      <point x="380" y="400" type="curve" smooth="yes"/>
      <point x="380" y="939" type="line" smooth="yes"/>
      <point x="380" y="982"/>
      <point x="356" y="1006"/>
      <point x="313" y="1006" type="curve" smooth="yes"/>
      <point x="219" y="1006" type="line" smooth="yes"/>
      <point x="176" y="1006"/>
      <point x="152" y="982"/>
      <point x="152" y="939" type="curve" smooth="yes"/>
      <point x="152" y="-232" type="line" smooth="yes"/>
      <point x="152" y="-275"/>
      <point x="177" y="-299"/>
    </contour>
  </outline>
</glyph>
<glyph name="paragraph" format="1">
  <advance width="1270"/>
  <unicode hex="00B6"/>
  <outline>
    <contour>
      <point x="592" y="-1" type="curve" smooth="yes"/>
      <point x="670" y="-1" type="line" smooth="yes"/>
      <point x="713" y="-1"/>
      <point x="727" y="33"/>
      <point x="727" y="76" type="curve" smooth="yes"/>
      <point x="727" y="826" type="line"/>
      <point x="900" y="826" type="line" smooth="yes"/>
      <point x="910" y="826"/>
      <point x="919" y="817"/>
      <point x="919" y="805" type="curve" smooth="yes"/>
      <point x="919" y="76" type="line" smooth="yes"/>
      <point x="919" y="33"/>
      <point x="933" y="-1"/>
      <point x="976" y="-1" type="curve" smooth="yes"/>
      <point x="1054" y="-1" type="line" smooth="yes"/>
      <point x="1097" y="-1"/>
      <point x="1111" y="33"/>
      <point x="1111" y="76" type="curve" smooth="yes"/>
      <point x="1111" y="1338" type="line" smooth="yes"/>
      <point x="1111" y="1381"/>
      <point x="1088" y="1409"/>
      <point x="1045" y="1416" type="curve" smooth="yes"/>
      <point x="980" y="1426"/>
      <point x="862" y="1438"/>
      <point x="617" y="1438" type="curve" smooth="yes"/>
      <point x="246" y="1438"/>
      <point x="119" y="1330"/>
      <point x="119" y="1133" type="curve" smooth="yes"/>
      <point x="119" y="929"/>
      <point x="246" y="826"/>
      <point x="515" y="826" type="curve" smooth="yes"/>
      <point x="535" y="826" type="line"/>
      <point x="535" y="76" type="line" smooth="yes"/>
      <point x="535" y="33"/>
      <point x="549" y="-1"/>
    </contour>
  </outline>
</glyph>
<glyph name="cedilla" format="1">
  <advance width="716"/>
  <unicode hex="00B8"/>
  <outline>
    <contour>
      <point x="403" y="-486" type="curve" smooth="yes"/>
      <point x="547" y="-486"/>
      <point x="620" y="-392"/>
      <point x="620" y="-214" type="curve" smooth="yes"/>
      <point x="620" y="-103"/>
      <point x="547" y="0"/>
      <point x="439" y="0" type="curve" smooth="yes"/>
      <point x="363" y="0" type="line" smooth="yes"/>
      <point x="350" y="0"/>
      <point x="347" y="-7"/>
      <point x="347" y="-17" type="curve" smooth="yes"/>
      <point x="347" y="-88" type="line" smooth="yes"/>
      <point x="347" y="-99"/>
      <point x="363" y="-98"/>
      <point x="363" y="-98" type="curve"/>
      <point x="402" y="-98" type="line" smooth="yes"/>
      <point x="452" y="-98"/>
      <point x="483" y="-175"/>
      <point x="483" y="-251" type="curve" smooth="yes"/>
      <point x="483" y="-361"/>
      <point x="457" y="-401"/>
      <point x="410" y="-401" type="curve" smooth="yes"/>
      <point x="360" y="-401"/>
      <point x="338" y="-358"/>
      <point x="338" y="-305" type="curve" smooth="yes"/>
      <point x="338" y="-288"/>
      <point x="340" y="-271"/>
      <point x="343" y="-253" type="curve" smooth="yes"/>
      <point x="346" y="-233"/>
      <point x="333" y="-217"/>
      <point x="312" y="-217" type="curve" smooth="yes"/>
      <point x="249" y="-217" type="line" smooth="yes"/>
      <point x="230" y="-217"/>
      <point x="209" y="-233"/>
      <point x="205" y="-252" type="curve" smooth="yes"/>
      <point x="201" y="-271"/>
      <point x="199" y="-290"/>
      <point x="199" y="-308" type="curve" smooth="yes"/>
      <point x="199" y="-416"/>
      <point x="289" y="-486"/>
    </contour>
    <contour>
      <point x="409.5" y="0" type="move" name="_bottom"/>
    </contour>
  </outline>
</glyph>
<glyph name="ordmasculine" format="1">
  <advance width="1649"/>
  <unicode hex="00BA"/>
  <outline>
    <contour>
      <point x="601.1" y="674.35" type="curve" smooth="yes"/>
      <point x="381.8" y="674.35"/>
      <point x="201.6" y="789.1"/>
      <point x="202.45" y="1008.4" type="curve" smooth="yes"/>
      <point x="201.6" y="1248.1"/>
      <point x="395.4" y="1345.0"/>
      <point x="601.1" y="1345.0" type="curve" smooth="yes"/>
      <point x="803.4" y="1345.0"/>
      <point x="997.2" y="1249.8"/>
      <point x="997.2" y="1008.4" type="curve" smooth="yes"/>
      <point x="997.2" y="786.55"/>
      <point x="817.0" y="674.35"/>
    </contour>
    <contour>
      <point x="601.95" y="545.15" type="curve" smooth="yes"/>
      <point x="851.85" y="545.15"/>
      <point x="1191.85" y="670.95"/>
      <point x="1191.85" y="1008.4" type="curve" smooth="yes"/>
      <point x="1191.85" y="1355.2"/>
      <point x="877.35" y="1474.2"/>
      <point x="601.95" y="1474.2" type="curve" smooth="yes"/>
      <point x="322.3" y="1474.2"/>
      <point x="7.8" y="1355.2"/>
      <point x="7.8" y="1008.4" type="curve" smooth="yes"/>
      <point x="7.8" y="670.1"/>
      <point x="347.8" y="545.15"/>
    </contour>
  </outline>
</glyph>
<glyph name="guillemotright" format="1">
  <advance width="1355"/>
  <unicode hex="00BB"/>
  <outline>
    <contour>
      <point x="185" y="245" type="curve" smooth="yes"/>
      <point x="193" y="245"/>
      <point x="199" y="247"/>
      <point x="205" y="249" type="curve"/>
      <point x="653" y="574" type="line" smooth="yes"/>
      <point x="686" y="599"/>
      <point x="714" y="616"/>
      <point x="714" y="658" type="curve" smooth="yes"/>
      <point x="714" y="717" type="line" smooth="yes"/>
      <point x="714" y="759"/>
      <point x="686" y="776"/>
      <point x="653" y="801" type="curve" smooth="yes"/>
      <point x="204" y="1140" type="line"/>
      <point x="198" y="1142"/>
      <point x="191" y="1145"/>
      <point x="185" y="1145" type="curve" smooth="yes"/>
      <point x="164" y="1145"/>
      <point x="144" y="1128"/>
      <point x="144" y="1104" type="curve" smooth="yes"/>
      <point x="144" y="1014" type="line" smooth="yes"/>
      <point x="144" y="972"/>
      <point x="171" y="954"/>
      <point x="206" y="933" type="curve"/>
      <point x="525" y="700" type="line" smooth="yes"/>
      <point x="530" y="696"/>
      <point x="534" y="691"/>
      <point x="534" y="686" type="curve" smooth="yes"/>
      <point x="534" y="681"/>
      <point x="531" y="676"/>
      <point x="525" y="672" type="curve" smooth="yes"/>
      <point x="206" y="441" type="line"/>
      <point x="172" y="419"/>
      <point x="144" y="402"/>
      <point x="144" y="361" type="curve" smooth="yes"/>
      <point x="144" y="286" type="line" smooth="yes"/>
      <point x="144" y="262"/>
      <point x="164" y="245"/>
    </contour>
    <contour>
      <point x="704" y="245" type="curve" smooth="yes"/>
      <point x="711" y="245"/>
      <point x="717" y="247"/>
      <point x="724" y="249" type="curve"/>
      <point x="1171" y="574" type="line" smooth="yes"/>
      <point x="1205" y="599"/>
      <point x="1232" y="616"/>
      <point x="1232" y="658" type="curve" smooth="yes"/>
      <point x="1232" y="717" type="line" smooth="yes"/>
      <point x="1232" y="759"/>
      <point x="1205" y="776"/>
      <point x="1172" y="801" type="curve" smooth="yes"/>
      <point x="723" y="1140" type="line"/>
      <point x="716" y="1142"/>
      <point x="709" y="1145"/>
      <point x="703" y="1145" type="curve" smooth="yes"/>
      <point x="682" y="1145"/>
      <point x="663" y="1128"/>
      <point x="663" y="1104" type="curve" smooth="yes"/>
      <point x="663" y="1014" type="line" smooth="yes"/>
      <point x="663" y="972"/>
      <point x="690" y="954"/>
      <point x="725" y="933" type="curve"/>
      <point x="1043" y="700" type="line" smooth="yes"/>
      <point x="1049" y="696"/>
      <point x="1052" y="691"/>
      <point x="1052" y="686" type="curve" smooth="yes"/>
      <point x="1052" y="681"/>
      <point x="1049" y="676"/>
      <point x="1043" y="672" type="curve" smooth="yes"/>
      <point x="725" y="441" type="line"/>
      <point x="691" y="419"/>
      <point x="663" y="402"/>
      <point x="663" y="361" type="curve" smooth="yes"/>
      <point x="663" y="286" type="line" smooth="yes"/>
      <point x="663" y="262"/>
      <point x="682" y="245"/>
    </contour>
  </outline>
</glyph>
<glyph name="onequarter" format="1">
  <advance width="3136.7"/>
  <unicode hex="00BC"/>
  <outline>
    <contour>
      <point x="2545.8" y="0.0" type="curve" smooth="yes"/>
      <point x="2629" y="0" type="line" smooth="yes"/>
      <point x="2659" y="0"/>
      <point x="2676" y="17"/>
      <point x="2676" y="47" type="curve" smooth="yes"/>
      <point x="2676" y="199" type="line"/>
      <point x="2853" y="199" type="line" smooth="yes"/>
      <point x="2883" y="199"/>
      <point x="2900" y="216"/>
      <point x="2900" y="246" type="curve" smooth="yes"/>
      <point x="2900" y="270" type="line" smooth="yes"/>
      <point x="2900" y="300"/>
      <point x="2883" y="317"/>
      <point x="2853" y="317" type="curve" smooth="yes"/>
      <point x="2676" y="317" type="line"/>
      <point x="2676" y="959" type="line" smooth="yes"/>
      <point x="2676" y="989"/>
      <point x="2659" y="1006"/>
      <point x="2629" y="1006" type="curve" smooth="yes"/>
      <point x="2546" y="1006" type="line" smooth="yes"/>
      <point x="2516" y="1006"/>
      <point x="2499" y="989"/>
      <point x="2499" y="959" type="curve" smooth="yes"/>
      <point x="2499" y="317" type="line"/>
      <point x="2096.4" y="317.1" type="line" smooth="yes"/>
      <point x="2085" y="317"/>
      <point x="2076.8" y="324.1"/>
      <point x="2076.8" y="333.9" type="curve" smooth="yes"/>
      <point x="2076.8" y="336.0"/>
      <point x="2076.8" y="338.1"/>
      <point x="2077.5" y="340.2" type="curve" smooth="yes"/>
      <point x="2266" y="959" type="line" smooth="yes"/>
      <point x="2267" y="963"/>
      <point x="2268" y="966"/>
      <point x="2268" y="970" type="curve" smooth="yes"/>
      <point x="2268" y="992"/>
      <point x="2245" y="1006"/>
      <point x="2219" y="1006" type="curve" smooth="yes"/>
      <point x="2137" y="1006" type="line" smooth="yes"/>
      <point x="2107" y="1006"/>
      <point x="2099" y="986"/>
      <point x="2090" y="958" type="curve" smooth="yes"/>
      <point x="1865" y="244" type="line" smooth="yes"/>
      <point x="1863" y="239"/>
      <point x="1863" y="236"/>
      <point x="1863" y="232" type="curve" smooth="yes"/>
      <point x="1863" y="210"/>
      <point x="1886" y="197"/>
      <point x="1912" y="197" type="curve" smooth="yes"/>
      <point x="2498.9" y="198.8" type="line"/>
      <point x="2498.9" y="46.9" type="line" smooth="yes"/>
      <point x="2498.9" y="16.8"/>
      <point x="2515.7" y="0.0"/>
    </contour>
    <contour>
      <point x="409.8" y="434.0" type="curve" smooth="yes"/>
      <point x="497" y="434" type="line" smooth="yes"/>
      <point x="527" y="434"/>
      <point x="544" y="451"/>
      <point x="544" y="481" type="curve" smooth="yes"/>
      <point x="544" y="1394" type="line" smooth="yes"/>
      <point x="544" y="1424"/>
      <point x="527" y="1441"/>
      <point x="497" y="1441" type="curve"/>
      <point x="145.9" y="1405.6" type="line"/>
      <point x="115.8" y="1405.6"/>
      <point x="99.0" y="1388.8"/>
      <point x="99.0" y="1358.7" type="curve" smooth="yes"/>
      <point x="99.0" y="1334.2" type="line" smooth="yes"/>
      <point x="99.0" y="1304.1"/>
      <point x="115.8" y="1287.3"/>
      <point x="145.9" y="1287.3" type="curve"/>
      <point x="337.0" y="1308.3" type="line"/>
      <point x="351.0" y="1308.3"/>
      <point x="362.9" y="1296.4"/>
      <point x="362.9" y="1282.4" type="curve" smooth="yes"/>
      <point x="362.9" y="480.9" type="line" smooth="yes"/>
      <point x="362.9" y="450.8"/>
      <point x="379.7" y="434.0"/>
    </contour>
    <contour>
      <point x="813" y="-205" type="curve" smooth="yes"/>
      <point x="943" y="-205" type="line" smooth="yes"/>
      <point x="965" y="-205"/>
      <point x="987" y="-192"/>
      <point x="996" y="-172" type="curve" smooth="yes"/>
      <point x="1877" y="1614" type="line" smooth="yes"/>
      <point x="1884" y="1629"/>
      <point x="1873" y="1647"/>
      <point x="1856" y="1647" type="curve" smooth="yes"/>
      <point x="1726" y="1647" type="line" smooth="yes"/>
      <point x="1704" y="1647"/>
      <point x="1682" y="1634"/>
      <point x="1673" y="1614" type="curve" smooth="yes"/>
      <point x="792" y="-172" type="line" smooth="yes"/>
      <point x="785" y="-187"/>
      <point x="796" y="-205"/>
    </contour>
  </outline>
</glyph>
<glyph name="multiply" format="1">
  <advance width="1118"/>
  <unicode hex="00D7"/>
  <outline>
    <contour>
      <point x="265" y="257" type="curve" smooth="yes"/>
      <point x="285" y="257"/>
      <point x="302" y="262"/>
      <point x="320" y="280" type="curve" smooth="yes"/>
      <point x="337" y="298"/>
      <point x="442" y="406"/>
      <point x="561" y="529" type="curve"/>
      <point x="692" y="402"/>
      <point x="805" y="293"/>
      <point x="811" y="288" type="curve" smooth="yes"/>
      <point x="827" y="272"/>
      <point x="845" y="265"/>
      <point x="864" y="265" type="curve" smooth="yes"/>
      <point x="885" y="265"/>
      <point x="904" y="273"/>
      <point x="919" y="288" type="curve" smooth="yes"/>
      <point x="959" y="326" type="line" smooth="yes"/>
      <point x="974" y="341"/>
      <point x="981" y="360"/>
      <point x="981" y="380" type="curve" smooth="yes"/>
      <point x="981" y="400"/>
      <point x="978" y="416"/>
      <point x="958" y="435" type="curve" smooth="yes"/>
      <point x="950" y="443"/>
      <point x="838" y="554"/>
      <point x="709" y="681" type="curve"/>
      <point x="835" y="812"/>
      <point x="945" y="926"/>
      <point x="950" y="931" type="curve" smooth="yes"/>
      <point x="966" y="948"/>
      <point x="973" y="966"/>
      <point x="973" y="985" type="curve" smooth="yes"/>
      <point x="973" y="1005"/>
      <point x="965" y="1025"/>
      <point x="950" y="1040" type="curve" smooth="yes"/>
      <point x="912" y="1079" type="line" smooth="yes"/>
      <point x="897" y="1095"/>
      <point x="878" y="1102"/>
      <point x="858" y="1102" type="curve" smooth="yes"/>
      <point x="838" y="1102"/>
      <point x="822" y="1098"/>
      <point x="803" y="1079" type="curve" smooth="yes"/>
      <point x="795" y="1071"/>
      <point x="685" y="959"/>
      <point x="558" y="830" type="curve"/>
      <point x="430" y="957"/>
      <point x="319" y="1066"/>
      <point x="314" y="1071" type="curve" smooth="yes"/>
      <point x="298" y="1088"/>
      <point x="281" y="1093"/>
      <point x="260" y="1093" type="curve" smooth="yes"/>
      <point x="241" y="1093"/>
      <point x="221" y="1086"/>
      <point x="205" y="1071" type="curve" smooth="yes"/>
      <point x="159" y="1027" type="line" smooth="yes"/>
      <point x="144" y="1012"/>
      <point x="136" y="992"/>
      <point x="136" y="973" type="curve" smooth="yes"/>
      <point x="136" y="953"/>
      <point x="141" y="936"/>
      <point x="159" y="918" type="curve" smooth="yes"/>
      <point x="177" y="901"/>
      <point x="285" y="797"/>
      <point x="407" y="678" type="curve"/>
      <point x="281" y="551"/>
      <point x="172" y="440"/>
      <point x="167" y="435" type="curve" smooth="yes"/>
      <point x="150" y="418"/>
      <point x="145" y="401"/>
      <point x="145" y="381" type="curve" smooth="yes"/>
      <point x="145" y="361"/>
      <point x="152" y="342"/>
      <point x="167" y="326" type="curve" smooth="yes"/>
      <point x="211" y="280" type="line" smooth="yes"/>
      <point x="226" y="265"/>
      <point x="246" y="257"/>
    </contour>
  </outline>
</glyph>
<glyph name="Oslash" format="1">
  <advance width="2188"/>
  <unicode hex="00D8"/>
  <outline>
    <contour>
      <point x="791" y="-202" type="line" smooth="yes"/>
      <point x="809" y="-202"/>
      <point x="828" y="-189"/>
      <point x="836" y="-169" type="curve" smooth="yes"/>
      <point x="893" y="-31" type="line"/>
      <point x="960" y="-38"/>
      <point x="1027" y="-41"/>
      <point x="1094" y="-41" type="curve" smooth="yes"/>
      <point x="1555" y="-41"/>
      <point x="2054" y="105"/>
      <point x="2054" y="724" type="curve" smooth="yes"/>
      <point x="2054" y="1128"/>
      <point x="1805" y="1336"/>
      <point x="1496" y="1423" type="curve"/>
      <point x="1570" y="1602" type="line" smooth="yes"/>
      <point x="1576" y="1617"/>
      <point x="1567" y="1635"/>
      <point x="1553" y="1635" type="curve" smooth="yes"/>
      <point x="1439" y="1635" type="line" smooth="yes"/>
      <point x="1420" y="1635"/>
      <point x="1403" y="1622"/>
      <point x="1395" y="1602" type="curve" smooth="yes"/>
      <point x="1335" y="1458" type="line"/>
      <point x="1255" y="1470"/>
      <point x="1174" y="1475"/>
      <point x="1094" y="1475" type="curve" smooth="yes"/>
      <point x="636" y="1475"/>
      <point x="134" y="1296"/>
      <point x="134" y="724" type="curve" smooth="yes"/>
      <point x="134" y="270"/>
      <point x="404" y="71"/>
      <point x="728" y="-4" type="curve"/>
      <point x="660" y="-167" type="line" smooth="yes"/>
      <point x="653" y="-182"/>
      <point x="662" y="-200"/>
      <point x="677" y="-200" type="curve" smooth="yes"/>
    </contour>
    <contour>
      <point x="794" y="156" type="line"/>
      <point x="546" y="213"/>
      <point x="363" y="367"/>
      <point x="363" y="724" type="curve" smooth="yes"/>
      <point x="363" y="1142"/>
      <point x="694" y="1307"/>
      <point x="1094" y="1307" type="curve" smooth="yes"/>
      <point x="1154" y="1307"/>
      <point x="1212" y="1303"/>
      <point x="1268" y="1296" type="curve"/>
    </contour>
    <contour>
      <point x="1094" y="127" type="curve" smooth="yes"/>
      <point x="1049" y="127"/>
      <point x="1004" y="128"/>
      <point x="961" y="132" type="curve"/>
      <point x="1428" y="1260" type="line"/>
      <point x="1664" y="1186"/>
      <point x="1825" y="1017"/>
      <point x="1825" y="724" type="curve" smooth="yes"/>
      <point x="1825" y="234"/>
      <point x="1484" y="127"/>
    </contour>
    <contour>
      <point x="1094" y="1438" type="move" name="top"/>
    </contour>
  </outline>
</glyph>
<glyph name="Thorn" format="1">
  <advance width="1840"/>
  <unicode hex="00DE"/>
  <outline>
    <contour>
      <point x="227" y="0" type="curve" smooth="yes"/>
      <point x="321" y="0" type="line" smooth="yes"/>
      <point x="364" y="0"/>
      <point x="388" y="24"/>
      <point x="388" y="67" type="curve" smooth="yes"/>
      <point x="388" y="287" type="line"/>
      <point x="407" y="307" type="line"/>
      <point x="712" y="307" type="line" smooth="yes"/>
      <point x="1243" y="307"/>
      <point x="1714" y="311"/>
      <point x="1714" y="789" type="curve" smooth="yes"/>
      <point x="1714" y="1218"/>
      <point x="1114" y="1223"/>
      <point x="653" y="1223" type="curve" smooth="yes"/>
      <point x="388" y="1223" type="line"/>
      <point x="388" y="1371" type="line" smooth="yes"/>
      <point x="388" y="1414"/>
      <point x="364" y="1438"/>
      <point x="321" y="1438" type="curve" smooth="yes"/>
      <point x="227" y="1438" type="line" smooth="yes"/>
      <point x="184" y="1438"/>
      <point x="160" y="1414"/>
      <point x="160" y="1371" type="curve" smooth="yes"/>
      <point x="160" y="67" type="line" smooth="yes"/>
      <point x="160" y="24"/>
      <point x="184" y="0"/>
    </contour>
    <contour>
      <point x="404" y="483" type="line"/>
      <point x="388" y="504" type="line"/>
      <point x="388" y="1047" type="line"/>
      <point x="405" y="1063" type="line"/>
      <point x="653" y="1063" type="line" smooth="yes"/>
      <point x="1101" y="1063"/>
      <point x="1490" y="1061"/>
      <point x="1490" y="789" type="curve" smooth="yes"/>
      <point x="1490" y="487"/>
      <point x="1200" y="483"/>
      <point x="703" y="483" type="curve" smooth="yes"/>
    </contour>
  </outline>
</glyph>
<glyph name="germandbls" format="1">
  <advance width="1716"/>
  <unicode hex="00DF"/>
  <outline>
    <contour>
      <point x="213" y="0" type="curve" smooth="yes"/>
      <point x="311" y="0" type="line" smooth="yes"/>
      <point x="362" y="0"/>
      <point x="380" y="31"/>
      <point x="380" y="77" type="curve" smooth="yes"/>
      <point x="380" y="974" type="line" smooth="yes"/>
      <point x="380" y="1195"/>
      <point x="482" y="1278"/>
      <point x="715" y="1278" type="curve" smooth="yes"/>
      <point x="1165" y="1278"/>
      <point x="1258" y="1204"/>
      <point x="1258" y="1041" type="curve" smooth="yes"/>
      <point x="1258" y="941"/>
      <point x="1179" y="834"/>
      <point x="829" y="834" type="curve" smooth="yes"/>
      <point x="604" y="834" type="line" smooth="yes"/>
      <point x="581" y="834"/>
      <point x="572" y="826"/>
      <point x="572" y="803" type="curve" smooth="yes"/>
      <point x="572" y="693" type="line" smooth="yes"/>
      <point x="572" y="674"/>
      <point x="580" y="664"/>
      <point x="604" y="664" type="curve" smooth="yes"/>
      <point x="819" y="664" type="line" smooth="yes"/>
      <point x="1244" y="664"/>
      <point x="1363" y="579"/>
      <point x="1363" y="422" type="curve" smooth="yes"/>
      <point x="1363" y="246"/>
      <point x="1268" y="160"/>
      <point x="768" y="160" type="curve" smooth="yes"/>
      <point x="572" y="160" type="line"/>
      <point x="553" y="161"/>
      <point x="540" y="153"/>
      <point x="540" y="138" type="curve" smooth="yes"/>
      <point x="540" y="25" type="line" smooth="yes"/>
      <point x="540" y="9"/>
      <point x="547" y="0"/>
      <point x="572" y="0" type="curve" smooth="yes"/>
      <point x="752" y="0" type="line" smooth="yes"/>
      <point x="1251" y="0"/>
      <point x="1585" y="96"/>
      <point x="1585" y="424" type="curve" smooth="yes"/>
      <point x="1585" y="590"/>
      <point x="1456" y="712"/>
      <point x="1271" y="762" type="curve" smooth="yes"/>
      <point x="1256" y="766"/>
      <point x="1255" y="775"/>
      <point x="1268" y="781" type="curve" smooth="yes"/>
      <point x="1397" y="841"/>
      <point x="1458" y="929"/>
      <point x="1458" y="1040" type="curve" smooth="yes"/>
      <point x="1458" y="1339"/>
      <point x="1215" y="1438"/>
      <point x="787" y="1438" type="curve" smooth="yes"/>
      <point x="729" y="1438" type="line" smooth="yes"/>
      <point x="237" y="1438"/>
      <point x="156" y="1232"/>
      <point x="156" y="969" type="curve" smooth="yes"/>
      <point x="156" y="77" type="line" smooth="yes"/>
      <point x="156" y="34"/>
      <point x="170" y="0"/>
    </contour>
  </outline>
</glyph>
<glyph name="ae" format="1">
  <advance width="2789"/>
  <unicode hex="00E6"/>
  <outline>
    <contour>
      <point x="2044" y="-42" type="curve" smooth="yes"/>
      <point x="2185" y="-42"/>
      <point x="2433" y="2"/>
      <point x="2559" y="63" type="curve" smooth="yes"/>
      <point x="2592" y="79"/>
      <point x="2603" y="97"/>
      <point x="2603" y="116" type="curve" smooth="yes"/>
      <point x="2603" y="123"/>
      <point x="2582" y="195"/>
      <point x="2579" y="202" type="curve" smooth="yes"/>
      <point x="2573" y="221"/>
      <point x="2545" y="230"/>
      <point x="2503" y="212" type="curve"/>
      <point x="2436" y="181"/>
      <point x="2225" y="109"/>
      <point x="2055" y="109" type="curve" smooth="yes"/>
      <point x="1638" y="109"/>
      <point x="1548" y="331"/>
      <point x="1547" y="457" type="curve" smooth="yes"/>
      <point x="1547" y="465"/>
      <point x="1553" y="450"/>
      <point x="1564" y="450" type="curve" smooth="yes"/>
      <point x="2524" y="450" type="line" smooth="yes"/>
      <point x="2633" y="450"/>
      <point x="2655" y="521"/>
      <point x="2656" y="556" type="curve"/>
      <point x="2656" y="607" type="line"/>
      <point x="2608" y="817"/>
      <point x="2450" y="1052"/>
      <point x="2021" y="1052" type="curve" smooth="yes"/>
      <point x="1825" y="1052"/>
      <point x="1594" y="981"/>
      <point x="1457" y="833" type="curve"/>
      <point x="1393" y="970"/>
      <point x="1225" y="1052"/>
      <point x="881" y="1052" type="curve" smooth="yes"/>
      <point x="474" y="1052"/>
      <point x="228" y="992"/>
      <point x="175" y="846" type="curve" smooth="yes"/>
      <point x="171" y="835"/>
      <point x="164" y="820"/>
      <point x="164" y="802" type="curve" smooth="yes"/>
      <point x="164" y="785"/>
      <point x="179" y="767"/>
      <point x="196" y="765" type="curve" smooth="yes"/>
      <point x="320" y="748" type="line" smooth="yes"/>
      <point x="329" y="747"/>
      <point x="332" y="746"/>
      <point x="338" y="746" type="curve" smooth="yes"/>
      <point x="359" y="746"/>
      <point x="393" y="778"/>
      <point x="414" y="800" type="curve" smooth="yes"/>
      <point x="505" y="893"/>
      <point x="799" y="900"/>
      <point x="883" y="900" type="curve" smooth="yes"/>
      <point x="1282" y="900"/>
      <point x="1320" y="770"/>
      <point x="1320" y="702" type="curve" smooth="yes"/>
      <point x="1320" y="687"/>
      <point x="1318" y="674"/>
      <point x="1318" y="641" type="curve" smooth="yes"/>
      <point x="1318" y="606"/>
      <point x="137" y="669"/>
      <point x="137" y="238" type="curve"/>
      <point x="140" y="62"/>
      <point x="325" y="-41"/>
      <point x="717" y="-41" type="curve" smooth="yes"/>
      <point x="1050" y="-41"/>
      <point x="1278" y="70"/>
      <point x="1418" y="244" type="curve" smooth="yes"/>
      <point x="1421" y="248"/>
      <point x="1424" y="249"/>
      <point x="1426" y="249" type="curve" smooth="yes"/>
      <point x="1429" y="249"/>
      <point x="1431" y="246"/>
      <point x="1433" y="243" type="curve" smooth="yes"/>
      <point x="1560" y="31"/>
      <point x="1773" y="-42"/>
    </contour>
    <contour>
      <point x="730" y="103" type="curve" smooth="yes"/>
      <point x="460" y="103"/>
      <point x="376" y="156"/>
      <point x="374" y="251" type="curve"/>
      <point x="374" y="382"/>
      <point x="598" y="450"/>
      <point x="1191" y="490" type="curve" smooth="yes"/>
      <point x="1196" y="491"/>
      <point x="1307" y="501"/>
      <point x="1310" y="501" type="curve" smooth="yes"/>
      <point x="1321" y="501"/>
      <point x="1321" y="497"/>
      <point x="1321" y="483" type="curve" smooth="yes"/>
      <point x="1321" y="235"/>
      <point x="1038" y="103"/>
    </contour>
    <contour>
      <point x="1559" y="590" type="line" smooth="yes"/>
      <point x="1552" y="590"/>
      <point x="1551" y="593"/>
      <point x="1551" y="597" type="curve" smooth="yes"/>
      <point x="1586" y="811"/>
      <point x="1808" y="900"/>
      <point x="2020" y="900" type="curve" smooth="yes"/>
      <point x="2342" y="900"/>
      <point x="2414" y="733"/>
      <point x="2463" y="592" type="curve"/>
      <point x="2464" y="590" type="line"/>
    </contour>
    <contour>
      <point x="1395" y="1006" type="move" name="top"/>
    </contour>
  </outline>
</glyph>
<glyph name="eth" format="1">
  <advance width="1868"/>
  <unicode hex="00F0"/>
  <outline>
    <contour>
      <point x="949" y="-42" type="curve" smooth="yes"/>
      <point x="1538" y="-42"/>
      <point x="1736" y="188"/>
      <point x="1736" y="598" type="curve" smooth="yes"/>
      <point x="1736" y="892"/>
      <point x="1506" y="1203"/>
      <point x="1173" y="1373" type="curve"/>
      <point x="1302" y="1512" type="line" smooth="yes"/>
      <point x="1312" y="1522"/>
      <point x="1316" y="1535"/>
      <point x="1316" y="1547" type="curve" smooth="yes"/>
      <point x="1316" y="1560"/>
      <point x="1312" y="1573"/>
      <point x="1302" y="1583" type="curve" smooth="yes"/>
      <point x="1301" y="1583"/>
      <point x="1296" y="1588"/>
      <point x="1269" y="1615" type="curve" smooth="yes"/>
      <point x="1259" y="1625"/>
      <point x="1246" y="1630"/>
      <point x="1233" y="1630" type="curve" smooth="yes"/>
      <point x="1219" y="1630"/>
      <point x="1206" y="1625"/>
      <point x="1196" y="1614" type="curve" smooth="yes"/>
      <point x="1032" y="1438" type="line"/>
      <point x="908" y="1489"/>
      <point x="782" y="1526"/>
      <point x="670" y="1546" type="curve" smooth="yes"/>
      <point x="663" y="1547"/>
      <point x="657" y="1548"/>
      <point x="652" y="1548" type="curve" smooth="yes"/>
      <point x="627" y="1548"/>
      <point x="623" y="1535"/>
      <point x="615" y="1515" type="curve" smooth="yes"/>
      <point x="582" y="1433" type="line" smooth="yes"/>
      <point x="580" y="1427"/>
      <point x="579" y="1421"/>
      <point x="579" y="1416" type="curve" smooth="yes"/>
      <point x="579" y="1398"/>
      <point x="593" y="1387"/>
      <point x="610" y="1379" type="curve"/>
      <point x="700" y="1346"/>
      <point x="794" y="1314"/>
      <point x="885" y="1279" type="curve"/>
      <point x="735" y="1117" type="line" smooth="yes"/>
      <point x="725" y="1107"/>
      <point x="720" y="1094"/>
      <point x="720" y="1081" type="curve" smooth="yes"/>
      <point x="720" y="1067"/>
      <point x="727" y="1053"/>
      <point x="736" y="1044" type="curve" smooth="yes"/>
      <point x="767" y="1015" type="line" smooth="yes"/>
      <point x="777" y="1005"/>
      <point x="790" y="1000"/>
      <point x="803" y="1000" type="curve" smooth="yes"/>
      <point x="817" y="1000"/>
      <point x="830" y="1005"/>
      <point x="840" y="1016" type="curve" smooth="yes"/>
      <point x="1029" y="1219" type="line"/>
      <point x="1238" y="1123"/>
      <point x="1417" y="993"/>
      <point x="1491" y="762" type="curve"/>
      <point x="1425" y="837"/>
      <point x="1233" y="896"/>
      <point x="910" y="896" type="curve" smooth="yes"/>
      <point x="293" y="896"/>
      <point x="128" y="683"/>
      <point x="128" y="426" type="curve" smooth="yes"/>
      <point x="128" y="61"/>
      <point x="488" y="-42"/>
    </contour>
    <contour>
      <point x="949" y="134" type="curve" smooth="yes"/>
      <point x="559" y="134"/>
      <point x="357" y="190"/>
      <point x="357" y="434" type="curve" smooth="yes"/>
      <point x="357" y="606"/>
      <point x="465" y="735"/>
      <point x="937" y="735" type="curve" smooth="yes"/>
      <point x="1239" y="735"/>
      <point x="1502" y="704"/>
      <point x="1502" y="458" type="curve" smooth="yes"/>
      <point x="1502" y="258"/>
      <point x="1314" y="134"/>
    </contour>
  </outline>
</glyph>
<glyph name="oslash" format="1">
  <advance width="1650"/>
  <unicode hex="00F8"/>
  <outline>
    <contour>
      <point x="571" y="-202" type="line" smooth="yes"/>
      <point x="589" y="-202"/>
      <point x="608" y="-189"/>
      <point x="616" y="-169" type="curve" smooth="yes"/>
      <point x="674" y="-29" type="line"/>
      <point x="727" y="-37"/>
      <point x="779" y="-41"/>
      <point x="828" y="-41" type="curve" smooth="yes"/>
      <point x="1122" y="-41"/>
      <point x="1522" y="107"/>
      <point x="1522" y="504" type="curve" smooth="yes"/>
      <point x="1522" y="796"/>
      <point x="1332" y="951"/>
      <point x="1106" y="1015" type="curve"/>
      <point x="1167" y="1164" type="line" smooth="yes"/>
      <point x="1173" y="1179"/>
      <point x="1164" y="1197"/>
      <point x="1150" y="1197" type="curve" smooth="yes"/>
      <point x="1073" y="1197" type="line" smooth="yes"/>
      <point x="1054" y="1197"/>
      <point x="1037" y="1184"/>
      <point x="1029" y="1164" type="curve" smooth="yes"/>
      <point x="978" y="1042" type="line"/>
      <point x="928" y="1049"/>
      <point x="878" y="1052"/>
      <point x="828" y="1052" type="curve" smooth="yes"/>
      <point x="499" y="1052"/>
      <point x="129" y="912"/>
      <point x="129" y="504" type="curve" smooth="yes"/>
      <point x="129" y="225"/>
      <point x="326" y="69"/>
      <point x="547" y="1" type="curve"/>
      <point x="477" y="-167" type="line" smooth="yes"/>
      <point x="470" y="-182"/>
      <point x="479" y="-200"/>
      <point x="494" y="-200" type="curve" smooth="yes"/>
    </contour>
    <contour>
      <point x="608" y="149" type="line"/>
      <point x="459" y="205"/>
      <point x="357" y="325"/>
      <point x="358" y="504" type="curve"/>
      <point x="357" y="786"/>
      <point x="585" y="900"/>
      <point x="827" y="900" type="curve" smooth="yes"/>
      <point x="857" y="900"/>
      <point x="888" y="898"/>
      <point x="917" y="894" type="curve"/>
    </contour>
    <contour>
      <point x="827" y="111" type="curve" smooth="yes"/>
      <point x="795" y="111"/>
      <point x="764" y="113"/>
      <point x="734" y="117" type="curve"/>
      <point x="1043" y="864" type="line"/>
      <point x="1187" y="812"/>
      <point x="1293" y="698"/>
      <point x="1293" y="504" type="curve" smooth="yes"/>
      <point x="1293" y="243"/>
      <point x="1081" y="111"/>
    </contour>
    <contour>
      <point x="825" y="1006" type="move" name="top"/>
    </contour>
  </outline>
</glyph>
<glyph name="thorn" format="1">
  <advance width="1682"/>
  <unicode hex="00FE"/>
  <outline>
    <contour>
      <point x="228" y="-427" type="curve" smooth="yes"/>
      <point x="322" y="-427" type="line" smooth="yes"/>
      <point x="365" y="-427"/>
      <point x="389" y="-403"/>
      <point x="389" y="-360" type="curve" smooth="yes"/>
      <point x="389" y="153" type="line" smooth="yes"/>
      <point x="389" y="159"/>
      <point x="391" y="161"/>
      <point x="393" y="161" type="curve" smooth="yes"/>
      <point x="395" y="161"/>
      <point x="398" y="159"/>
      <point x="400" y="156" type="curve" smooth="yes"/>
      <point x="508" y="27"/>
      <point x="678" y="-42"/>
      <point x="875" y="-42" type="curve" smooth="yes"/>
      <point x="1199" y="-42"/>
      <point x="1553" y="99"/>
      <point x="1553" y="507" type="curve" smooth="yes"/>
      <point x="1553" y="904"/>
      <point x="1187" y="1052"/>
      <point x="893" y="1052" type="curve" smooth="yes"/>
      <point x="710" y="1052"/>
      <point x="511" y="981"/>
      <point x="389" y="844" type="curve" smooth="yes"/>
      <point x="385" y="839"/>
      <point x="382" y="838"/>
      <point x="380" y="838" type="curve" smooth="yes"/>
      <point x="370" y="838"/>
      <point x="368" y="863"/>
      <point x="368" y="883" type="curve" smooth="yes"/>
      <point x="368" y="1009"/>
      <point x="366" y="1340"/>
      <point x="366" y="1360" type="curve" smooth="yes"/>
      <point x="366" y="1428"/>
      <point x="349" y="1438"/>
      <point x="318" y="1438" type="curve" smooth="yes"/>
      <point x="214" y="1438" type="line" smooth="yes"/>
      <point x="171" y="1438"/>
      <point x="161" y="1414"/>
      <point x="161" y="1371" type="curve" smooth="yes"/>
      <point x="161" y="-360" type="line" smooth="yes"/>
      <point x="161" y="-403"/>
      <point x="185" y="-427"/>
    </contour>
    <contour>
      <point x="858" y="110" type="curve" smooth="yes"/>
      <point x="614" y="110"/>
      <point x="389" y="242"/>
      <point x="389" y="509" type="curve" smooth="yes"/>
      <point x="389" y="766"/>
      <point x="601" y="900"/>
      <point x="858" y="900" type="curve" smooth="yes"/>
      <point x="1112" y="900"/>
      <point x="1324" y="768"/>
      <point x="1324" y="507" type="curve" smooth="yes"/>
      <point x="1324" y="223"/>
      <point x="1096" y="110"/>
    </contour>
  </outline>
</glyph>
<glyph name="dcroat" format="1">
  <advance width="1681"/>
  <unicode hex="0111"/>
  <outline>
    <contour>
      <point x="789" y="-41" type="curve" smooth="yes"/>
      <point x="985" y="-41"/>
      <point x="1199" y="41"/>
      <point x="1316" y="197" type="curve" smooth="yes"/>
      <point x="1322" y="204"/>
      <point x="1326" y="207"/>
      <point x="1330" y="207" type="curve" smooth="yes"/>
      <point x="1336" y="207"/>
      <point x="1340" y="200"/>
      <point x="1342" y="194" type="curve" smooth="yes"/>
      <point x="1355" y="153"/>
      <point x="1368" y="110"/>
      <point x="1386" y="71" type="curve"/>
      <point x="1406" y="31"/>
      <point x="1428" y="0"/>
      <point x="1454" y="0" type="curve" smooth="yes"/>
      <point x="1468" y="0" type="line" smooth="yes"/>
      <point x="1511" y="0"/>
      <point x="1521" y="24"/>
      <point x="1521" y="67" type="curve" smooth="yes"/>
      <point x="1521" y="1158" type="line"/>
      <point x="1622" y="1158" type="line" smooth="yes"/>
      <point x="1665" y="1158"/>
      <point x="1679" y="1182"/>
      <point x="1679" y="1225" type="curve" smooth="yes"/>
      <point x="1679" y="1248" type="line" smooth="yes"/>
      <point x="1679" y="1291"/>
      <point x="1665" y="1315"/>
      <point x="1622" y="1315" type="curve" smooth="yes"/>
      <point x="1521" y="1315" type="line"/>
      <point x="1521" y="1371" type="line" smooth="yes"/>
      <point x="1521" y="1414"/>
      <point x="1497" y="1438"/>
      <point x="1454" y="1438" type="curve" smooth="yes"/>
      <point x="1360" y="1438" type="line" smooth="yes"/>
      <point x="1317" y="1438"/>
      <point x="1293" y="1414"/>
      <point x="1293" y="1371" type="curve" smooth="yes"/>
      <point x="1293" y="1315" type="line"/>
      <point x="936" y="1315" type="line" smooth="yes"/>
      <point x="893" y="1315"/>
      <point x="879" y="1291"/>
      <point x="879" y="1248" type="curve" smooth="yes"/>
      <point x="879" y="1225" type="line" smooth="yes"/>
      <point x="879" y="1182"/>
      <point x="893" y="1158"/>
      <point x="936" y="1158" type="curve" smooth="yes"/>
      <point x="1293" y="1158" type="line"/>
      <point x="1293" y="865" type="line"/>
      <point x="1291" y="858"/>
      <point x="1290" y="856"/>
      <point x="1288" y="856" type="curve" smooth="yes"/>
      <point x="1286" y="856"/>
      <point x="1284" y="858"/>
      <point x="1282" y="860" type="curve" smooth="yes"/>
      <point x="1175" y="990"/>
      <point x="1004" y="1053"/>
      <point x="807" y="1053" type="curve" smooth="yes"/>
      <point x="483" y="1053"/>
      <point x="129" y="912"/>
      <point x="129" y="504" type="curve" smooth="yes"/>
      <point x="129" y="107"/>
      <point x="495" y="-41"/>
    </contour>
    <contour>
      <point x="824" y="119" type="curve" smooth="yes"/>
      <point x="570" y="119"/>
      <point x="358" y="243"/>
      <point x="358" y="504" type="curve" smooth="yes"/>
      <point x="358" y="788"/>
      <point x="586" y="893"/>
      <point x="824" y="893" type="curve" smooth="yes"/>
      <point x="1066" y="893"/>
      <point x="1294" y="786"/>
      <point x="1293" y="504" type="curve"/>
      <point x="1294" y="246"/>
      <point x="1082" y="119"/>
    </contour>
  </outline>
</glyph>
<glyph name="Hbar" format="1">
  <advance width="2048"/>
  <unicode hex="0126"/>
  <outline>
    <contour>
      <point x="227" y="0" type="curve" smooth="yes"/>
      <point x="321" y="0" type="line" smooth="yes"/>
      <point x="364" y="0"/>
      <point x="388" y="24"/>
      <point x="388" y="67" type="curve" smooth="yes"/>
      <point x="388" y="647" type="line"/>
      <point x="404" y="663" type="line"/>
      <point x="1644" y="663" type="line"/>
      <point x="1660" y="645" type="line"/>
      <point x="1660" y="67" type="line" smooth="yes"/>
      <point x="1660" y="24"/>
      <point x="1684" y="0"/>
      <point x="1727" y="0" type="curve" smooth="yes"/>
      <point x="1821" y="0" type="line" smooth="yes"/>
      <point x="1864" y="0"/>
      <point x="1888" y="24"/>
      <point x="1888" y="67" type="curve" smooth="yes"/>
      <point x="1888" y="1082" type="line"/>
      <point x="2003" y="1082" type="line" smooth="yes"/>
      <point x="2046" y="1082"/>
      <point x="2050" y="1100"/>
      <point x="2050" y="1143" type="curve" smooth="yes"/>
      <point x="2050" y="1154" type="line" smooth="yes"/>
      <point x="2050" y="1197"/>
      <point x="2046" y="1214"/>
      <point x="2003" y="1214" type="curve" smooth="yes"/>
      <point x="1888" y="1214" type="line"/>
      <point x="1888" y="1371" type="line" smooth="yes"/>
      <point x="1888" y="1414"/>
      <point x="1864" y="1438"/>
      <point x="1821" y="1438" type="curve" smooth="yes"/>
      <point x="1727" y="1438" type="line" smooth="yes"/>
      <point x="1684" y="1438"/>
      <point x="1660" y="1414"/>
      <point x="1660" y="1371" type="curve" smooth="yes"/>
      <point x="1660" y="1214" type="line"/>
      <point x="388" y="1214" type="line"/>
      <point x="388" y="1371" type="line" smooth="yes"/>
      <point x="388" y="1414"/>
      <point x="364" y="1438"/>
      <point x="321" y="1438" type="curve" smooth="yes"/>
      <point x="227" y="1438" type="line" smooth="yes"/>
      <point x="184" y="1438"/>
      <point x="160" y="1414"/>
      <point x="160" y="1371" type="curve" smooth="yes"/>
      <point x="160" y="1214" type="line"/>
      <point x="53" y="1214" type="line" smooth="yes"/>
      <point x="10" y="1214"/>
      <point x="6" y="1197"/>
      <point x="6" y="1154" type="curve" smooth="yes"/>
      <point x="6" y="1143" type="line" smooth="yes"/>
      <point x="6" y="1100"/>
      <point x="10" y="1082"/>
      <point x="53" y="1082" type="curve" smooth="yes"/>
      <point x="160" y="1082" type="line"/>
      <point x="160" y="67" type="line" smooth="yes"/>
      <point x="160" y="24"/>
      <point x="184" y="0"/>
    </contour>
    <contour>
      <point x="402" y="823" type="line"/>
      <point x="388" y="838" type="line"/>
      <point x="388" y="1082" type="line"/>
      <point x="1660" y="1082" type="line"/>
      <point x="1660" y="841" type="line"/>
      <point x="1642" y="823" type="line"/>
    </contour>
  </outline>
</glyph>
<glyph name="hbar" format="1">
  <advance width="1548"/>
  <unicode hex="0127"/>
  <outline>
    <contour>
      <point x="227" y="0" type="curve" smooth="yes"/>
      <point x="322" y="0" type="line" smooth="yes"/>
      <point x="365" y="0"/>
      <point x="388" y="24"/>
      <point x="388" y="67" type="curve" smooth="yes"/>
      <point x="388" y="606" type="line" smooth="yes"/>
      <point x="388" y="739"/>
      <point x="645" y="900"/>
      <point x="842" y="900" type="curve" smooth="yes"/>
      <point x="1028" y="900"/>
      <point x="1177" y="831"/>
      <point x="1177" y="606" type="curve" smooth="yes"/>
      <point x="1177" y="67" type="line" smooth="yes"/>
      <point x="1177" y="24"/>
      <point x="1201" y="0"/>
      <point x="1244" y="0" type="curve" smooth="yes"/>
      <point x="1338" y="0" type="line" smooth="yes"/>
      <point x="1381" y="0"/>
      <point x="1405" y="24"/>
      <point x="1405" y="67" type="curve" smooth="yes"/>
      <point x="1405" y="552" type="line" smooth="yes"/>
      <point x="1405" y="888"/>
      <point x="1197" y="1052"/>
      <point x="885" y="1052" type="curve" smooth="yes"/>
      <point x="704" y="1052"/>
      <point x="527" y="993"/>
      <point x="398" y="848" type="curve"/>
      <point x="388" y="854" type="line"/>
      <point x="388" y="1158" type="line"/>
      <point x="647" y="1158" type="line" smooth="yes"/>
      <point x="690" y="1158"/>
      <point x="704" y="1182"/>
      <point x="704" y="1225" type="curve" smooth="yes"/>
      <point x="704" y="1248" type="line" smooth="yes"/>
      <point x="704" y="1291"/>
      <point x="690" y="1315"/>
      <point x="647" y="1315" type="curve" smooth="yes"/>
      <point x="388" y="1315" type="line"/>
      <point x="388" y="1371" type="line" smooth="yes"/>
      <point x="388" y="1414"/>
      <point x="364" y="1438"/>
      <point x="321" y="1438" type="curve" smooth="yes"/>
      <point x="227" y="1438" type="line" smooth="yes"/>
      <point x="184" y="1438"/>
      <point x="160" y="1414"/>
      <point x="160" y="1371" type="curve" smooth="yes"/>
      <point x="160" y="1315" type="line"/>
      <point x="57" y="1315" type="line" smooth="yes"/>
      <point x="14" y="1315"/>
      <point x="0" y="1291"/>
      <point x="0" y="1248" type="curve" smooth="yes"/>
      <point x="0" y="1225" type="line" smooth="yes"/>
      <point x="0" y="1182"/>
      <point x="14" y="1158"/>
      <point x="57" y="1158" type="curve" smooth="yes"/>
      <point x="160" y="1158" type="line"/>
      <point x="160" y="67" type="line" smooth="yes"/>
      <point x="160" y="24"/>
      <point x="184" y="0"/>
    </contour>
  </outline>
</glyph>
<glyph name="dotlessi" format="1">
  <advance width="547"/>
  <unicode hex="0131"/>
  <outline>
    <contour>
      <point x="227" y="0" type="curve" smooth="yes"/>
      <point x="321" y="0" type="line" smooth="yes"/>
      <point x="364" y="0"/>
      <point x="388" y="24"/>
      <point x="388" y="67" type="curve" smooth="yes"/>
      <point x="388" y="939" type="line" smooth="yes"/>
      <point x="388" y="982"/>
      <point x="364" y="1006"/>
      <point x="321" y="1006" type="curve" smooth="yes"/>
      <point x="227" y="1006" type="line" smooth="yes"/>
      <point x="184" y="1006"/>
      <point x="160" y="982"/>
      <point x="160" y="939" type="curve" smooth="yes"/>
      <point x="160" y="67" type="line" smooth="yes"/>
      <point x="160" y="24"/>
      <point x="184" y="0"/>
    </contour>
    <contour>
      <point x="274" y="1006" type="move" name="top"/>
    </contour>
    <contour>
      <point x="492" y="10" type="move" name="ogonek"/>
    </contour>
  </outline>
</glyph>
<glyph name="kgreenlandic" format="1">
  <advance width="1707"/>
  <unicode hex="0138"/>
  <outline>
    <contour>
      <point x="227" y="0" type="curve" smooth="yes"/>
      <point x="321" y="0" type="line" smooth="yes"/>
      <point x="364" y="0"/>
      <point x="388" y="24"/>
      <point x="388" y="67" type="curve" smooth="yes"/>
      <point x="388" y="288" type="line" smooth="yes"/>
      <point x="388" y="299"/>
      <point x="393" y="305"/>
      <point x="401" y="310" type="curve" smooth="yes"/>
      <point x="404" y="312"/>
      <point x="608" y="429"/>
      <point x="677" y="468" type="curve"/>
      <point x="683" y="472"/>
      <point x="688" y="473"/>
      <point x="691" y="473" type="curve" smooth="yes"/>
      <point x="699" y="473"/>
      <point x="703" y="468"/>
      <point x="707" y="465" type="curve" smooth="yes"/>
      <point x="1249" y="67" type="line" smooth="yes"/>
      <point x="1297" y="31"/>
      <point x="1338" y="0"/>
      <point x="1381" y="0" type="curve" smooth="yes"/>
      <point x="1545" y="0" type="line" smooth="yes"/>
      <point x="1568" y="0"/>
      <point x="1581" y="9"/>
      <point x="1581" y="22" type="curve" smooth="yes"/>
      <point x="1581" y="34"/>
      <point x="1570" y="50"/>
      <point x="1547" y="67" type="curve" smooth="yes"/>
      <point x="879" y="548" type="line"/>
      <point x="877" y="549"/>
      <point x="872" y="552"/>
      <point x="872" y="556" type="curve" smooth="yes"/>
      <point x="872" y="559"/>
      <point x="873" y="561"/>
      <point x="878" y="564" type="curve" smooth="yes"/>
      <point x="1483" y="939" type="line" smooth="yes"/>
      <point x="1515" y="958"/>
      <point x="1529" y="976"/>
      <point x="1529" y="989" type="curve" smooth="yes"/>
      <point x="1529" y="999"/>
      <point x="1519" y="1006"/>
      <point x="1499" y="1006" type="curve" smooth="yes"/>
      <point x="1305" y="1006" type="line" smooth="yes"/>
      <point x="1262" y="1006"/>
      <point x="1213" y="975"/>
      <point x="1155" y="939" type="curve" smooth="yes"/>
      <point x="401" y="474" type="line"/>
      <point x="399" y="472"/>
      <point x="396" y="472"/>
      <point x="395" y="472" type="curve" smooth="yes"/>
      <point x="390" y="472"/>
      <point x="388" y="475"/>
      <point x="388" y="481" type="curve" smooth="yes"/>
      <point x="388" y="939" type="line" smooth="yes"/>
      <point x="388" y="982"/>
      <point x="364" y="1006"/>
      <point x="321" y="1006" type="curve" smooth="yes"/>
      <point x="227" y="1006" type="line" smooth="yes"/>
      <point x="184" y="1006"/>
      <point x="160" y="982"/>
      <point x="160" y="939" type="curve" smooth="yes"/>
      <point x="160" y="67" type="line" smooth="yes"/>
      <point x="160" y="24"/>
      <point x="184" y="0"/>
    </contour>
  </outline>
</glyph>
<glyph name="Lslash" format="1">
  <advance width="1358"/>
  <unicode hex="0141"/>
  <outline>
    <contour>
      <point x="227" y="0" type="curve" smooth="yes"/>
      <point x="1181" y="0" type="line" smooth="yes"/>
      <point x="1224" y="0"/>
      <point x="1248" y="24"/>
      <point x="1248" y="67" type="curve" smooth="yes"/>
      <point x="1248" y="94" type="line" smooth="yes"/>
      <point x="1248" y="137"/>
      <point x="1224" y="160"/>
      <point x="1181" y="160" type="curve" smooth="yes"/>
      <point x="425" y="160" type="line" smooth="yes"/>
      <point x="405" y="160"/>
      <point x="388" y="177"/>
      <point x="388" y="197" type="curve" smooth="yes"/>
      <point x="388" y="725.02" type="line"/>
      <point x="744" y="834" type="line" smooth="yes"/>
      <point x="784.259" y="846.324"/>
      <point x="801" y="858"/>
      <point x="801" y="901" type="curve" smooth="yes"/>
      <point x="801" y="924" type="line" smooth="yes"/>
      <point x="801" y="967"/>
      <point x="786.214" y="1003.92"/>
      <point x="744" y="991" type="curve" smooth="yes"/>
      <point x="388" y="882.02" type="line"/>
      <point x="388" y="1371" type="line" smooth="yes"/>
      <point x="388" y="1414"/>
      <point x="364" y="1438"/>
      <point x="321" y="1438" type="curve" smooth="yes"/>
      <point x="227" y="1438" type="line" smooth="yes"/>
      <point x="184" y="1438"/>
      <point x="160" y="1414"/>
      <point x="160" y="1371" type="curve" smooth="yes"/>
      <point x="160" y="812.224" type="line"/>
      <point x="58" y="781" type="line"/>
      <point x="16.124" y="771.232"/>
      <point x="1" y="757"/>
      <point x="1" y="714" type="curve" smooth="yes"/>
      <point x="1" y="691" type="line" smooth="yes"/>
      <point x="1" y="648"/>
      <point x="16.7875" y="614.388"/>
      <point x="58" y="624" type="curve"/>
      <point x="160" y="655.224" type="line"/>
      <point x="160" y="67" type="line" smooth="yes"/>
      <point x="160" y="24"/>
      <point x="184" y="0"/>
    </contour>
  </outline>
</glyph>
<glyph name="lslash" format="1">
  <advance width="693"/>
  <unicode hex="0142"/>
  <outline>
    <contour>
      <point x="284" y="0" type="curve" smooth="yes"/>
      <point x="378" y="0" type="line" smooth="yes"/>
      <point x="421" y="0"/>
      <point x="445" y="24"/>
      <point x="445" y="67" type="curve" smooth="yes"/>
      <point x="445" y="738.059" type="line"/>
      <point x="600" y="788" type="line" smooth="yes"/>
      <point x="640.259" y="800.324"/>
      <point x="657" y="812"/>
      <point x="657" y="855" type="curve" smooth="yes"/>
      <point x="657" y="878" type="line" smooth="yes"/>
      <point x="657" y="921"/>
      <point x="642.214" y="957.923"/>
      <point x="600" y="945" type="curve" smooth="yes"/>
      <point x="445" y="895.059" type="line"/>
      <point x="445" y="1371" type="line" smooth="yes"/>
      <point x="445" y="1414"/>
      <point x="421" y="1438"/>
      <point x="378" y="1438" type="curve" smooth="yes"/>
      <point x="284" y="1438" type="line" smooth="yes"/>
      <point x="241" y="1438"/>
      <point x="217" y="1414"/>
      <point x="217" y="1371" type="curve" smooth="yes"/>
      <point x="217" y="821.598" type="line"/>
      <point x="91" y="781" type="line" smooth="yes"/>
      <point x="50.0732" y="767.813"/>
      <point x="34" y="757"/>
      <point x="34" y="714" type="curve" smooth="yes"/>
      <point x="34" y="691" type="line" smooth="yes"/>
      <point x="34" y="648"/>
      <point x="50.7188" y="611.021"/>
      <point x="91" y="624" type="curve" smooth="yes"/>
      <point x="217" y="664.598" type="line"/>
      <point x="217" y="67" type="line" smooth="yes"/>
      <point x="217" y="24"/>
      <point x="241" y="0"/>
    </contour>
  </outline>
</glyph>
<glyph name="Eng" format="1">
  <advance width="2048"/>
  <unicode hex="014A"/>
  <outline>
    <contour>
      <point x="968" y="-588" type="curve" smooth="yes"/>
      <point x="1429" y="-588"/>
      <point x="1888" y="-515"/>
      <point x="1888" y="104" type="curve" smooth="yes"/>
      <point x="1888" y="1371" type="line" smooth="yes"/>
      <point x="1888" y="1414"/>
      <point x="1864" y="1438"/>
      <point x="1821" y="1438" type="curve" smooth="yes"/>
      <point x="1727" y="1438" type="line" smooth="yes"/>
      <point x="1684" y="1438"/>
      <point x="1660" y="1414"/>
      <point x="1660" y="1371" type="curve" smooth="yes"/>
      <point x="1660" y="400" type="line"/>
      <point x="1647" y="387" type="line"/>
      <point x="371" y="1420" type="line"/>
      <point x="360" y="1432"/>
      <point x="343" y="1438"/>
      <point x="321" y="1438" type="curve" smooth="yes"/>
      <point x="227" y="1438" type="line" smooth="yes"/>
      <point x="184" y="1438"/>
      <point x="160" y="1414"/>
      <point x="160" y="1371" type="curve" smooth="yes"/>
      <point x="160" y="67" type="line" smooth="yes"/>
      <point x="160" y="24"/>
      <point x="184" y="0"/>
      <point x="227" y="0" type="curve" smooth="yes"/>
      <point x="321" y="0" type="line" smooth="yes"/>
      <point x="364" y="0"/>
      <point x="388" y="24"/>
      <point x="388" y="67" type="curve" smooth="yes"/>
      <point x="388" y="1113" type="line"/>
      <point x="402" y="1122" type="line"/>
      <point x="1660" y="112" type="line"/>
      <point x="1660" y="104" type="line" smooth="yes"/>
      <point x="1660" y="-386"/>
      <point x="1358" y="-412"/>
      <point x="968" y="-412" type="curve" smooth="yes"/>
      <point x="955" y="-412"/>
      <point x="937" y="-426"/>
      <point x="937" y="-466" type="curve" smooth="yes"/>
      <point x="937" y="-535" type="line" smooth="yes"/>
      <point x="937" y="-570"/>
      <point x="953" y="-588"/>
    </contour>
    <contour>
      <point x="594.0" y="1438.0" type="move" name="top"/>
    </contour>
  </outline>
</glyph>
<glyph name="eng" format="1">
  <advance width="1543"/>
  <unicode hex="014B"/>
  <outline>
    <contour>
      <point x="883.0" y="-381.0" type="curve" smooth="yes"/>
      <point x="974.0" y="-381.0" type="line" smooth="yes"/>
      <point x="1280.0" y="-381.0"/>
      <point x="1398.0" y="-259.0"/>
      <point x="1400.0" y="6.0" type="curve" smooth="yes"/>
      <point x="1400.0" y="552.0" type="line" smooth="yes"/>
      <point x="1400.0" y="888.0"/>
      <point x="1189.0" y="1052.0"/>
      <point x="877.0" y="1052.0" type="curve" smooth="yes"/>
      <point x="687.0" y="1052.0"/>
      <point x="501.0" y="987.0"/>
      <point x="371.0" y="826.0" type="curve" smooth="yes"/>
      <point x="365.0" y="819.0"/>
      <point x="359.0" y="811.0"/>
      <point x="351.0" y="811.0" type="curve" smooth="yes"/>
      <point x="343.0" y="811.0"/>
      <point x="341.0" y="816.0"/>
      <point x="336.0" y="824.0" type="curve"/>
      <point x="309.0" y="942.0" type="line" smooth="yes"/>
      <point x="298.0" y="992.0"/>
      <point x="276.0" y="1006.0"/>
      <point x="229.0" y="1006.0" type="curve" smooth="yes"/>
      <point x="209.0" y="1006.0" type="line" smooth="yes"/>
      <point x="166.0" y="1006.0"/>
      <point x="152.0" y="972.0"/>
      <point x="152.0" y="929.0" type="curve" smooth="yes"/>
      <point x="152.0" y="67.0" type="line" smooth="yes"/>
      <point x="152.0" y="24.0"/>
      <point x="176.0" y="0.0"/>
      <point x="219.0" y="0.0" type="curve" smooth="yes"/>
      <point x="314.0" y="0.0" type="line" smooth="yes"/>
      <point x="357.0" y="0.0"/>
      <point x="380.0" y="24.0"/>
      <point x="380.0" y="67.0" type="curve" smooth="yes"/>
      <point x="380.0" y="606.0" type="line" smooth="yes"/>
      <point x="380.0" y="739.0"/>
      <point x="637.0" y="901.0"/>
      <point x="834.0" y="901.0" type="curve" smooth="yes"/>
      <point x="1020.0" y="901.0"/>
      <point x="1172.0" y="831.0"/>
      <point x="1172.0" y="606.0" type="curve" smooth="yes"/>
      <point x="1172.0" y="67.0" type="line" smooth="yes"/>
      <point x="1172.0" y="-103.0"/>
      <point x="1169.0" y="-205.0"/>
      <point x="1007.0" y="-205.0" type="curve" smooth="yes"/>
      <point x="883.0" y="-205.0" type="line" smooth="yes"/>
      <point x="840.0" y="-205.0"/>
      <point x="824.0" y="-223.0"/>
      <point x="824.0" y="-266.0" type="curve" smooth="yes"/>
      <point x="824.0" y="-314.0" type="line" smooth="yes"/>
      <point x="824.0" y="-357.0"/>
      <point x="840.0" y="-381.0"/>
    </contour>
  </outline>
</glyph>
<glyph name="dotlessj" format="1">
  <advance width="786"/>
  <unicode hex="0237"/>
  <outline>
    <contour>
      <point x="109" y="-381" type="curve" smooth="yes"/>
      <point x="200" y="-381" type="line" smooth="yes"/>
      <point x="506" y="-381"/>
      <point x="624" y="-259"/>
      <point x="626" y="6" type="curve"/>
      <point x="626" y="939" type="line" smooth="yes"/>
      <point x="626" y="982"/>
      <point x="602" y="1006"/>
      <point x="559" y="1006" type="curve" smooth="yes"/>
      <point x="465" y="1006" type="line" smooth="yes"/>
      <point x="422" y="1006"/>
      <point x="398" y="982"/>
      <point x="398" y="939" type="curve" smooth="yes"/>
      <point x="398" y="91" type="line" smooth="yes"/>
      <point x="398" y="-95"/>
      <point x="402" y="-205"/>
      <point x="233" y="-205" type="curve" smooth="yes"/>
      <point x="109" y="-205" type="line" smooth="yes"/>
      <point x="66" y="-205"/>
      <point x="50" y="-223"/>
      <point x="50" y="-266" type="curve" smooth="yes"/>
      <point x="50" y="-314" type="line" smooth="yes"/>
      <point x="50" y="-357"/>
      <point x="66" y="-381"/>
    </contour>
    <contour>
      <point x="393" y="1006" type="move" name="top"/>
    </contour>
  </outline>
</glyph>
<glyph name="circumflex" format="1">
  <advance width="849"/>
  <unicode hex="02C6"/>
  <outline>
    <contour>
      <point x="101" y="1217" type="curve" smooth="yes"/>
      <point x="134" y="1217" type="line" smooth="yes"/>
      <point x="180" y="1217"/>
      <point x="238" y="1232"/>
      <point x="278" y="1255" type="curve"/>
      <point x="388" y="1323" type="line" smooth="yes"/>
      <point x="398" y="1329"/>
      <point x="409" y="1331"/>
      <point x="420" y="1331" type="curve" smooth="yes"/>
      <point x="431" y="1331"/>
      <point x="443" y="1329"/>
      <point x="452" y="1323" type="curve" smooth="yes"/>
      <point x="561" y="1255" type="line"/>
      <point x="601" y="1232"/>
      <point x="659" y="1217"/>
      <point x="705" y="1217" type="curve" smooth="yes"/>
      <point x="738" y="1217" type="line" smooth="yes"/>
      <point x="756" y="1217"/>
      <point x="768" y="1231"/>
      <point x="768" y="1247" type="curve" smooth="yes"/>
      <point x="768" y="1254"/>
      <point x="765" y="1263"/>
      <point x="758" y="1269" type="curve" smooth="yes"/>
      <point x="595" y="1424" type="line" smooth="yes"/>
      <point x="560" y="1456"/>
      <point x="508" y="1476"/>
      <point x="461" y="1476" type="curve" smooth="yes"/>
      <point x="378" y="1476" type="line" smooth="yes"/>
      <point x="331" y="1476"/>
      <point x="279" y="1456"/>
      <point x="244" y="1424" type="curve" smooth="yes"/>
      <point x="81" y="1269" type="line" smooth="yes"/>
      <point x="74" y="1263"/>
      <point x="71" y="1254"/>
      <point x="71" y="1247" type="curve" smooth="yes"/>
      <point x="71" y="1231"/>
      <point x="83" y="1217"/>
    </contour>
    <contour>
      <point x="419.5" y="1006" type="move" name="_top"/>
    </contour>
  </outline>
</glyph>
<glyph name="dotaccent" format="1">
  <advance width="546"/>
  <unicode hex="02D9"/>
  <outline>
    <contour>
      <point x="205" y="1338.4" type="curve" smooth="yes"/>
      <point x="342" y="1338.4" type="line" smooth="yes"/>
      <point x="385" y="1338.4"/>
      <point x="419" y="1372.4"/>
      <point x="419" y="1415.4" type="curve" smooth="yes"/>
      <point x="419" y="1559.4" type="line" smooth="yes"/>
      <point x="419" y="1602.4"/>
      <point x="385" y="1636.4"/>
      <point x="342" y="1636.4" type="curve" smooth="yes"/>
      <point x="205" y="1636.4" type="line" smooth="yes"/>
      <point x="162" y="1636.4"/>
      <point x="128" y="1602.4"/>
      <point x="128" y="1559.4" type="curve" smooth="yes"/>
      <point x="128" y="1415.4" type="line" smooth="yes"/>
      <point x="128" y="1372.4"/>
      <point x="162" y="1338.4"/>
    </contour>
    <contour>
      <point x="273.5" y="1006" type="move" name="_top"/>
    </contour>
  </outline>
</glyph>
<glyph name="hungarumlaut" format="1">
  <advance width="1745"/>
  <unicode hex="02DD"/>
  <outline>
    <contour>
      <point x="662.5" y="1442.4" type="curve" smooth="yes"/>
      <point x="682.5" y="1442.4" type="line" smooth="yes"/>
      <point x="720.5" y="1442.4"/>
      <point x="723.5" y="1457.4"/>
      <point x="738.5" y="1481.4" type="curve" smooth="yes"/>
      <point x="940.5" y="1809.4" type="line" smooth="yes"/>
      <point x="947.5" y="1821.4"/>
      <point x="952.5" y="1835.4"/>
      <point x="952.5" y="1846.4" type="curve" smooth="yes"/>
      <point x="952.5" y="1862.4"/>
      <point x="944.5" y="1874.4"/>
      <point x="924.5" y="1874.4" type="curve" smooth="yes"/>
      <point x="758.5" y="1874.4" type="line" smooth="yes"/>
      <point x="714.5" y="1874.4"/>
      <point x="695.5" y="1862.4"/>
      <point x="687.5" y="1819.4" type="curve" smooth="yes"/>
      <point x="624.5" y="1509.4" type="line" smooth="yes"/>
      <point x="621.5" y="1495.4"/>
      <point x="620.5" y="1483.4"/>
      <point x="620.5" y="1474.4" type="curve" smooth="yes"/>
      <point x="620.5" y="1447.4"/>
      <point x="633.5" y="1442.4"/>
    </contour>
    <contour>
      <point x="1025.5" y="1442.4" type="curve" smooth="yes"/>
      <point x="1045.5" y="1442.4" type="line" smooth="yes"/>
      <point x="1083.5" y="1442.4"/>
      <point x="1086.5" y="1457.4"/>
      <point x="1101.5" y="1481.4" type="curve" smooth="yes"/>
      <point x="1303.5" y="1809.4" type="line" smooth="yes"/>
      <point x="1310.5" y="1821.4"/>
      <point x="1315.5" y="1835.4"/>
      <point x="1315.5" y="1846.4" type="curve" smooth="yes"/>
      <point x="1315.5" y="1862.4"/>
      <point x="1307.5" y="1874.4"/>
      <point x="1287.5" y="1874.4" type="curve" smooth="yes"/>
      <point x="1121.5" y="1874.4" type="line" smooth="yes"/>
      <point x="1077.5" y="1874.4"/>
      <point x="1058.5" y="1862.4"/>
      <point x="1050.5" y="1819.4" type="curve" smooth="yes"/>
      <point x="987.5" y="1509.4" type="line" smooth="yes"/>
      <point x="984.5" y="1495.4"/>
      <point x="983.5" y="1483.4"/>
      <point x="983.5" y="1474.4" type="curve" smooth="yes"/>
      <point x="983.5" y="1447.4"/>
      <point x="996.5" y="1442.4"/>
    </contour>
    <contour>
      <point x="968" y="1006" type="move" name="_top"/>
    </contour>
  </outline>
</glyph>
<glyph name="uni0311" format="1">
  <advance width="1218"/>
  <unicode hex="0311"/>
  <outline>
    <contour>
      <point x="320" y="1186" type="curve"/>
      <point x="512" y="1186" type="line"/>
      <point x="512" y="1303"/>
      <point x="560" y="1353"/>
      <point x="640" y="1353" type="curve" smooth="yes"/>
      <point x="721" y="1353"/>
      <point x="768" y="1296"/>
      <point x="768" y="1186" type="curve"/>
      <point x="960" y="1186" type="line"/>
      <point x="960" y="1426"/>
      <point x="806" y="1499"/>
      <point x="640" y="1499" type="curve" smooth="yes"/>
      <point x="475" y="1499"/>
      <point x="320" y="1426"/>
    </contour>
  </outline>
</glyph>
<glyph name="quoteleft" format="1">
  <advance width="605"/>
  <unicode hex="2018"/>
  <outline>
    <contour>
      <point x="208" y="911" type="curve" smooth="yes"/>
      <point x="406" y="911" type="line" smooth="yes"/>
      <point x="449" y="911"/>
      <point x="466" y="932"/>
      <point x="466" y="975" type="curve" smooth="yes"/>
      <point x="466" y="1178" type="line" smooth="yes"/>
      <point x="466" y="1216"/>
      <point x="444" y="1228"/>
      <point x="406" y="1228" type="curve" smooth="yes"/>
      <point x="321" y="1228" type="line" smooth="yes"/>
      <point x="306" y="1228"/>
      <point x="304" y="1239"/>
      <point x="304" y="1255" type="curve" smooth="yes"/>
      <point x="304" y="1279"/>
      <point x="336" y="1356"/>
      <point x="405" y="1399" type="curve" smooth="yes"/>
      <point x="448" y="1426"/>
      <point x="466" y="1420"/>
      <point x="466" y="1474" type="curve" smooth="yes"/>
      <point x="466" y="1484" type="line" smooth="yes"/>
      <point x="466" y="1520"/>
      <point x="435" y="1535"/>
      <point x="400" y="1529" type="curve" smooth="yes"/>
      <point x="262" y="1506"/>
      <point x="131" y="1370"/>
      <point x="131" y="1133" type="curve" smooth="yes"/>
      <point x="131" y="988" type="line" smooth="yes"/>
      <point x="131" y="945"/>
      <point x="165" y="911"/>
    </contour>
  </outline>
</glyph>
<glyph name="quoteright" format="1">
  <advance width="588"/>
  <unicode hex="2019"/>
  <outline>
    <contour>
      <point x="203" y="917" type="curve" smooth="yes"/>
      <point x="341" y="940"/>
      <point x="472" y="1076"/>
      <point x="472" y="1313" type="curve" smooth="yes"/>
      <point x="472" y="1458" type="line" smooth="yes"/>
      <point x="472" y="1501"/>
      <point x="438" y="1535"/>
      <point x="395" y="1535" type="curve" smooth="yes"/>
      <point x="197" y="1535" type="line" smooth="yes"/>
      <point x="154" y="1535"/>
      <point x="137" y="1514"/>
      <point x="137" y="1471" type="curve" smooth="yes"/>
      <point x="137" y="1268" type="line" smooth="yes"/>
      <point x="137" y="1230"/>
      <point x="159" y="1218"/>
      <point x="197" y="1218" type="curve" smooth="yes"/>
      <point x="282" y="1218" type="line" smooth="yes"/>
      <point x="297" y="1218"/>
      <point x="299" y="1207"/>
      <point x="299" y="1191" type="curve" smooth="yes"/>
      <point x="299" y="1167"/>
      <point x="267" y="1090"/>
      <point x="198" y="1047" type="curve" smooth="yes"/>
      <point x="155" y="1020"/>
      <point x="137" y="1026"/>
      <point x="137" y="972" type="curve" smooth="yes"/>
      <point x="137" y="962" type="line" smooth="yes"/>
      <point x="137" y="926"/>
      <point x="168" y="911"/>
    </contour>
  </outline>
</glyph>
<glyph name="quotedblleft" format="1">
  <advance width="1107"/>
  <unicode hex="201C"/>
  <outline>
    <contour>
      <point x="225" y="911" type="curve" smooth="yes"/>
      <point x="423" y="911" type="line" smooth="yes"/>
      <point x="466" y="911"/>
      <point x="483" y="932"/>
      <point x="483" y="975" type="curve" smooth="yes"/>
      <point x="483" y="1178" type="line" smooth="yes"/>
      <point x="483" y="1216"/>
      <point x="461" y="1228"/>
      <point x="423" y="1228" type="curve" smooth="yes"/>
      <point x="338" y="1228" type="line" smooth="yes"/>
      <point x="323" y="1228"/>
      <point x="321" y="1239"/>
      <point x="321" y="1255" type="curve" smooth="yes"/>
      <point x="321" y="1279"/>
      <point x="353" y="1356"/>
      <point x="422" y="1399" type="curve" smooth="yes"/>
      <point x="465" y="1426"/>
      <point x="483" y="1420"/>
      <point x="483" y="1474" type="curve" smooth="yes"/>
      <point x="483" y="1484" type="line" smooth="yes"/>
      <point x="483" y="1520"/>
      <point x="452" y="1535"/>
      <point x="417" y="1529" type="curve" smooth="yes"/>
      <point x="279" y="1506"/>
      <point x="148" y="1370"/>
      <point x="148" y="1133" type="curve" smooth="yes"/>
      <point x="148" y="988" type="line" smooth="yes"/>
      <point x="148" y="945"/>
      <point x="182" y="911"/>
    </contour>
    <contour>
      <point x="699" y="911" type="curve" smooth="yes"/>
      <point x="897" y="911" type="line" smooth="yes"/>
      <point x="940" y="911"/>
      <point x="957" y="932"/>
      <point x="957" y="975" type="curve" smooth="yes"/>
      <point x="957" y="1178" type="line" smooth="yes"/>
      <point x="957" y="1216"/>
      <point x="935" y="1228"/>
      <point x="897" y="1228" type="curve" smooth="yes"/>
      <point x="812" y="1228" type="line" smooth="yes"/>
      <point x="797" y="1228"/>
      <point x="795" y="1239"/>
      <point x="795" y="1255" type="curve" smooth="yes"/>
      <point x="795" y="1279"/>
      <point x="827" y="1356"/>
      <point x="896" y="1399" type="curve" smooth="yes"/>
      <point x="939" y="1426"/>
      <point x="957" y="1420"/>
      <point x="957" y="1474" type="curve" smooth="yes"/>
      <point x="957" y="1484" type="line" smooth="yes"/>
      <point x="957" y="1520"/>
      <point x="926" y="1535"/>
      <point x="891" y="1529" type="curve" smooth="yes"/>
      <point x="753" y="1506"/>
      <point x="622" y="1370"/>
      <point x="622" y="1133" type="curve" smooth="yes"/>
      <point x="622" y="988" type="line" smooth="yes"/>
      <point x="622" y="945"/>
      <point x="656" y="911"/>
    </contour>
  </outline>
</glyph>
<glyph name="perthousand" format="1">
  <advance width="3587"/>
  <unicode hex="2030"/>
  <outline>
    <contour>
      <point x="893" y="-82" type="curve" smooth="yes"/>
      <point x="925" y="-82" type="line" smooth="yes"/>
      <point x="971" y="-82"/>
      <point x="1014" y="-54"/>
      <point x="1033" y="-12" type="curve" smooth="yes"/>
      <point x="1687" y="1466" type="line" smooth="yes"/>
      <point x="1702" y="1499"/>
      <point x="1678" y="1536"/>
      <point x="1641" y="1536" type="curve" smooth="yes"/>
      <point x="1610" y="1536" type="line" smooth="yes"/>
      <point x="1564" y="1536"/>
      <point x="1520" y="1508"/>
      <point x="1502" y="1466" type="curve" smooth="yes"/>
      <point x="847" y="-12" type="line" smooth="yes"/>
      <point x="832" y="-45"/>
      <point x="856" y="-82"/>
    </contour>
    <contour>
      <point x="519" y="761" type="curve" smooth="yes"/>
      <point x="353" y="761"/>
      <point x="251" y="875"/>
      <point x="251" y="1059" type="curve" smooth="yes"/>
      <point x="251" y="1247"/>
      <point x="348" y="1357"/>
      <point x="519" y="1357" type="curve" smooth="yes"/>
      <point x="699" y="1357"/>
      <point x="787" y="1247"/>
      <point x="787" y="1059" type="curve" smooth="yes"/>
      <point x="787" y="875"/>
      <point x="694" y="761"/>
    </contour>
    <contour>
      <point x="519" y="621" type="curve" smooth="yes"/>
      <point x="816" y="621"/>
      <point x="967" y="818"/>
      <point x="967" y="1056" type="curve" smooth="yes"/>
      <point x="967" y="1292"/>
      <point x="820" y="1497"/>
      <point x="519" y="1497" type="curve" smooth="yes"/>
      <point x="218" y="1497"/>
      <point x="70" y="1292"/>
      <point x="70" y="1056" type="curve" smooth="yes"/>
      <point x="70" y="818"/>
      <point x="222" y="621"/>
    </contour>
    <contour>
      <point x="2010" y="141" type="curve" smooth="yes"/>
      <point x="1844" y="141"/>
      <point x="1742" y="255"/>
      <point x="1742" y="439" type="curve" smooth="yes"/>
      <point x="1742" y="627"/>
      <point x="1839" y="737"/>
      <point x="2010" y="737" type="curve" smooth="yes"/>
      <point x="2190" y="737"/>
      <point x="2278" y="627"/>
      <point x="2278" y="439" type="curve" smooth="yes"/>
      <point x="2278" y="255"/>
      <point x="2185" y="141"/>
    </contour>
    <contour>
      <point x="2010" y="1" type="curve" smooth="yes"/>
      <point x="2307" y="1"/>
      <point x="2458" y="198"/>
      <point x="2458" y="436" type="curve" smooth="yes"/>
      <point x="2458" y="672"/>
      <point x="2311" y="877"/>
      <point x="2010" y="877" type="curve" smooth="yes"/>
      <point x="1709" y="877"/>
      <point x="1561" y="672"/>
      <point x="1561" y="436" type="curve" smooth="yes"/>
      <point x="1561" y="198"/>
      <point x="1713" y="1"/>
    </contour>
    <contour>
      <point x="3069" y="141" type="curve" smooth="yes"/>
      <point x="2903" y="141"/>
      <point x="2801" y="255"/>
      <point x="2801" y="439" type="curve" smooth="yes"/>
      <point x="2801" y="627"/>
      <point x="2898" y="737"/>
      <point x="3069" y="737" type="curve" smooth="yes"/>
      <point x="3249" y="737"/>
      <point x="3337" y="627"/>
      <point x="3337" y="439" type="curve" smooth="yes"/>
      <point x="3337" y="255"/>
      <point x="3244" y="141"/>
    </contour>
    <contour>
      <point x="3069" y="1" type="curve" smooth="yes"/>
      <point x="3366" y="1"/>
      <point x="3517" y="198"/>
      <point x="3517" y="436" type="curve" smooth="yes"/>
      <point x="3517" y="672"/>
      <point x="3370" y="877"/>
      <point x="3069" y="877" type="curve" smooth="yes"/>
      <point x="2768" y="877"/>
      <point x="2620" y="672"/>
      <point x="2620" y="436" type="curve" smooth="yes"/>
      <point x="2620" y="198"/>
      <point x="2772" y="1"/>
    </contour>
  </outline>
</glyph>
<glyph name="guilsinglright" format="1">
  <advance width="708"/>
  <unicode hex="203A"/>
  <outline>
    <contour>
      <point x="113" y="245" type="curve" smooth="yes"/>
      <point x="120" y="245"/>
      <point x="126" y="247"/>
      <point x="133" y="249" type="curve"/>
      <point x="580" y="574" type="line" smooth="yes"/>
      <point x="614" y="599"/>
      <point x="641" y="616"/>
      <point x="641" y="658" type="curve" smooth="yes"/>
      <point x="641" y="717" type="line" smooth="yes"/>
      <point x="641" y="759"/>
      <point x="614" y="776"/>
      <point x="581" y="801" type="curve" smooth="yes"/>
      <point x="132" y="1140" type="line"/>
      <point x="125" y="1142"/>
      <point x="118" y="1145"/>
      <point x="112" y="1145" type="curve" smooth="yes"/>
      <point x="91" y="1145"/>
      <point x="72" y="1128"/>
      <point x="72" y="1104" type="curve" smooth="yes"/>
      <point x="72" y="1014" type="line" smooth="yes"/>
      <point x="72" y="972"/>
      <point x="99" y="954"/>
      <point x="134" y="933" type="curve"/>
      <point x="452" y="700" type="line" smooth="yes"/>
      <point x="458" y="696"/>
      <point x="461" y="691"/>
      <point x="461" y="686" type="curve" smooth="yes"/>
      <point x="461" y="681"/>
      <point x="458" y="676"/>
      <point x="452" y="672" type="curve" smooth="yes"/>
      <point x="134" y="441" type="line"/>
      <point x="100" y="419"/>
      <point x="72" y="402"/>
      <point x="72" y="361" type="curve" smooth="yes"/>
      <point x="72" y="286" type="line" smooth="yes"/>
      <point x="72" y="262"/>
      <point x="91" y="245"/>
    </contour>
  </outline>
</glyph>
<glyph name="fraction" format="1">
  <advance width="1236"/>
  <unicode hex="2044"/>
  <outline>
    <contour>
      <point x="113" y="-205" type="curve" smooth="yes"/>
      <point x="212" y="-205" type="line" smooth="yes"/>
      <point x="234" y="-205"/>
      <point x="256" y="-192"/>
      <point x="265" y="-172" type="curve" smooth="yes"/>
      <point x="1166" y="1614" type="line" smooth="yes"/>
      <point x="1173" y="1629"/>
      <point x="1162" y="1647"/>
      <point x="1145" y="1647" type="curve" smooth="yes"/>
      <point x="1046" y="1647" type="line" smooth="yes"/>
      <point x="1024" y="1647"/>
      <point x="1002" y="1634"/>
      <point x="993" y="1614" type="curve" smooth="yes"/>
      <point x="92" y="-172" type="line" smooth="yes"/>
      <point x="85" y="-187"/>
      <point x="96" y="-205"/>
    </contour>
  </outline>
</glyph>
<glyph name="trademark" format="1">
  <advance width="4123"/>
  <unicode hex="2122"/>
  <outline>
    <contour>
      <point x="1319" y="410" type="curve" smooth="yes"/>
      <point x="1381" y="410" type="line" smooth="yes"/>
      <point x="1410" y="410"/>
      <point x="1427" y="428"/>
      <point x="1429" y="459" type="curve" smooth="yes"/>
      <point x="1491" y="1169" type="line"/>
      <point x="1498" y="1172" type="line"/>
      <point x="1877" y="459" type="line" smooth="yes"/>
      <point x="1893" y="429"/>
      <point x="1916" y="412"/>
      <point x="1944" y="410" type="curve" smooth="yes"/>
      <point x="2014" y="410" type="line" smooth="yes"/>
      <point x="2041" y="412"/>
      <point x="2066" y="429"/>
      <point x="2081" y="459" type="curve" smooth="yes"/>
      <point x="2477" y="1181" type="line"/>
      <point x="2486" y="1180" type="line"/>
      <point x="2543" y="459" type="line" smooth="yes"/>
      <point x="2545" y="428"/>
      <point x="2563" y="410"/>
      <point x="2591" y="410" type="curve" smooth="yes"/>
      <point x="2653" y="410" type="line" smooth="yes"/>
      <point x="2681" y="410"/>
      <point x="2696" y="428"/>
      <point x="2694" y="459" type="curve" smooth="yes"/>
      <point x="2622" y="1390" type="line" smooth="yes"/>
      <point x="2620" y="1420"/>
      <point x="2606" y="1436"/>
      <point x="2579" y="1438" type="curve"/>
      <point x="2508" y="1438" type="line"/>
      <point x="2482" y="1436"/>
      <point x="2457" y="1420"/>
      <point x="2442" y="1390" type="curve" smooth="yes"/>
      <point x="1988" y="563" type="line"/>
      <point x="1974" y="563" type="line"/>
      <point x="1534" y="1390" type="line" smooth="yes"/>
      <point x="1518" y="1420"/>
      <point x="1494" y="1436"/>
      <point x="1468" y="1438" type="curve"/>
      <point x="1396" y="1438" type="line"/>
      <point x="1370" y="1436"/>
      <point x="1356" y="1420"/>
      <point x="1354" y="1390" type="curve" smooth="yes"/>
      <point x="1277" y="459" type="line" smooth="yes"/>
      <point x="1275" y="428"/>
      <point x="1291" y="410"/>
    </contour>
    <contour>
      <point x="694" y="410" type="curve" smooth="yes"/>
      <point x="756" y="410" type="line" smooth="yes"/>
      <point x="785" y="410"/>
      <point x="800" y="428"/>
      <point x="800" y="459" type="curve" smooth="yes"/>
      <point x="800" y="1306" type="line" smooth="yes"/>
      <point x="800" y="1320"/>
      <point x="806" y="1324"/>
      <point x="818" y="1324" type="curve" smooth="yes"/>
      <point x="1189" y="1324" type="line" smooth="yes"/>
      <point x="1217" y="1324"/>
      <point x="1233" y="1347"/>
      <point x="1233" y="1379" type="curve" smooth="yes"/>
      <point x="1233" y="1383" type="line" smooth="yes"/>
      <point x="1233" y="1414"/>
      <point x="1217" y="1438"/>
      <point x="1189" y="1438" type="curve" smooth="yes"/>
      <point x="259" y="1438" type="line" smooth="yes"/>
      <point x="231" y="1438"/>
      <point x="215" y="1414"/>
      <point x="215" y="1383" type="curve" smooth="yes"/>
      <point x="215" y="1379" type="line" smooth="yes"/>
      <point x="215" y="1347"/>
      <point x="231" y="1324"/>
      <point x="259" y="1324" type="curve" smooth="yes"/>
      <point x="631" y="1324" type="line" smooth="yes"/>
      <point x="645" y="1324"/>
      <point x="649" y="1320"/>
      <point x="649" y="1306" type="curve" smooth="yes"/>
      <point x="649" y="459" type="line" smooth="yes"/>
      <point x="649" y="428"/>
      <point x="666" y="410"/>
    </contour>
  </outline>
</glyph>
<glyph name="minus" format="1">
  <advance width="1278"/>
  <unicode hex="2212"/>
  <outline>
    <contour>
      <point x="194" y="598" type="curve" smooth="yes"/>
      <point x="1084" y="598" type="line" smooth="yes"/>
      <point x="1127" y="598"/>
      <point x="1151" y="623"/>
      <point x="1151" y="665" type="curve" smooth="yes"/>
      <point x="1151" y="715" type="line" smooth="yes"/>
      <point x="1151" y="758"/>
      <point x="1127" y="782"/>
      <point x="1084" y="782" type="curve" smooth="yes"/>
      <point x="194" y="782" type="line" smooth="yes"/>
      <point x="151" y="782"/>
      <point x="127" y="758"/>
      <point x="127" y="715" type="curve" smooth="yes"/>
      <point x="127" y="665" type="line" smooth="yes"/>
      <point x="127" y="622"/>
      <point x="151" y="598"/>
    </contour>
  </outline>
</glyph>
<glyph name="uniFB02" format="1">
  <advance width="1710"/>
  <unicode hex="FB02"/>
  <outline>
    <contour>
      <point x="438" y="0" type="curve" smooth="yes"/>
      <point x="512" y="0" type="line" smooth="yes"/>
      <point x="555" y="0"/>
      <point x="589" y="34"/>
      <point x="589" y="77" type="curve" smooth="yes"/>
      <point x="589" y="821" type="line" smooth="yes"/>
      <point x="589" y="841"/>
      <point x="592" y="858"/>
      <point x="612" y="858" type="curve" smooth="yes"/>
      <point x="1006" y="858" type="line" smooth="yes"/>
      <point x="1049" y="858"/>
      <point x="1073" y="867"/>
      <point x="1073" y="910" type="curve" smooth="yes"/>
      <point x="1073" y="951" type="line" smooth="yes"/>
      <point x="1073" y="994"/>
      <point x="1049" y="1006"/>
      <point x="1006" y="1006" type="curve" smooth="yes"/>
      <point x="601" y="1006" type="line" smooth="yes"/>
      <point x="591" y="1006"/>
      <point x="589" y="1014"/>
      <point x="589" y="1017" type="curve" smooth="yes"/>
      <point x="589" y="1060" type="line" smooth="yes"/>
      <point x="589" y="1199"/>
      <point x="651" y="1323"/>
      <point x="999" y="1323" type="curve" smooth="yes"/>
      <point x="1085.07" y="1323"/>
      <point x="1232.68" y="1307.84"/>
      <point x="1322" y="1298.07" type="curve"/>
      <point x="1322" y="67" type="line" smooth="yes"/>
      <point x="1322" y="24"/>
      <point x="1346" y="0"/>
      <point x="1389" y="0" type="curve" smooth="yes"/>
      <point x="1483" y="0" type="line" smooth="yes"/>
      <point x="1526" y="0"/>
      <point x="1550" y="24"/>
      <point x="1550" y="67" type="curve" smooth="yes"/>
      <point x="1550" y="1351" type="line" smooth="yes"/>
      <point x="1550" y="1394"/>
      <point x="1525.66" y="1412.6"/>
      <point x="1483" y="1418" type="curve"/>
      <point x="1364.58" y="1441.11"/>
      <point x="1238.03" y="1475"/>
      <point x="943" y="1475" type="curve" smooth="yes"/>
      <point x="653" y="1475"/>
      <point x="362" y="1381"/>
      <point x="362" y="1041" type="curve" smooth="yes"/>
      <point x="362" y="1019"/>
      <point x="361" y="1006"/>
      <point x="339" y="1006" type="curve" smooth="yes"/>
      <point x="189" y="1006" type="line" smooth="yes"/>
      <point x="146" y="1006"/>
      <point x="122" y="988"/>
      <point x="122" y="945" type="curve" smooth="yes"/>
      <point x="122" y="910" type="line" smooth="yes"/>
      <point x="122" y="867"/>
      <point x="146" y="858"/>
      <point x="189" y="858" type="curve" smooth="yes"/>
      <point x="341" y="858" type="line" smooth="yes"/>
      <point x="361" y="858"/>
      <point x="361" y="841"/>
      <point x="361" y="821" type="curve" smooth="yes"/>
      <point x="361" y="77" type="line" smooth="yes"/>
      <point x="361" y="34"/>
      <point x="395" y="0"/>
    </contour>
  </outline>
</glyph>
<glyph name="uniFB03" format="1">
  <advance width="2409"/>
  <outline>
    <contour>
      <point x="438" y="0" type="curve" smooth="yes"/>
      <point x="512" y="0" type="line" smooth="yes"/>
      <point x="555" y="0"/>
      <point x="589" y="34"/>
      <point x="589" y="77" type="curve" smooth="yes"/>
      <point x="589" y="821" type="line" smooth="yes"/>
      <point x="589" y="841"/>
      <point x="592" y="858"/>
      <point x="612" y="858" type="curve" smooth="yes"/>
      <point x="1172" y="858" type="line" smooth="yes"/>
      <point x="1192" y="858"/>
      <point x="1192" y="841"/>
      <point x="1192" y="821" type="curve" smooth="yes"/>
      <point x="1192" y="77" type="line" smooth="yes"/>
      <point x="1192" y="34"/>
      <point x="1226" y="0"/>
      <point x="1269" y="0" type="curve" smooth="yes"/>
      <point x="1343" y="0" type="line" smooth="yes"/>
      <point x="1386" y="0"/>
      <point x="1420" y="34"/>
      <point x="1420" y="77" type="curve" smooth="yes"/>
      <point x="1420" y="821" type="line" smooth="yes"/>
      <point x="1420" y="841"/>
      <point x="1423" y="858"/>
      <point x="1443" y="858" type="curve" smooth="yes"/>
      <point x="2022" y="858" type="line"/>
      <point x="2022" y="67" type="line" smooth="yes"/>
      <point x="2022" y="24"/>
      <point x="2046" y="0"/>
      <point x="2089" y="0" type="curve" smooth="yes"/>
      <point x="2183" y="0" type="line" smooth="yes"/>
      <point x="2226" y="0"/>
      <point x="2250" y="24"/>
      <point x="2250" y="67" type="curve" smooth="yes"/>
      <point x="2250" y="939" type="line" smooth="yes"/>
      <point x="2250" y="982"/>
      <point x="2226" y="1006"/>
      <point x="2183" y="1006" type="curve" smooth="yes"/>
      <point x="1432" y="1006" type="line" smooth="yes"/>
      <point x="1422" y="1006"/>
      <point x="1420" y="1014"/>
      <point x="1420" y="1017" type="curve" smooth="yes"/>
      <point x="1420" y="1060" type="line" smooth="yes"/>
      <point x="1420" y="1199"/>
      <point x="1454.5" y="1323"/>
      <point x="1650" y="1323" type="curve" smooth="yes"/>
      <point x="1708.03" y="1323"/>
      <point x="1827.6" y="1290"/>
      <point x="1832" y="1290" type="curve" smooth="yes"/>
      <point x="1866" y="1290"/>
      <point x="1873" y="1297"/>
      <point x="1873" y="1334" type="curve" smooth="yes"/>
      <point x="1873" y="1388" type="line" smooth="yes"/>
      <point x="1873" y="1416"/>
      <point x="1851" y="1431"/>
      <point x="1823" y="1438" type="curve"/>
      <point x="1806.77" y="1441"/>
      <point x="1696.78" y="1475"/>
      <point x="1594" y="1475" type="curve" smooth="yes"/>
      <point x="1393.97" y="1475"/>
      <point x="1193" y="1381"/>
      <point x="1193" y="1041" type="curve" smooth="yes"/>
      <point x="1193" y="1019"/>
      <point x="1192" y="1006"/>
      <point x="1170" y="1006" type="curve" smooth="yes"/>
      <point x="601" y="1006" type="line" smooth="yes"/>
      <point x="591" y="1006"/>
      <point x="589" y="1014"/>
      <point x="589" y="1017" type="curve" smooth="yes"/>
      <point x="589" y="1060" type="line" smooth="yes"/>
      <point x="589" y="1199"/>
      <point x="625" y="1323"/>
      <point x="829" y="1323" type="curve" smooth="yes"/>
      <point x="888.623" y="1323"/>
      <point x="1011.48" y="1290"/>
      <point x="1016" y="1290" type="curve" smooth="yes"/>
      <point x="1050" y="1290"/>
      <point x="1057" y="1297"/>
      <point x="1057" y="1334" type="curve" smooth="yes"/>
      <point x="1057" y="1388" type="line" smooth="yes"/>
      <point x="1057" y="1416"/>
      <point x="1035" y="1431"/>
      <point x="1007" y="1438" type="curve"/>
      <point x="990.417" y="1441"/>
      <point x="878.024" y="1475"/>
      <point x="773" y="1475" type="curve" smooth="yes"/>
      <point x="567.977" y="1475"/>
      <point x="362" y="1381"/>
      <point x="362" y="1041" type="curve" smooth="yes"/>
      <point x="362" y="1019"/>
      <point x="361" y="1006"/>
      <point x="339" y="1006" type="curve" smooth="yes"/>
      <point x="189" y="1006" type="line" smooth="yes"/>
      <point x="146" y="1006"/>
      <point x="122" y="988"/>
      <point x="122" y="945" type="curve" smooth="yes"/>
      <point x="122" y="910" type="line" smooth="yes"/>
      <point x="122" y="867"/>
      <point x="146" y="858"/>
      <point x="189" y="858" type="curve" smooth="yes"/>
      <point x="341" y="858" type="line" smooth="yes"/>
      <point x="361" y="858"/>
      <point x="361" y="841"/>
      <point x="361" y="821" type="curve" smooth="yes"/>
      <point x="361" y="77" type="line" smooth="yes"/>
      <point x="361" y="34"/>
      <point x="395" y="0"/>
    </contour>
    <contour>
      <point x="2089" y="1179" type="curve" smooth="yes"/>
      <point x="2183" y="1179" type="line" smooth="yes"/>
      <point x="2226" y="1179"/>
      <point x="2250" y="1203"/>
      <point x="2250" y="1246" type="curve" smooth="yes"/>
      <point x="2250" y="1344" type="line" smooth="yes"/>
      <point x="2250" y="1387"/>
      <point x="2226" y="1411"/>
      <point x="2183" y="1411" type="curve" smooth="yes"/>
      <point x="2089" y="1411" type="line" smooth="yes"/>
      <point x="2046" y="1411"/>
      <point x="2022" y="1387"/>
      <point x="2022" y="1344" type="curve" smooth="yes"/>
      <point x="2022" y="1246" type="line" smooth="yes"/>
      <point x="2022" y="1203"/>
      <point x="2046" y="1179"/>
    </contour>
  </outline>
</glyph>
